<svg xmlns="http://www.w3.org/2000/svg" viewBox="0 0 447.82 23.45"><defs><style>.cls-1{fill:#dd9429;}.cls-2{fill:#1fc0da;}.cls-3{fill:#948b84;}.cls-4{fill:none;}</style></defs><title>Asset 2</title><g id="Layer_2" data-name="Layer 2"><g id="Layer_1-2" data-name="Layer 1"><path class="cls-1" d="M271,4.72l-4.12.3c-.63.05-1,.23-.88,1q.84,5.46,1.58,10.94c.11.86.41,1.19,1.29,1.1,3.13-.33,6.27-.6,9.39-1,.21,0,.53-.67.48-1-.18-1.08-.55-2.13-.74-3.21-.38-2.16-.67-4.34-1-6.51-.12-.73-.31-1.42-1.32-1.45-1.6,0-3.19-.17-4.64-.25m-8.92,8.15c-.29-3.61-.56-7.23-1-10.81-.13-1,.26-1.22,1.13-1.19,2.29.1,4.58.29,6.87.22C272,1,274.93.73,277.84.44c1.24-.13,2,.38,2.13,1.62a71.89,71.89,0,0,0,2.68,15.26c.36,1.2,1,2.5-.46,3.48a1.94,1.94,0,0,1-.82.39c-3.37.4-6.74.74-10.1,1.16-2,.26-4.08.56-6.1,1-1.13.22-1.8.32-2.25-.8-.56-1.41-.3-3.76-.44-5.3s-.25-2.89-.36-4.34"/><path class="cls-1" d="M198.05,13.16c.13,1.5.22,2.86.41,4.22,0,.27.46.74.67.72,3.64-.39,7.26-.85,10.9-1.25.89-.09,1-.51.93-1.28q-.59-4.5-1.1-9c-.08-.7-.41-.75-1-.7-3.09.24-6.18.52-9.27.57-1.24,0-1.54.45-1.53,1.5,0,1.78,0,3.57,0,5.22m11.88,8.11-13,1h-.14c-.73,0-2,.27-2.47-.48a2.71,2.71,0,0,1-.24-1.36c0-5.52-.14-11-.14-16.55,0-.91.27-1.27,1.25-1.32,5.46-.31,10.91-.6,16.33-1.31a2.19,2.19,0,0,1,1.05,0c1,.39.86,3.14,1,4,.21,1.73.41,3.47.65,5.19.39,2.75.81,5.5,1.33,8.22a1.88,1.88,0,0,1-1.87,2.47l-3.7.18v-.11"/><path class="cls-1" d="M236.55,3.35c-.55,0-1.42.17-2.28.17a1.46,1.46,0,0,0-1.68,1.67c0,1.51,0,3,.13,4.52.17,2,.61,3.89.72,5.85.14,2.58.05,2.57,2.6,2.33,2.82-.27,5.65-.53,8.48-.75,1.1-.09,1.37-.61,1.19-1.64-.26-1.48-.41-3-.62-4.49-.31-2.17-.64-4.35-.93-6.52a1.17,1.17,0,0,0-1.29-1.14c-2,0-4,0-6.32,0M238.44.27c1.33-.09,2.64-.11,3.86-.1,2.68,0,5.32-1.2,5.27,2.45a36.48,36.48,0,0,0,.61,4.6c.18,1.59.26,3.19.46,4.77.23,1.86.53,3.72.81,5.57s-.48,2.93-2.34,3.13c-2.63.28-5.25.6-7.88.89s-5.35.6-8,.84c-1.7.15-1.9-.1-2-1.76-.31-5.16-.65-10.32-1-15.47,0-.23,0-.46,0-.69,0-2.79,1.86-2.58,4.07-3.22a30.34,30.34,0,0,1,6.18-1"/><path class="cls-1" d="M180.36,11.07c0-1.92,0-3.84,0-5.77,0-.6-.22-.93-.88-1-2.78,0-5.56-.12-8.35-.19-.52,0-.84,0-.79.74a28.7,28.7,0,0,1,0,3.47c-.12,2.74-.31,5.47-.42,8.2,0,.72,0,1.35,1.17,1.27,1.95-.15,3.91-.18,5.88-.19,1.5,0,3.49.6,3.46-1.47,0-1.7-.05-3.41-.07-5.11m-14.7-1.44c.13-2.33.28-4.67.36-7,0-.77.35-1.21,1.13-1.27a18.34,18.34,0,0,1,2.45-.11c2.23.16,4.46.48,6.7.56,1.77.07,3.54-.18,5.32-.17,1.36,0,1.89.67,1.85,2.1s-.2,2.84-.19,4.26c0,3.43.12,6.86.21,10.29a2.65,2.65,0,0,1-2.68,2.84q-6.48.09-13,.28a3.49,3.49,0,0,1-1.76-.25c-.92-.48-.65-1.36-.68-2.2-.08-3.11.07-6.22.26-9.33"/><path class="cls-1" d="M158.82.87l1.21.19c1,.15,2,.53,2,1.67a4.16,4.16,0,0,1-.9,2.41,2.09,2.09,0,0,1-2.76.37,5,5,0,0,1-1.26-.8,2.39,2.39,0,0,1-.62-2.66c.43-1,1.33-1.15,2.31-1.18"/><path class="cls-1" d="M158.79,17.61c1.84-.07,2.8.6,2.9,2.06.08,1.15-1.48,2.6-2.85,2.63a2.51,2.51,0,0,1-2.75-2.41c-.08-1.4.87-2.2,2.7-2.28"/><path class="cls-1" d="M159.21,14.16c-.93,0-2.34-1.64-2.36-2.7A3.36,3.36,0,0,1,159.56,9a2.91,2.91,0,0,1,2.56,2.6c0,1.15-1.65,2.63-2.91,2.61"/><path class="cls-1" d="M257.86,12.69c0,1-1.76,2.39-2.87,2.32a2.86,2.86,0,0,1-2.32-2.71,3.2,3.2,0,0,1,2.52-2.2,3.25,3.25,0,0,1,2.67,2.59"/><path class="cls-1" d="M255,22.69a1.93,1.93,0,0,1-1.94-3c.91-1.56,4.25-2.19,4.87,0,.44,1.51-1.1,2.41-2.28,2.86a3,3,0,0,1-.65.17"/><path class="cls-1" d="M255,1.55a8,8,0,0,1,1.55.63,1.94,1.94,0,0,1,.65,3,2.3,2.3,0,0,1-3.4.25,4.39,4.39,0,0,1-1-1.78c-.37-1.45.29-2.2,2.15-2.12"/><path class="cls-1" d="M224.51,12.52c.06,1.89-.95,3.11-2.58,3.12a2.24,2.24,0,0,1-2.23-2.13c0-1.18,1.42-2.41,2.84-2.46a1.77,1.77,0,0,1,2,1.47"/><path class="cls-1" d="M288,4.91c-1.16,0-2-1.14-2-2.64A1.85,1.85,0,0,1,287.83.38c1.2.06,2.78,1.44,2.81,2.45S289.3,4.93,288,4.91"/><path class="cls-1" d="M288.14,17.21c.94-.22,1.84.32,1.93,2.13.09,2.12-2.92,4.63-3.89,1.71a3.05,3.05,0,0,1,2-3.84"/><path class="cls-1" d="M222.2,6.35a2.49,2.49,0,0,1-2.26-2.47,2.31,2.31,0,0,1,2.12-2c1.26,0,2.4.81,2.37,1.64-.05,1.56-1,2.79-2.23,2.79"/><path class="cls-1" d="M221.57,19.65a2.22,2.22,0,0,1,2.37,2c-.05,1.17-.95,1.57-2,1.69a4.37,4.37,0,0,1-1.69,0A1.83,1.83,0,0,1,219,21.43c0-.74,1.64-1.79,2.54-1.78"/><path class="cls-1" d="M191.39,5.07a2.13,2.13,0,0,1-2,2.06c-1.32,0-2.13-.63-2.16-1.76,0-1.42.88-2.68,2-2.7a2.34,2.34,0,0,1,2.17,2.4"/><path class="cls-1" d="M290.93,11.39a2.08,2.08,0,0,1-2.26,2.06,1.88,1.88,0,0,1-1.8-2c0-1.08,1.08-2.51,1.82-2.49a3.13,3.13,0,0,1,2.24,2.44"/><path class="cls-1" d="M187.17,12.69c.08-1.54.72-2.48,1.66-2.43a3,3,0,0,1,2.24,2.55,2.52,2.52,0,0,1-2.28,2,1.84,1.84,0,0,1-1.62-2.13"/><path class="cls-1" d="M186,20.12a1.49,1.49,0,0,1,1.58-1.66,2.32,2.32,0,0,1,2.19,1.92c0,.74-1.43,2-2.21,1.92S186,21.11,186,20.12"/><path class="cls-1" d="M271.72,9.79c1.39,0,2.67,1,2.64,2.09a2.6,2.6,0,0,1-2.1,2.07c-.77.05-2.17-1.68-2.17-2.68a1.48,1.48,0,0,1,1.63-1.48"/><path class="cls-1" d="M202.05,12A1.8,1.8,0,0,1,204,10.28a2.07,2.07,0,0,1,1.9,2.11c0,.66-1.27,1.62-2.1,1.61a1.82,1.82,0,0,1-1.73-2"/><path class="cls-1" d="M238.7,8.23A2.82,2.82,0,0,1,241.56,11a2.42,2.42,0,0,1-2.67,2.18,3.23,3.23,0,0,1-2.77-2.79,2.39,2.39,0,0,1,2.58-2.13"/><path class="cls-1" d="M175.2,13.85A2.28,2.28,0,0,1,173,11.52c0-1.22.78-2.37,1.63-2.33,1,0,2.94,1.68,3,2.55a2.71,2.71,0,0,1-2.38,2.11"/><path class="cls-2" d="M6.09,13.84h.29a9.82,9.82,0,0,0,3.49-.38,6.52,6.52,0,0,0,2.41-1.92c2.17-2.16,4.25-4.44,6.33-6.68.83-.88,1.22-.79,2.18,0a17.22,17.22,0,0,1,3.46,4.4c.92,1.55,1.56,3.37,2.74,4.74a2,2,0,0,0,1.26.52q3.87.33,7.76.55a1.52,1.52,0,0,0,1.08-.27,22.16,22.16,0,0,0,2.42-3.15C40.79,9.5,41.92,7.22,43.17,5c.5-.9,1.61-.77,2.29.09q3.54,4.51,7.15,9a1.62,1.62,0,0,0,1.1.48c2.69.1,5.38.2,8.06.14.44,0,1-.7,1.28-1.19a84.13,84.13,0,0,0,4.29-7.57A2.47,2.47,0,0,1,68,5.06c1-.75,2.62.53,3.3,1.16a34.66,34.66,0,0,1,2.85,3.42c1.06,1.28,2.11,2.58,3.21,3.84a2.51,2.51,0,0,0,1.86.82,38.5,38.5,0,0,1,9.83,0,2.58,2.58,0,0,0,1.88-1.06c1.44-2,2.73-4.05,4.08-6.1.48-.74,1-1,1.78-.34,1.63,1.48,3.28,2.94,4.91,4.42,1.27,1.15,2.52,2.32,3.79,3.47a1.18,1.18,0,0,0,.66.3c1.89.18,3.79.33,5.68.5,2.4.22,3.75-1.49,5.16-3,1.63-1.69,3.22-3.56,4.84-5.31C123,6,125.05,2.73,127,3.89c1,.58,1.41,1.89,1.93,2.82l2.75,4.87c.51.91,1.35,3.39,2.76,3.22,2.49-.32,8.9-2,9.63,1.56.42,2-.25,3-2.26,3.15-2.52.15-5.05.34-7.57.43-1.85.06-3.56.85-4.49-1.34-1.11-2.65-2.54-5.16-3.85-7.72-.41-.79-.7-.55-1.12,0q-2.31,3.22-4.69,6.39a21.76,21.76,0,0,1-1.78,1.94,1.43,1.43,0,0,1-.67.47,65,65,0,0,1-8.95.76,12.26,12.26,0,0,1-4.24-.36A11.74,11.74,0,0,1,101,17.41c-1.21-1.12-2.41-2.24-3.63-3.35-1-.88-1.14-.14-1.64.87s-1,2-1.6,3a3.89,3.89,0,0,1-3.68,2c-3.47-.12-7-.21-10.42-.3a8.4,8.4,0,0,0-1,.07c-2.16.17-3.75-.18-5-2a34.61,34.61,0,0,0-3.21-3.74c-.54-.6-.93-.47-1.28.28a21.75,21.75,0,0,1-2,3.77C66,20,63.16,20,60.82,19.86c-3.16-.17-6.32-.27-9.47-.57-.94-.09-1.84-1.83-2.36-2.5a36.83,36.83,0,0,0-3.36-4.16c-1.37-1.33-1.77.24-2.42,1.39s-1.27,2.36-2,3.49A5.93,5.93,0,0,1,38,20.15c-1.75.51-3.64,0-5.41-.11s-3.34-.16-5-.23c-1.35-.06-2.28-.06-3-1.35C23.18,16,21.64,13.7,20.2,11.3c-.5-.82-.8-.23-1.05.14-1,1.49-2,3-3,4.53s-2.13,2.58-4.27,2.6c-3.45,0-6.91.49-10.35.86-.83.09-1.22,0-1.28-.89,0-.49-.12-1-.19-1.46-.28-1.94.41-2.92,2.34-3.14,1.22-.13,2.46-.09,3.68-.13v0"/><path class="cls-3" d="M376.7,12.73c-.27-.44-.77-1-1.18-1-1.25,0-2.49.2-3.74.2-1.48,0-3.63.08-4.92-.76a16.84,16.84,0,0,1-3.76-3.73C362,6,360.88,4.61,359.76,3.21c-.76-1-.91-1.86-2.27-1.8-1.65.07-4-.42-5.43.64-.75.56-.32,1.24.12,1.88,1.38,2,2.34,4.36,3.58,6.5.38.66.09.82-.52.76A17.24,17.24,0,0,0,353,11a2.46,2.46,0,0,1-2.11-.83c-.59-.63-1.15-1.29-1.71-1.94L346.48,5.1c-.45-.52-.89-1-1.35-1.55s-.78-1.19-1.62-1.37a5.26,5.26,0,0,0-1.68,0c-1.95.2-5.07-.47-6.66.95-.42.36-.39.56-.08.9q2.12,2.28,4.22,4.58c.41.45.81.9,1.17,1.38s.23.62-.32.61c-1.14,0-2.27,0-3.4.06-1.71.09-2.72-1.26-3.8-2.36a31.77,31.77,0,0,1-3.5-4.18,3.62,3.62,0,0,0-3.42-2,30.21,30.21,0,0,0-4.36,0c-.66.08-2.65.55-1.8,1.43s1.67,1.65,2.46,2.52c.93,1,1.82,2.11,2.69,3.2.65.81.15,1.05-.64,1.15a22.68,22.68,0,0,1-4.58-.21,1.93,1.93,0,0,1-1.09-.53c-1.36-1.32-2.71-2.65-4-4-.8-.86-1.53-1.78-2.28-2.69-.3-.35-.52-.75-.94-.91A7,7,0,0,0,309.73,2c-1.36-.05-2.73,0-4.09.05-.89,0-3.67-.37-3.22,1.3a2.74,2.74,0,0,0,.43.81l3.22,4.7c.8,1.18,1.64,2.87,3.34,2.78,1.11-.06,2.22,0,3.33-.08.56,0,2.27-.68,2.64,0a.81.81,0,0,1,0,.78,2.2,2.2,0,0,1-.55.59c-2.17,1.88-4.3,3.79-6.42,5.72a1.42,1.42,0,0,0-.51.68c-.48,1.88,4.74,1.26,5.57,1.28,1.14,0,2.58.36,3.6-.28a7.25,7.25,0,0,0,1.42-1.35,40.05,40.05,0,0,1,7.33-6.16,3.49,3.49,0,0,1,1.69-.6c1.44-.07,2.88,0,4.33,0,.55,0,.61.39.23.75-2,1.9-4,3.8-6,5.72-.44.42-1,.92-.77,1.6A2.31,2.31,0,0,0,327,21.37a7.79,7.79,0,0,0,2.36-.08c1.33-.17,2.61.13,3.86-.47a14,14,0,0,0,2.71-2.24c2.07-1.8,4.15-3.61,6.26-5.36a3.29,3.29,0,0,1,1.78-.83c.87,0,1.75,0,2.62,0,.61,0,2.16-.25,2.27.67.09.73-1.35,1.87-1.79,2.38-1.3,1.5-2.63,3-3.89,4.52-.62.77-.26,1.46.71,1.51,2,.08,3.93.2,5.89.18A3.13,3.13,0,0,0,352,20.27c.73-.86,1.48-1.71,2.25-2.53q1.59-1.68,3.3-3.23a5.64,5.64,0,0,1,1.59-1.27,4.07,4.07,0,0,1,1.9,0,21,21,0,0,0,2.63.18c.26,0,.93.22,1,.54s-1.34,1.37-1.58,1.62l-2.22,2.28a3.7,3.7,0,0,0-.74.94,1.31,1.31,0,0,0,.19,1.46c.41.39.89.16,1.38.16,2.12,0,4.24,0,6.36-.14a3.08,3.08,0,0,0,1.63-.57c1.27-1,2.46-2,3.68-3.05s2.19-1.81,3.21-2.79a1.16,1.16,0,0,0,.15-1.11"/><path class="cls-3" d="M443,12.73c-.26-.44-.77-1-1.18-1-1.25,0-2.49.2-3.74.2-1.48,0-3.63.08-4.92-.76a16.59,16.59,0,0,1-3.75-3.73l-3.35-4.21c-.76-1-.91-1.86-2.27-1.8-1.65.07-4-.42-5.43.64-.75.56-.32,1.24.12,1.88,1.38,2,2.34,4.36,3.58,6.5.38.66.09.82-.52.76a17.25,17.25,0,0,0-2.25-.2,2.47,2.47,0,0,1-2.12-.83c-.58-.63-1.15-1.29-1.71-1.94L412.77,5.1c-.44-.52-.89-1-1.34-1.55s-.79-1.19-1.63-1.37a5.26,5.26,0,0,0-1.68,0c-1.94.2-5.06-.47-6.66.95-.41.36-.39.56-.08.9q2.12,2.28,4.22,4.58c.41.45.81.9,1.17,1.38s.23.62-.32.61c-1.14,0-2.27,0-3.4.06-1.7.09-2.72-1.26-3.8-2.36a31.77,31.77,0,0,1-3.5-4.18,3.62,3.62,0,0,0-3.42-2,30.21,30.21,0,0,0-4.36,0c-.66.08-2.65.55-1.8,1.43s1.67,1.65,2.46,2.52c.93,1,1.82,2.11,2.69,3.2.65.81.15,1.05-.64,1.15a22.68,22.68,0,0,1-4.58-.21A1.93,1.93,0,0,1,385,9.68c-1.35-1.32-2.7-2.65-4-4-.8-.86-1.53-1.78-2.28-2.69-.29-.35-.52-.75-.94-.91A7,7,0,0,0,376,2c-1.37-.05-2.74,0-4.1.05-.89,0-3.67-.37-3.21,1.3a2.72,2.72,0,0,0,.42.81l3.22,4.7c.8,1.18,1.64,2.87,3.35,2.78,1.1-.06,2.21,0,3.32-.08.56,0,2.27-.68,2.64,0a.81.81,0,0,1,0,.78,2.2,2.2,0,0,1-.55.59c-2.17,1.88-4.3,3.79-6.42,5.72a1.42,1.42,0,0,0-.51.68c-.48,1.88,4.74,1.26,5.57,1.28,1.14,0,2.59.36,3.6-.28a7.25,7.25,0,0,0,1.42-1.35,40.39,40.39,0,0,1,7.33-6.16,3.49,3.49,0,0,1,1.69-.6c1.44-.07,2.89,0,4.33,0,.55,0,.61.39.23.75-2,1.9-4,3.8-6,5.72-.44.42-1,.92-.77,1.6a2.31,2.31,0,0,0,1.72,1.16,7.79,7.79,0,0,0,2.36-.08c1.33-.17,2.61.13,3.87-.47a14.29,14.29,0,0,0,2.7-2.24c2.07-1.8,4.16-3.61,6.26-5.36a3.29,3.29,0,0,1,1.78-.83c.87,0,1.75,0,2.62,0,.62,0,2.16-.25,2.28.67.08.73-1.35,1.87-1.79,2.38-1.31,1.5-2.64,3-3.89,4.52-.63.77-.27,1.46.7,1.51,2,.08,3.93.2,5.9.18a3.13,3.13,0,0,0,2.24-1.43c.73-.86,1.48-1.71,2.25-2.53q1.59-1.68,3.31-3.23a5.37,5.37,0,0,1,1.59-1.27,4,4,0,0,1,1.89,0,21,21,0,0,0,2.63.18c.27,0,.93.22,1,.54s-1.33,1.37-1.58,1.62l-2.22,2.28a3.94,3.94,0,0,0-.74.94,1.31,1.31,0,0,0,.19,1.46c.41.39.89.16,1.38.16,2.12,0,4.24,0,6.36-.14a3.05,3.05,0,0,0,1.63-.57c1.27-1,2.46-2,3.68-3.05s2.19-1.81,3.21-2.79a1.16,1.16,0,0,0,.15-1.11"/><rect class="cls-4" width="447.82" height="23.45"/></g></g></svg>