<svg xmlns="http://www.w3.org/2000/svg" xmlns:xlink="http://www.w3.org/1999/xlink" viewBox="0 0 427.88 142"><defs><style>.cls-1{fill:none;}.cls-2{clip-path:url(#clip-path);}.cls-3{fill:#898e8c;}</style><clipPath id="clip-path" transform="translate(0 0)"><rect class="cls-1" width="427.88" height="142"/></clipPath></defs><title>Asset 5</title><g id="Layer_2" data-name="Layer 2"><g id="Layer_1-2" data-name="Layer 1"><g class="cls-2"><path class="cls-3" d="M320.89,49.52C321,39,316.25,29.36,309.9,21c-2.55-3.34-7-9.08-9.51-2.49a71,71,0,0,0-4.72,30.15C296,53.35,299.61,77,307,74.86c9.14-2.67,12.81-13.76,13.71-22.22.11-1,.18-2.08.19-3.12m7.94.76a42.51,42.51,0,0,1-5.67,20C319.28,77,311.07,84.15,302.8,83.67s-14.69-10-16.87-17.13c-2.28-7.4-2-15.27-1.15-22.88.8-7.17,1.21-14.83,3.9-21.6,2.88-7.25,6.29-13.91,11.65-19.7,2.18-2.36,5.9-1.89,7.82,1.09,5.32,8.23,10.93,16.32,15.6,24.92a43.19,43.19,0,0,1,5.08,21.91" transform="translate(0 0)"/><path class="cls-3" d="M49.54,44.87c-.41,7.8.58,15.62,4.71,21.56,1.49,2.13,2.84,3.19,5.15.44A55.79,55.79,0,0,0,70.87,45.18C74.11,33,70.62,22.66,60.6,15.05c-5.82-4.43-7.35,8.4-8.26,12.23a101.17,101.17,0,0,0-2.8,17.59m-12.6,1.28a60.27,60.27,0,0,1,1.38-15.91c1.83-8.34,5.24-17.89,10.59-24.62,3.16-4,6-5,10.56-2.52A43.94,43.94,0,0,1,74.75,16.85,43.24,43.24,0,0,1,82,34.79c2.72,18-7.15,33.93-20,45.57-3.8,3.44-5.71,3.21-9-.67s-7.5-7.58-10.06-12a47.87,47.87,0,0,1-6-21.49" transform="translate(0 0)"/><path class="cls-3" d="M170.49,43.65a39.05,39.05,0,0,0,7.6,24.09c3.66,5.09,8.48-1.77,10.88-4.9A30.21,30.21,0,0,0,194.84,46c.54-10.56-3.72-20.53-6.82-30.39-.53-1.7-1.9-3.23-3.8-2.26a6.15,6.15,0,0,0-1.77,1.53c-7,7.89-11.67,18.13-12,28.74m33.56-2.31a46.14,46.14,0,0,1-1.17,10.21c-2.66,11.55-10.35,24.55-22.1,28.52-2.92,1-4.8,1.23-7.29-.77A25.38,25.38,0,0,1,168,72.36c-2.79-4.71-6.33-9.76-7.77-15a38.85,38.85,0,0,1,0-19.28c2-8,5.95-15.39,10.48-22.26,4.25-6.45,9.18-12.52,17.78-12,2.43.14,5.39,3.49,6.84,6.09,3.42,6.12,5.69,13.25,7.35,20a46.92,46.92,0,0,1,1.36,11.44" transform="translate(0 0)"/><path class="cls-3" d="M382.38,46.44c.54-12.21-6.35-20.7-11.8-30.93-2.86-5.38-7,5.79-7.8,7.81A49.3,49.3,0,0,0,359.48,39a49.86,49.86,0,0,0,8.73,30.84,4.57,4.57,0,0,0,2.47,2.09c2.57.57,6.33-8.73,7.32-10.68a36.28,36.28,0,0,0,4.37-14.52c0-.09,0-.19,0-.28m8.61.45A54.71,54.71,0,0,1,375.35,83c-2.19,2.19-3.31,1.92-5.59,0A49.94,49.94,0,0,1,360,71.53c-10.68-16.81-10.75-37.64-3.2-55.72,1.69-4,9.62-22.42,15.7-13.31,9.06,13.61,19,27,18.46,44.39" transform="translate(0 0)"/><path class="cls-3" d="M108.87,51.41a37.78,37.78,0,0,0,.84,5.09c1.39,5.83,4.51,9.74,8,14.42,1.52,2,2.64,2.26,4.63.54,7.72-6.67,11.24-15,10.53-25.17C132.13,35,126.73,25.53,121.48,16c-3.55-6.45-6.35,3.66-7.33,6.28a87,87,0,0,0-4.87,17.26,47.41,47.41,0,0,0-.41,11.9m-8.17-1.14c-.06-1.35-.09-2.67-.1-4A68.62,68.62,0,0,1,112.51,7.06c1.25-1.81,2.84-4.15,4.87-5.16,2.6-1.3,4.16.43,5.83,2.56,4.26,5.41,8.54,11,11.76,17,4.74,8.9,7.44,18.62,6.4,28.84-1.34,13.15-7.32,23.86-18.32,31.5-2.12,1.47-4.19,2-6.56,0-5-4.24-10-9.45-12.68-15.59-2.06-4.78-2.85-10.52-3.11-15.93" transform="translate(0 0)"/><path class="cls-3" d="M235.54,43.89c0,1.45.05,2.9.18,4.36a41,41,0,0,0,4,14.42c1.84,3.73,5.16,11.5,9.68,6.84,5.28-5.43,7.31-12.44,7.24-19.39-.11-11.11-3.88-21.45-10.33-30.69-1.51-2.16-2.52-2.11-3.81,0a48.4,48.4,0,0,0-7,24.42m29.83,4c-.07,10.36-3.71,21.06-11,27.93-6,5.72-11.85,5.89-17.52-.37C224.66,62,223.38,43.39,228.76,26.61c2.4-7.49,6.91-13.71,11.61-19.92a7.62,7.62,0,0,1,1.75-1.83c1.63-1.06,3.35-.11,4.73.9a9.38,9.38,0,0,1,3.05,3.06C254,17.39,260,25,263.16,34.06a40.85,40.85,0,0,1,2.21,13.86" transform="translate(0 0)"/><path class="cls-3" d="M309.44,36a7,7,0,0,1,4.74,8.44c-1.93,5.9-11.24,5.81-11.27-1.13a10,10,0,0,1,2.44-5.69,4.4,4.4,0,0,1,3.83-1.67l.26,0" transform="translate(0 0)"/><path class="cls-3" d="M66.86,45.34c-.28,4.93-8.35,3-10.32.75-2.63-3-1.86-12,3.83-9.56,4,1.72,6.76,4.16,6.49,8.81" transform="translate(0 0)"/><path class="cls-3" d="M176.51,41.64c-.06-6,8.4-8.64,11.82-3.54A6.86,6.86,0,0,1,188.5,45c-3.86,7.21-11.91,4.34-12-3.37" transform="translate(0 0)"/><path class="cls-3" d="M376.24,39a6.79,6.79,0,0,1-1.43,6c-2.41,3.13-6.73,5.47-9.62,1.76a6.43,6.43,0,0,1-.2-7.19c2.12-3.39,9.59-5.73,11.25-.56" transform="translate(0 0)"/><path class="cls-3" d="M128.81,42a7.58,7.58,0,0,1-7,7.3c-3.2.1-6.88-3.84-7-7.44-.14-7.76,11.8-9.31,13.73-1.63a6.24,6.24,0,0,1,.19,1.77" transform="translate(0 0)"/><path class="cls-3" d="M244.64,35.67c2.92-.75,6.87,2.75,7.15,6.12.31,3.81-4.31,8.6-8.18,6.81s-2.65-7.29-1.44-10.42a3.75,3.75,0,0,1,2.47-2.51" transform="translate(0 0)"/><path class="cls-3" d="M411.38,133.31c2.41.13,6.68.25,8.65-1.52s1.83-6.8,1.27-9.25a4.48,4.48,0,0,0-.5-1.44,3.67,3.67,0,0,0-1.55-1.28,9,9,0,0,0-11.59,3.83c-1.26,2.33-2,8.85,1.82,9.47a18.51,18.51,0,0,0,1.9.19M14.62,131.86c1.6.6,4.07-.16,5.69-.36,3-.36,6.08-.45,9.12-.59,1.61-.07,5,.47,6.16-1,.63-.82.21-2.18-.11-3a8.18,8.18,0,0,0-3-3.77,11.85,11.85,0,0,0-7-1.87c-2,0-5.35.23-7,1.43a18.13,18.13,0,0,0-2.79,2.88c-1.21,1.42-4,5.15-1,6.29m45.51.35h.53c3.34.09,6.67,0,10,0,.79,0,2.89.29,2.73-1.09a1.78,1.78,0,0,0-.32-.75c-3.13-5-9.71-7.09-15.32-6.36a17.87,17.87,0,0,0-3.94,1,16,16,0,0,0-5.29,3.09c-1.84,1.74-1.88,3.43,1.37,3.61,3.42.2,6.82.39,10.24.49M86,131.76c.46,0,.91-.1,1.24-.11,3.41-.16,6.81-.33,10.21-.43,2.84-.09,5.68-.1,8.52-.17,1.45,0,7.06.69,5.76-2.42-.5-1.18-2.23-1.69-3.29-2.25a28.67,28.67,0,0,0-5-2.06,29.69,29.69,0,0,0-6.79-1.27c-2.09-.14-4.63-.29-6.55.72s-3.32,3.07-4.85,4.72c-.56.61-1.76,1.27-1.46,2.24s1.39,1.07,2.17,1m53.78-.53c4.91,0,9.82,0,14.73.05,3.61,0,3.3-1.37,1.49-3.58-4.06-5-9.78-5.88-15.58-6.06-5.26-.16-10.42.42-13.14,6.23-1.17,2.49-.58,3.07,1.89,3.16,3.54.13,7.07.18,10.61.2m28.86.4c9.13-.19,17.57-.31,26-.56,1.45,0,2.89-.22,4.33-.38.88-.11,2.08.35,2.38-.87a2,2,0,0,0-.38-1.57,11,11,0,0,0-1.13-1.24c-.83-.88-1.45-1.94-2.31-2.83-8.57-8.94-24.24-7.18-30.43,3.32-1.69,2.87-1.15,3.88,1.54,4.13m107.53,2.11c3.56.07,7.11.08,10.64.08,3.71,0,7.42,0,11.14,0,1.77,0,3.31-.31,1.71-2.42-6.53-8.62-9.65-12.36-21-10.68-6.19.91-11.39,4-14.23,10.13-.82,1.75-.41,2.44,1.44,2.55,3.41.21,6.85.33,10.29.39m91.22,1.47a4.2,4.2,0,0,0,.71.26,8,8,0,0,0,2.58.1c7.49-.54,15-1.06,22.48-1.45h.19c6.92-.36,7.08-.37,3.54-6.29-2.16-3.61-4-7.74-8.64-9-4.42-1.25-9.25-.07-13.15,2.16a22.89,22.89,0,0,0-7.89,7.88c-1.24,1.91-2.26,5.2.18,6.39M234.2,117.53c-11.34-1.08-16.81,3-20.76,9.84-2.37,4.11-2.3,4.74,2.38,4.89,11.55.37,23.12.44,34.68.73,3.06.08,2.32-1.25,1.3-2.85-4.85-7.56-11.75-11.84-17.6-12.61m98.57,16.4c6.5-.08,12.94.92,19.44,1.25l.6,0c2.33.12,4.1-.51,1.67-3.2-2.28-2.52-4.33-5.25-6.64-7.74-5.24-5.61-18.67-8.31-25.72-5.54-5.51,2.17-7.32,7-9.32,11.82C311.8,133,312,134,315,134c4.57-.05,9.29.55,13.83.13,1.33-.12,2.66-.18,4-.2m95.1-.43a8.25,8.25,0,0,1-.57,2.77c-1.84,4.52-8,3.44-12,3.69q-9.88.63-19.77,1c-12.15.45-24.3.69-36.45,1-.45,0-.9.05-1.34,0-8.51-.51-17-1.18-25.53-1.5-4.62-.18-9.26.35-13.9.33-7.5,0-15-.21-22.5-.35-.88,0-1.76-.28-2.63-.27-64.31,1-128.77-1.7-193.1-1.6-28.19,0-56.31-.22-84.46-.22-4.43,0-12.78,2.07-15-3.36-1.51-3.78-.53-12.29,2.45-15.09,3.25-3.05,9-2.44,13-2.51,14.5-.24,29-.51,43.5-1.13,64.59-2.77,129-6,193.69-6.46q48.57-.37,97.15.42,24.53.41,49.05,1.1c6.09.18,15.93-1.44,21.51,1.21,4.56,2.18,4.78,8.6,5.66,12.94l.57,2.86a21.84,21.84,0,0,1,.57,5.14" transform="translate(0 0)"/></g></g></g></svg>