<svg xmlns="http://www.w3.org/2000/svg" xmlns:xlink="http://www.w3.org/1999/xlink" viewBox="0 0 1919.98 198.63"><defs><style>.cls-1{fill:none;}.cls-2{clip-path:url(#clip-path);}.cls-3{fill:#24bfdb;}</style><clipPath id="clip-path" transform="translate(0 0)"><rect class="cls-1" width="1919.98" height="198.63"/></clipPath></defs><title>Asset 7</title><g id="Layer_2" data-name="Layer 2"><g id="Layer_1-2" data-name="Layer 1"><g class="cls-2"><path class="cls-3" d="M882.79,50.56c-14.41-.43-28.81-1-43.22-1.48-25.55-.9-51.11-1.6-76.67-1.18-43.22-3-86.53-4.72-129.85-3.85-27.25.55-54.81,1.64-81.81,5.55C524.78,53.44,498.79,60,472.66,65.65S420,75.94,393.17,75.92c-27.85,0-55.65-2.6-83.3-5.8C253.68,63.62,197.75,56,141.27,52.4A1389.81,1389.81,0,0,0,0,50.5V63.3c35.53-1.38,71.12-1.22,106.65.18,56.6,2.24,112.85,8.25,169,15.35,54.72,6.92,110.27,14.47,165.23,6,26.32-4.06,52.18-10.69,78.22-16.22a532.53,532.53,0,0,1,80.29-10.52c49.92-2.88,100-1.46,149.94,1.75a5.46,5.46,0,0,0,3.09.91c2.61-.08,5.22-.13,7.83-.18q18.35,1.27,36.64,2.79a7.39,7.39,0,0,0,1.64,0c32.87,5.07,117.71,3.29,119,2.4q21.19-1.59,42.42-2.4V50.51q-16,.62-32,1.66c-.54-.17-30.67-1.19-45.16-1.61" transform="translate(0 0)"/><path class="cls-3" d="M882.79,76.24c-14.41-.42-28.81-1-43.22-1.48-25.55-.89-51.11-1.59-76.67-1.17-43.22-3-86.53-4.72-129.85-3.85-27.25.54-54.81,1.63-81.81,5.55-26.46,3.84-52.45,10.4-78.58,16S420,101.62,393.17,101.6c-27.85,0-55.65-2.59-83.3-5.79-56.19-6.5-112.12-14.17-168.6-17.72A1389.81,1389.81,0,0,0,0,76.19V89c35.53-1.39,71.12-1.23,106.65.18,56.6,2.23,112.85,8.25,169,15.35,54.72,6.91,110.27,14.47,165.23,6,26.32-4.06,52.18-10.69,78.22-16.21a531.25,531.25,0,0,1,80.29-10.52c49.92-2.89,100-1.46,149.94,1.75a5.45,5.45,0,0,0,3.09.9q3.91-.11,7.83-.17,18.35,1.26,36.64,2.79a7.39,7.39,0,0,0,1.64,0c32.87,5.06,117.71,3.29,119,2.4Q938.74,89.79,960,89V76.19q-16,.63-32,1.66c-.54-.17-30.67-1.18-45.16-1.61" transform="translate(0 0)"/><path class="cls-3" d="M12,8.92C10.75,8.05.23,19.49,10.58,40.73c.7,1.44,2.41,2.71,3.46,2,.94.18,2-1.66,2.68-2.72C23,30,21.91,16,12,8.92" transform="translate(0 0)"/><path class="cls-3" d="M36.59,8.92c-1.23-.87-11.75,10.57-1.4,31.81.71,1.44,2.41,2.71,3.46,2,1,.18,2-1.66,2.69-2.72,6.28-10,5.19-24-4.75-31.07" transform="translate(0 0)"/><path class="cls-3" d="M61.21,8.92C60,8.05,49.45,19.49,59.81,40.73c.7,1.44,2.41,2.71,3.45,2,.95.18,2-1.66,2.69-2.72,6.29-10,5.19-24-4.74-31.07" transform="translate(0 0)"/><path class="cls-3" d="M85.82,8.92c-1.23-.87-11.75,10.57-1.4,31.81.7,1.44,2.41,2.71,3.46,2,1,.18,2-1.66,2.69-2.72,6.28-10,5.19-24-4.75-31.07" transform="translate(0 0)"/><path class="cls-3" d="M110.43,8.92C109.2,8.05,98.68,19.49,109,40.73c.7,1.44,2.41,2.71,3.45,2,1,.18,2-1.66,2.69-2.72,6.29-10,5.19-24-4.75-31.07" transform="translate(0 0)"/><path class="cls-3" d="M135.05,8.92c-1.23-.87-11.75,10.57-1.4,31.81.7,1.44,2.41,2.71,3.46,2,.95.18,2-1.66,2.69-2.72,6.28-10,5.19-24-4.75-31.07" transform="translate(0 0)"/><path class="cls-3" d="M159.66,8.92c-1.23-.87-11.75,10.57-1.4,31.81.71,1.44,2.42,2.71,3.46,2,.95.18,2-1.66,2.69-2.72,6.29-10,5.19-24-4.75-31.07" transform="translate(0 0)"/><path class="cls-3" d="M184.28,8.92c-1.23-.87-11.75,10.57-1.4,31.81.7,1.44,2.41,2.71,3.46,2,.95.18,2-1.66,2.68-2.72,6.29-10,5.19-24-4.74-31.07" transform="translate(0 0)"/><path class="cls-3" d="M208.89,11.73c-1.23-.88-11.75,10.57-1.4,31.8.71,1.44,2.42,2.71,3.46,2,1,.19,2-1.66,2.69-2.72,6.29-10,5.19-24-4.75-31.06" transform="translate(0 0)"/><path class="cls-3" d="M233.51,15.46c-1.23-.87-11.75,10.57-1.4,31.81.7,1.44,2.41,2.71,3.46,2,1,.18,2-1.66,2.68-2.72,6.29-10,5.19-24-4.74-31.07" transform="translate(0 0)"/><path class="cls-3" d="M258.12,15.93c-1.23-.87-11.75,10.57-1.4,31.8.71,1.45,2.41,2.71,3.46,2,.95.18,2-1.66,2.69-2.72,6.29-10,5.19-24-4.75-31.07" transform="translate(0 0)"/><path class="cls-3" d="M282.74,18.73c-1.23-.87-11.75,10.57-1.4,31.81.7,1.44,2.41,2.71,3.46,2,.94.18,2-1.66,2.68-2.72,6.29-10,5.19-24-4.74-31.07" transform="translate(0 0)"/><path class="cls-3" d="M307.35,21.54c-1.23-.88-11.75,10.57-1.4,31.8.71,1.44,2.41,2.71,3.46,2,.95.19,2-1.66,2.69-2.71,6.29-10,5.19-24-4.75-31.07" transform="translate(0 0)"/><path class="cls-3" d="M332,28.08c-1.24-.88-11.76,10.57-1.4,31.8.7,1.45,2.41,2.71,3.45,2,1,.19,2-1.66,2.69-2.71,6.29-10,5.19-24-4.74-31.07" transform="translate(0 0)"/><path class="cls-3" d="M356.58,30.88c-1.23-.87-11.75,10.57-1.4,31.81.71,1.44,2.41,2.71,3.46,2,.95.18,2-1.66,2.69-2.72,6.28-10,5.19-24-4.75-31.07" transform="translate(0 0)"/><path class="cls-3" d="M381.2,31.35c-1.24-.87-11.76,10.57-1.4,31.8.7,1.45,2.41,2.71,3.45,2,.95.18,2-1.67,2.69-2.72,6.29-10,5.19-24-4.74-31.07" transform="translate(0 0)"/><path class="cls-3" d="M405.81,33.69c-1.23-.88-11.75,10.57-1.4,31.8.7,1.44,2.41,2.71,3.46,2,.95.18,2-1.66,2.69-2.72,6.28-10,5.19-24-4.75-31.06" transform="translate(0 0)"/><path class="cls-3" d="M430.42,31.82c-1.23-.88-11.75,10.57-1.39,31.8.7,1.44,2.41,2.71,3.45,2,.95.19,2-1.66,2.69-2.72,6.29-10,5.19-24-4.75-31.06" transform="translate(0 0)"/><path class="cls-3" d="M455,24.34c-1.23-.87-11.75,10.57-1.4,31.8.7,1.45,2.41,2.72,3.46,2,.95.18,2-1.66,2.68-2.72,6.29-10,5.19-24-4.74-31.07" transform="translate(0 0)"/><path class="cls-3" d="M479.65,20.6c-1.23-.87-11.75,10.57-1.4,31.81.71,1.44,2.42,2.71,3.46,2,1,.18,2-1.66,2.69-2.72,6.29-10,5.19-24-4.75-31.07" transform="translate(0 0)"/><path class="cls-3" d="M504.27,12.66c-1.23-.87-11.75,10.57-1.4,31.8.7,1.45,2.41,2.71,3.46,2,.95.18,2-1.66,2.68-2.72,6.29-10,5.19-24-4.74-31.07" transform="translate(0 0)"/><path class="cls-3" d="M528.88,8.92c-1.23-.87-11.75,10.57-1.4,31.81.71,1.44,2.42,2.71,3.46,2,.95.18,2-1.66,2.69-2.72,6.29-10,5.19-24-4.75-31.07" transform="translate(0 0)"/><path class="cls-3" d="M553.5,8.92c-1.23-.87-11.75,10.57-1.4,31.81.7,1.44,2.41,2.71,3.45,2,1,.18,2-1.66,2.69-2.72,6.29-10,5.19-24-4.74-31.07" transform="translate(0 0)"/><path class="cls-3" d="M578.11,3.78c-1.23-.87-11.75,10.57-1.4,31.81.71,1.44,2.41,2.71,3.46,2,1,.18,2-1.66,2.69-2.72,6.29-10,5.19-24-4.75-31.07" transform="translate(0 0)"/><path class="cls-3" d="M602.73.51c-1.24-.87-11.76,10.57-1.4,31.81.7,1.44,2.41,2.71,3.45,2,1,.18,2-1.66,2.69-2.72,6.29-10,5.19-24-4.74-31.07" transform="translate(0 0)"/><path class="cls-3" d="M627.34.05c-1.23-.88-11.75,10.57-1.4,31.8.71,1.44,2.41,2.71,3.46,2,1,.19,2-1.66,2.69-2.72,6.28-10,5.19-24-4.75-31.06" transform="translate(0 0)"/><path class="cls-3" d="M652,.05c-1.23-.88-11.75,10.57-1.39,31.8.7,1.44,2.41,2.71,3.45,2,1,.19,2-1.66,2.69-2.72,6.29-10,5.19-24-4.75-31.06" transform="translate(0 0)"/><path class="cls-3" d="M676.57.51c-1.23-.87-11.75,10.57-1.4,31.81.7,1.44,2.41,2.71,3.46,2,1,.18,2-1.66,2.68-2.72,6.29-10,5.19-24-4.74-31.07" transform="translate(0 0)"/><path class="cls-3" d="M701.18.51c-1.23-.87-11.75,10.57-1.4,31.81.71,1.44,2.42,2.71,3.46,2,1,.18,2-1.66,2.69-2.72,6.29-10,5.19-24-4.75-31.07" transform="translate(0 0)"/><path class="cls-3" d="M725.8,2.85c-1.23-.87-11.75,10.57-1.4,31.8.7,1.45,2.41,2.71,3.46,2,.95.18,2-1.66,2.68-2.72,6.29-10,5.19-24-4.74-31.07" transform="translate(0 0)"/><path class="cls-3" d="M750.41,2.85c-1.23-.87-11.75,10.57-1.4,31.8.71,1.45,2.41,2.71,3.46,2,.95.18,2-1.66,2.69-2.72,6.29-10,5.19-24-4.75-31.07" transform="translate(0 0)"/><path class="cls-3" d="M773.74,8.61c-1.3-.77-10.82,11.56,1.28,31.81.82,1.37,2.63,2.48,3.61,1.67,1,.1,1.87-1.83,2.45-3,5.43-10.48,3.15-24.38-7.34-30.53" transform="translate(0 0)"/><path class="cls-3" d="M798.27,6.45C797,5.69,787.44,18,799.54,38.26c.82,1.37,2.63,2.49,3.61,1.67,1,.1,1.88-1.83,2.45-3C811,26.5,808.76,12.6,798.27,6.45" transform="translate(0 0)"/><path class="cls-3" d="M822.79,4.29c-1.3-.76-10.82,11.56,1.28,31.81.82,1.37,2.63,2.49,3.61,1.67,1,.1,1.87-1.83,2.45-2.94,5.42-10.49,3.15-24.38-7.34-30.54" transform="translate(0 0)"/><path class="cls-3" d="M847.31,2.13c-1.3-.76-10.82,11.56,1.28,31.81.82,1.38,2.63,2.49,3.61,1.67,1,.1,1.87-1.83,2.45-2.94,5.43-10.48,3.15-24.38-7.34-30.54" transform="translate(0 0)"/><path class="cls-3" d="M873.48,8.92c-1.23-.87-11.75,10.57-1.4,31.81.71,1.44,2.42,2.71,3.46,2,1,.18,2-1.66,2.69-2.72,6.29-10,5.19-24-4.75-31.07" transform="translate(0 0)"/><path class="cls-3" d="M898.1,8.92c-1.23-.87-11.75,10.57-1.4,31.81.7,1.44,2.41,2.71,3.46,2,1,.18,2-1.66,2.68-2.72,6.29-10,5.19-24-4.74-31.07" transform="translate(0 0)"/><path class="cls-3" d="M921.54,7.73c-1.23-.88-11.75,10.57-1.4,31.8.7,1.44,2.41,2.71,3.46,2,.95.18,2-1.66,2.68-2.72,6.29-10,5.19-24-4.74-31.06" transform="translate(0 0)"/><path class="cls-3" d="M943.58,38.33c.71,1.44,2.42,2.71,3.46,2,1,.19,2-1.66,2.69-2.71,6.29-10,5.19-24-4.75-31.07-1.23-.88-11.75,10.57-1.4,31.8" transform="translate(0 0)"/><path class="cls-3" d="M47.37,158.89c-1.87,2.51-3.58,5.11-5.31,7.71a17,17,0,0,1-1.94,2.51l-.35.29-.09-.24A15.39,15.39,0,0,0,37.2,165c-2.07-2.57-4.58-4.93-6.86-7.3-2.46-2.56-5-5.06-7.34-7.73-1.21-1.38-2.22-3-3.51-4.3a18.88,18.88,0,0,1-2.34-2.49l.2-.21c.5-.65,1-1.32,1.47-2,1-1.36,6.89-10,9.11-12.74a88.45,88.45,0,0,0,6-7.81c.65-1,1.38-2,2-2.93q1.89,2.72,3.94,5.28c1.17,1.46,11.5,15,13.87,17.92,1,1.26,2.43,2.39,3.34,3.52l.18.23c-3.92,4.29-6.41,9.78-9.9,14.44M65.31,142a4,4,0,0,0-.36-.82c-.44-.9-13.87-18-15.05-19.27S41.45,111,39.34,107.51A4.05,4.05,0,0,0,35.47,106a5.87,5.87,0,0,0-4.58,3.53l-.11.22a8.11,8.11,0,0,0-.79,1.52,9.38,9.38,0,0,1-1.24,2.18c-2.34,3.36-4.85,6.57-7.43,9.75s-4.77,6.32-7,9.62c-1,1.44-6.19,8.15-5.77,10.76a4.76,4.76,0,0,0,.35,1.21,4.75,4.75,0,0,0,.4,1.48,14.67,14.67,0,0,0,3.21,4.31c1.29,1.28,2.33,2.73,3.49,4.12,2.53,3.07,19,22.74,20.75,23.56,3.26,1.56,7.38-1.17,9.5-3.5s15.81-23.56,18.42-25.86a3.88,3.88,0,0,0,1.4-2.64,4.05,4.05,0,0,0-.68-3.95,2.2,2.2,0,0,0-.11-.27" transform="translate(0 0)"/><path class="cls-3" d="M37.13,136.91a7.4,7.4,0,1,0,7.24,7.39,7.32,7.32,0,0,0-7.24-7.39" transform="translate(0 0)"/><path class="cls-3" d="M122,170.06c-1.87,2.5-3.58,5.1-5.32,7.71a15.73,15.73,0,0,1-1.94,2.5l-.35.3-.09-.24a14.81,14.81,0,0,0-2.48-4.17c-2.06-2.56-4.57-4.92-6.85-7.29-2.47-2.56-5-5.06-7.35-7.73-1.21-1.38-2.22-3-3.5-4.3a18.43,18.43,0,0,1-2.35-2.5,2,2,0,0,0,.2-.21c.51-.65,1-1.31,1.48-2,1-1.37,6.89-10,9.11-12.75a85.07,85.07,0,0,0,6-7.81c.65-1,1.38-1.94,2.06-2.92,1.25,1.8,2.57,3.56,3.93,5.27,1.18,1.47,11.5,15,13.87,17.93,1,1.26,2.43,2.39,3.35,3.52l.18.23c-3.92,4.29-6.42,9.78-9.9,14.44m17.94-16.89a5.5,5.5,0,0,0-.36-.82c-.45-.9-13.87-18-15-19.27s-8.46-10.91-10.57-14.4a4.05,4.05,0,0,0-3.87-1.55,5.85,5.85,0,0,0-4.58,3.53l-.11.22a8.74,8.74,0,0,0-.79,1.52,9.43,9.43,0,0,1-1.24,2.18c-2.33,3.36-4.84,6.57-7.42,9.74s-4.78,6.33-7,9.63c-1,1.44-6.18,8.14-5.77,10.76a4.39,4.39,0,0,0,.36,1.21,4.52,4.52,0,0,0,.39,1.48,14.65,14.65,0,0,0,3.22,4.31c1.28,1.28,2.32,2.72,3.48,4.12,2.54,3.06,19,22.74,20.75,23.56,3.27,1.56,7.38-1.17,9.51-3.51s15.8-23.55,18.42-25.86a3.9,3.9,0,0,0,1.4-2.63,4,4,0,0,0-.68-3.95c0-.07-.06-.16-.11-.27" transform="translate(0 0)"/><path class="cls-3" d="M111.71,148.07a7.4,7.4,0,1,0,7.24,7.4,7.32,7.32,0,0,0-7.24-7.4" transform="translate(0 0)"/><path class="cls-3" d="M196.54,170.48c-1.87,2.5-3.58,5.1-5.32,7.7a16.44,16.44,0,0,1-1.93,2.51,4,4,0,0,1-.35.29l-.09-.24a15.18,15.18,0,0,0-2.49-4.16c-2.06-2.56-4.57-4.92-6.85-7.29-2.47-2.57-5-5.06-7.35-7.74-1.21-1.37-2.21-3-3.5-4.29a19,19,0,0,1-2.34-2.5l.2-.21q.75-1,1.47-2c1-1.37,6.89-10,9.11-12.75a87,87,0,0,0,6-7.81c.65-1,1.38-1.94,2.05-2.92q1.89,2.7,3.94,5.27c1.17,1.47,11.5,15,13.86,17.93,1,1.26,2.43,2.39,3.35,3.52l.18.22c-3.92,4.3-6.41,9.79-9.9,14.45m17.94-16.9a4.17,4.17,0,0,0-.36-.81c-.45-.91-13.87-18-15.05-19.28s-8.45-10.91-10.56-14.39a4.07,4.07,0,0,0-3.88-1.56,5.83,5.83,0,0,0-4.57,3.54l-.12.21a8.8,8.8,0,0,0-.78,1.53,9.53,9.53,0,0,1-1.24,2.17c-2.34,3.37-4.85,6.58-7.43,9.75s-4.77,6.32-7,9.63c-1,1.44-6.18,8.14-5.77,10.75a4.76,4.76,0,0,0,.36,1.21,4.54,4.54,0,0,0,.4,1.49,14.75,14.75,0,0,0,3.21,4.31,53.07,53.07,0,0,1,3.49,4.12c2.53,3.06,19,22.73,20.75,23.56,3.26,1.55,7.38-1.18,9.5-3.51s15.81-23.56,18.42-25.86a3.88,3.88,0,0,0,1.4-2.64,4,4,0,0,0-.68-3.94l-.11-.28" transform="translate(0 0)"/><path class="cls-3" d="M186.3,148.49a7.4,7.4,0,1,0,7.24,7.4,7.32,7.32,0,0,0-7.24-7.4" transform="translate(0 0)"/><path class="cls-3" d="M271.13,178.84c-1.88,2.51-3.59,5.1-5.32,7.71a16.34,16.34,0,0,1-1.94,2.5l-.35.3-.09-.24A15,15,0,0,0,261,185c-2.07-2.57-4.57-4.93-6.86-7.3-2.46-2.56-5-5.06-7.34-7.73-1.21-1.38-2.22-3-3.5-4.3a19,19,0,0,1-2.35-2.49l.2-.21c.5-.66,1-1.32,1.47-2,1-1.36,6.9-10,9.12-12.74a90.46,90.46,0,0,0,5.95-7.82c.65-1,1.38-1.94,2.05-2.92,1.26,1.81,2.58,3.56,3.94,5.27,1.17,1.47,11.5,15,13.87,17.93,1,1.26,2.43,2.39,3.34,3.52l.19.23c-3.92,4.29-6.42,9.78-9.9,14.44M289.06,162a4.6,4.6,0,0,0-.35-.82c-.45-.9-13.87-18-15.06-19.27s-8.45-10.91-10.56-14.4a4.05,4.05,0,0,0-3.87-1.55,5.87,5.87,0,0,0-4.58,3.53l-.11.22a8.11,8.11,0,0,0-.79,1.52,9.23,9.23,0,0,1-1.24,2.18c-2.34,3.36-4.85,6.57-7.43,9.75s-4.77,6.32-7,9.62c-1,1.44-6.19,8.15-5.77,10.76a4.39,4.39,0,0,0,.36,1.21,4.46,4.46,0,0,0,.39,1.48,14.8,14.8,0,0,0,3.21,4.31c1.29,1.28,2.33,2.72,3.49,4.12,2.54,3.06,19,22.74,20.75,23.56,3.26,1.56,7.38-1.17,9.5-3.51s15.81-23.55,18.43-25.85a3.94,3.94,0,0,0,1.4-2.64,4.08,4.08,0,0,0-.69-3.95,1.27,1.27,0,0,0-.11-.27" transform="translate(0 0)"/><path class="cls-3" d="M260.88,156.85a7.4,7.4,0,1,0,7.24,7.4,7.32,7.32,0,0,0-7.24-7.4" transform="translate(0 0)"/><path class="cls-3" d="M345.71,173.65c-1.87,2.5-3.58,5.1-5.32,7.7a15.85,15.85,0,0,1-1.94,2.51,4.35,4.35,0,0,1-.35.29l-.09-.24a14.9,14.9,0,0,0-2.48-4.16c-2.06-2.56-4.57-4.92-6.85-7.29-2.47-2.57-5-5.06-7.35-7.74-1.21-1.37-2.22-3-3.5-4.29a19,19,0,0,1-2.35-2.5l.2-.21c.51-.65,1-1.31,1.48-2,1-1.37,6.89-10,9.11-12.75a87,87,0,0,0,6-7.81c.64-1,1.37-1.94,2-2.92,1.25,1.8,2.57,3.56,3.94,5.27,1.17,1.46,11.49,15,13.86,17.93,1,1.26,2.43,2.39,3.35,3.52.07.08.12.16.18.22-3.92,4.3-6.42,9.79-9.9,14.45m17.94-16.9a4.88,4.88,0,0,0-.36-.81c-.45-.91-13.87-18-15.05-19.28s-8.45-10.91-10.57-14.39a4.05,4.05,0,0,0-3.87-1.56,5.86,5.86,0,0,0-4.58,3.54l-.11.21a8.8,8.8,0,0,0-.78,1.53,9.56,9.56,0,0,1-1.25,2.17c-2.33,3.37-4.84,6.58-7.42,9.75s-4.77,6.32-7,9.62c-1,1.45-6.18,8.15-5.77,10.76a4.76,4.76,0,0,0,.36,1.21,4.51,4.51,0,0,0,.39,1.49,15,15,0,0,0,3.22,4.31,53,53,0,0,1,3.48,4.12c2.54,3.06,19,22.73,20.75,23.56,3.27,1.55,7.39-1.18,9.51-3.51s15.8-23.56,18.42-25.86a3.92,3.92,0,0,0,1.4-2.64,4,4,0,0,0-.68-3.94l-.11-.28" transform="translate(0 0)"/><path class="cls-3" d="M335.47,151.66a7.4,7.4,0,1,0,7.23,7.39,7.32,7.32,0,0,0-7.23-7.39" transform="translate(0 0)"/><path class="cls-3" d="M420.29,174.53c-1.87,2.5-3.58,5.1-5.31,7.7a16,16,0,0,1-1.94,2.51l-.35.3-.09-.25a15.39,15.39,0,0,0-2.48-4.16c-2.07-2.56-4.58-4.92-6.86-7.29-2.46-2.56-5-5.06-7.35-7.74-1.21-1.37-2.21-3-3.5-4.29a19,19,0,0,1-2.34-2.5l.2-.21q.75-1,1.47-2c1-1.37,6.89-10,9.11-12.75a87,87,0,0,0,6-7.81c.65-1,1.38-1.94,2.05-2.92q1.89,2.7,3.94,5.27c1.17,1.47,11.5,15,13.87,17.93,1,1.26,2.42,2.39,3.34,3.52l.18.23c-3.92,4.29-6.41,9.78-9.9,14.44m17.94-16.9a4.17,4.17,0,0,0-.36-.81c-.45-.9-13.87-18-15.05-19.27s-8.45-10.91-10.56-14.4a4,4,0,0,0-3.88-1.55,5.83,5.83,0,0,0-4.57,3.53,1.48,1.48,0,0,0-.11.22,8.11,8.11,0,0,0-.79,1.52,9.53,9.53,0,0,1-1.24,2.17c-2.34,3.37-4.85,6.58-7.43,9.75s-4.77,6.33-7,9.63c-1,1.44-6.18,8.14-5.77,10.75a5.06,5.06,0,0,0,.36,1.21,4.54,4.54,0,0,0,.4,1.49,14.62,14.62,0,0,0,3.21,4.31A53.07,53.07,0,0,1,389,170.3c2.53,3.06,19,22.74,20.75,23.56,3.26,1.56,7.38-1.17,9.5-3.51s15.81-23.56,18.42-25.86a3.86,3.86,0,0,0,1.4-2.64,4,4,0,0,0-.68-3.94c0-.07-.06-.16-.11-.28" transform="translate(0 0)"/><path class="cls-3" d="M410.05,152.54a7.4,7.4,0,1,0,7.24,7.4,7.32,7.32,0,0,0-7.24-7.4" transform="translate(0 0)"/><path class="cls-3" d="M494.87,172.14c-1.87,2.5-3.58,5.1-5.32,7.7a16.44,16.44,0,0,1-1.93,2.51l-.35.3-.09-.25a15.18,15.18,0,0,0-2.49-4.16c-2.06-2.56-4.57-4.92-6.85-7.29-2.46-2.56-5-5.06-7.34-7.74-1.21-1.37-2.22-3-3.5-4.29a19,19,0,0,1-2.35-2.5l.2-.21c.5-.65,1-1.31,1.48-2,1-1.37,6.88-10,9.1-12.75a87,87,0,0,0,6-7.81c.65-1,1.38-1.94,2.05-2.92q1.89,2.7,3.94,5.27c1.17,1.47,11.5,15,13.86,17.93,1,1.26,2.43,2.39,3.35,3.52l.18.22c-3.92,4.3-6.41,9.79-9.9,14.45m17.94-16.9a4.17,4.17,0,0,0-.36-.81c-.45-.9-13.87-18-15.05-19.28s-8.45-10.9-10.56-14.39A4.07,4.07,0,0,0,483,119.2a5.83,5.83,0,0,0-4.57,3.54,2.28,2.28,0,0,0-.11.21,8.51,8.51,0,0,0-.79,1.53,9.53,9.53,0,0,1-1.24,2.17c-2.34,3.37-4.85,6.58-7.43,9.75s-4.77,6.32-7,9.63c-1,1.44-6.18,8.14-5.77,10.75a4.29,4.29,0,0,0,.36,1.21,4.51,4.51,0,0,0,.39,1.49,14.65,14.65,0,0,0,3.22,4.31c1.28,1.27,2.32,2.72,3.48,4.12,2.54,3.06,19,22.73,20.75,23.56,3.26,1.55,7.38-1.18,9.5-3.51s15.81-23.56,18.42-25.86a3.86,3.86,0,0,0,1.4-2.64,4,4,0,0,0-.68-3.94l-.11-.28" transform="translate(0 0)"/><path class="cls-3" d="M484.63,150.15a7.4,7.4,0,1,0,7.24,7.4,7.32,7.32,0,0,0-7.24-7.4" transform="translate(0 0)"/><path class="cls-3" d="M563.51,158.52c-1.88,2.51-3.59,5.11-5.32,7.71a17,17,0,0,1-1.94,2.51l-.35.29-.09-.24a15.14,15.14,0,0,0-2.48-4.16c-2.07-2.57-4.57-4.93-6.85-7.3-2.47-2.56-5-5.06-7.35-7.73-1.21-1.38-2.22-3-3.5-4.3a19,19,0,0,1-2.35-2.49l.2-.21c.5-.65,1-1.32,1.47-2,1-1.36,6.9-10,9.12-12.74a88.34,88.34,0,0,0,5.95-7.81c.65-1,1.38-2,2.06-2.93,1.25,1.81,2.57,3.57,3.93,5.28,1.17,1.46,11.5,15,13.87,17.92,1,1.26,2.43,2.39,3.34,3.52l.19.23c-3.92,4.29-6.42,9.78-9.9,14.44m17.94-16.89a5.5,5.5,0,0,0-.36-.82c-.45-.9-13.87-18-15.06-19.27s-8.45-10.91-10.56-14.4a4.05,4.05,0,0,0-3.87-1.55,5.87,5.87,0,0,0-4.58,3.53c0,.1-.08.17-.11.22a8.11,8.11,0,0,0-.79,1.52,9,9,0,0,1-1.24,2.18c-2.33,3.36-4.85,6.57-7.43,9.75s-4.77,6.32-7,9.62c-1,1.44-6.18,8.15-5.77,10.76a4.39,4.39,0,0,0,.36,1.21,4.46,4.46,0,0,0,.39,1.48,14.53,14.53,0,0,0,3.22,4.31c1.28,1.28,2.32,2.73,3.48,4.12,2.54,3.07,19,22.74,20.75,23.56,3.26,1.56,7.38-1.17,9.5-3.5s15.81-23.56,18.43-25.86a3.92,3.92,0,0,0,1.4-2.64,4.06,4.06,0,0,0-.69-3.95,1.91,1.91,0,0,0-.1-.27" transform="translate(0 0)"/><path class="cls-3" d="M553.26,136.54a7.4,7.4,0,1,0,7.24,7.39,7.31,7.31,0,0,0-7.24-7.39" transform="translate(0 0)"/><path class="cls-3" d="M637.63,164.07c-1.87,2.51-3.58,5.11-5.31,7.71a17,17,0,0,1-1.94,2.51l-.35.29-.09-.24a15.39,15.39,0,0,0-2.48-4.16c-2.07-2.57-4.58-4.93-6.86-7.29-2.46-2.57-5-5.06-7.34-7.74-1.21-1.37-2.22-3-3.51-4.29a19,19,0,0,1-2.34-2.5l.2-.21q.75-1,1.47-2c1-1.37,6.89-10,9.11-12.75a88.45,88.45,0,0,0,6-7.81c.65-1,1.38-2,2.05-2.93q1.89,2.71,3.94,5.28c1.17,1.46,11.5,15,13.87,17.93,1,1.26,2.43,2.39,3.34,3.52l.18.22c-3.92,4.3-6.41,9.79-9.9,14.44m17.94-16.89a4.26,4.26,0,0,0-.36-.82c-.44-.9-13.87-18-15.05-19.27s-8.45-10.91-10.56-14.39a4,4,0,0,0-3.87-1.56,5.84,5.84,0,0,0-4.58,3.54,2.28,2.28,0,0,0-.11.21,8.43,8.43,0,0,0-.79,1.52,9.38,9.38,0,0,1-1.24,2.18c-2.34,3.37-4.85,6.58-7.43,9.75s-4.77,6.32-7,9.62c-1,1.44-6.19,8.15-5.77,10.76a72.61,72.61,0,0,1,.75,2.7,14.75,14.75,0,0,0,3.21,4.3c1.29,1.28,2.33,2.73,3.49,4.13,2.53,3.06,19,22.73,20.75,23.56,3.26,1.55,7.38-1.18,9.5-3.51S652.35,156.34,655,154a3.88,3.88,0,0,0,1.4-2.64,4.05,4.05,0,0,0-.68-4c0-.07-.06-.15-.11-.27" transform="translate(0 0)"/><path class="cls-3" d="M627.39,142.09a7.4,7.4,0,1,0,7.24,7.39,7.32,7.32,0,0,0-7.24-7.39" transform="translate(0 0)"/><path class="cls-3" d="M713.59,167.76c-1.87,2.51-3.58,5.11-5.32,7.71a17,17,0,0,1-1.93,2.51l-.36.29-.09-.24a14.9,14.9,0,0,0-2.48-4.16c-2.06-2.57-4.57-4.93-6.85-7.3-2.47-2.56-5-5.06-7.35-7.73-1.21-1.38-2.21-3-3.5-4.29a18.91,18.91,0,0,1-2.34-2.5l.19-.21c.51-.65,1-1.32,1.48-2,1-1.36,6.89-10,9.11-12.74a88.45,88.45,0,0,0,6-7.81c.64-1,1.37-2,2-2.93q1.89,2.72,3.94,5.28c1.17,1.46,11.5,15,13.86,17.92,1,1.26,2.43,2.39,3.35,3.52l.18.23c-3.92,4.29-6.41,9.78-9.9,14.44m17.94-16.89a4,4,0,0,0-.36-.82c-.45-.9-13.87-18-15-19.27s-8.45-10.91-10.56-14.4a4.06,4.06,0,0,0-3.88-1.55,5.87,5.87,0,0,0-4.58,3.53,1.47,1.47,0,0,1-.11.22,8.7,8.7,0,0,0-.78,1.52,9.42,9.42,0,0,1-1.25,2.18c-2.33,3.36-4.84,6.57-7.42,9.75s-4.77,6.32-7,9.62c-1,1.44-6.18,8.15-5.77,10.76a4.76,4.76,0,0,0,.36,1.21,4.49,4.49,0,0,0,.4,1.48,14.49,14.49,0,0,0,3.21,4.31c1.29,1.28,2.32,2.73,3.48,4.12,2.54,3.07,19,22.74,20.76,23.56,3.26,1.56,7.38-1.17,9.5-3.5s15.8-23.56,18.42-25.86a3.88,3.88,0,0,0,1.4-2.64,4.05,4.05,0,0,0-.68-4c0-.07-.06-.16-.11-.27" transform="translate(0 0)"/><path class="cls-3" d="M703.35,145.78a7.4,7.4,0,1,0,7.23,7.39,7.32,7.32,0,0,0-7.23-7.39" transform="translate(0 0)"/><path class="cls-3" d="M785.61,174.69c-2,2.42-3.8,4.94-5.65,7.46a16.18,16.18,0,0,1-2,2.42l-.36.27a2.25,2.25,0,0,1-.08-.24,15.07,15.07,0,0,0-2.3-4.27c-1.95-2.66-4.35-5.13-6.53-7.6-2.35-2.67-4.77-5.28-7-8.06-1.15-1.43-2.09-3.11-3.31-4.45a18.8,18.8,0,0,1-2.24-2.6l.21-.2q.8-.94,1.56-1.92c1-1.32,7.32-9.67,9.66-12.32a88.94,88.94,0,0,0,6.29-7.53c.69-1,1.46-1.88,2.18-2.83,1.17,1.86,2.41,3.68,3.7,5.45,1.11,1.52,10.83,15.55,13.07,18.54,1,1.31,2.32,2.5,3.19,3.67l.17.24c-4.1,4.11-6.83,9.48-10.52,14m18.66-16.06a4.91,4.91,0,0,0-.32-.83c-.41-.92-13.08-18.59-14.2-19.94s-8-11.28-9.92-14.86a4.07,4.07,0,0,0-3.81-1.73,5.82,5.82,0,0,0-4.72,3.32,1.28,1.28,0,0,0-.12.21,8.76,8.76,0,0,0-.86,1.49,9.33,9.33,0,0,1-1.33,2.12c-2.48,3.25-5.13,6.34-7.85,9.4s-5,6.1-7.38,9.29c-1,1.4-6.54,7.86-6.24,10.49a43.29,43.29,0,0,1,.64,2.72,14.55,14.55,0,0,0,3,4.45c1.23,1.34,2.2,2.83,3.3,4.28,2.4,3.18,18,23.58,19.7,24.48,3.2,1.71,7.43-.83,9.65-3.07s16.82-22.81,19.53-25a3.9,3.9,0,0,0,1.52-2.58,4.07,4.07,0,0,0-.51-4c0-.07,0-.16-.1-.28" transform="translate(0 0)"/><path class="cls-3" d="M776.34,152.26a7.4,7.4,0,1,0,6.91,7.72,7.3,7.3,0,0,0-6.91-7.72" transform="translate(0 0)"/><path class="cls-3" d="M860.47,177.48c-1.87,2.5-3.58,5.1-5.32,7.7a16.44,16.44,0,0,1-1.93,2.51,4.52,4.52,0,0,1-.36.3l-.09-.25a14.9,14.9,0,0,0-2.48-4.16c-2.06-2.56-4.57-4.92-6.85-7.29-2.47-2.56-5-5.06-7.35-7.74-1.21-1.37-2.21-3-3.5-4.29a18.31,18.31,0,0,1-2.34-2.5l.19-.21c.51-.65,1-1.31,1.48-2,1-1.37,6.89-10,9.11-12.75a87,87,0,0,0,6-7.81c.64-1,1.37-1.94,2-2.92q1.89,2.7,3.94,5.27c1.17,1.47,11.5,15,13.86,17.93,1,1.26,2.43,2.39,3.35,3.52l.18.22c-3.92,4.3-6.41,9.79-9.9,14.45m17.94-16.9a4.17,4.17,0,0,0-.36-.81c-.45-.9-13.87-18-15-19.28s-8.45-10.9-10.56-14.39a4.07,4.07,0,0,0-3.88-1.56,5.86,5.86,0,0,0-4.58,3.54,1.9,1.9,0,0,1-.11.21,9.17,9.17,0,0,0-.78,1.53,9.56,9.56,0,0,1-1.25,2.17c-2.33,3.37-4.84,6.58-7.42,9.75s-4.77,6.32-7,9.63c-1,1.44-6.18,8.14-5.77,10.75a4.64,4.64,0,0,0,.36,1.21,4.54,4.54,0,0,0,.4,1.49,14.62,14.62,0,0,0,3.21,4.31,53,53,0,0,1,3.48,4.12c2.54,3.06,19,22.73,20.76,23.56,3.26,1.55,7.38-1.18,9.5-3.51s15.8-23.56,18.42-25.86a3.86,3.86,0,0,0,1.4-2.64,4,4,0,0,0-.68-3.94l-.11-.28" transform="translate(0 0)"/><path class="cls-3" d="M850.23,155.49a7.4,7.4,0,1,0,7.24,7.4,7.32,7.32,0,0,0-7.24-7.4" transform="translate(0 0)"/><path class="cls-3" d="M919.28,131.48c.65-1,1.38-1.94,2.06-2.92,1.25,1.8,2.57,3.56,3.93,5.27,1.18,1.47,11.5,15,13.87,17.93,1,1.26,2.43,2.39,3.34,3.52l.19.23c-3.92,4.29-6.42,9.78-9.9,14.44-1.88,2.5-3.58,5.1-5.32,7.71a15.73,15.73,0,0,1-1.94,2.5l-.35.3-.09-.24a15.05,15.05,0,0,0-2.48-4.17c-2.07-2.56-4.57-4.92-6.85-7.29-2.47-2.56-5-5.06-7.35-7.73-1.21-1.38-2.22-3-3.5-4.3a18.43,18.43,0,0,1-2.35-2.5,2,2,0,0,0,.2-.21q.75-1,1.47-2c1-1.37,6.9-10,9.12-12.75a86.9,86.9,0,0,0,5.95-7.81m-3.11-10.71a8.11,8.11,0,0,0-.79,1.52,9.17,9.17,0,0,1-1.24,2.17c-2.33,3.37-4.85,6.58-7.43,9.75s-4.77,6.33-7,9.63c-1,1.44-6.18,8.14-5.77,10.76a4.39,4.39,0,0,0,.36,1.21,4.52,4.52,0,0,0,.39,1.48,14.65,14.65,0,0,0,3.22,4.31c1.28,1.28,2.32,2.72,3.48,4.12,2.54,3.06,19,22.74,20.75,23.56,3.26,1.56,7.38-1.17,9.51-3.51s15.8-23.55,18.42-25.86a3.9,3.9,0,0,0,1.4-2.64,4,4,0,0,0-.69-3.94,1.91,1.91,0,0,0-.1-.27,5.5,5.5,0,0,0-.36-.82c-.45-.9-13.87-18-15.06-19.27s-8.45-10.91-10.56-14.4a4,4,0,0,0-3.87-1.55,5.85,5.85,0,0,0-4.58,3.53l-.11.22" transform="translate(0 0)"/><path class="cls-3" d="M922.52,162.75a7.4,7.4,0,1,0-7.23-7.39,7.32,7.32,0,0,0,7.23,7.39" transform="translate(0 0)"/><path class="cls-3" d="M1842.81,50.56c-14.41-.43-28.82-1-43.23-1.48-25.54-.9-51.11-1.6-76.67-1.18-43.22-3-86.52-4.72-129.85-3.85-27.24.55-54.8,1.64-81.8,5.55-26.47,3.84-52.46,10.41-78.58,16.05S1380,75.94,1353.19,75.92c-27.86,0-55.65-2.6-83.31-5.8C1213.7,63.62,1157.77,56,1101.29,52.4A1389.89,1389.89,0,0,0,960,50.5V63.3c35.53-1.38,71.11-1.22,106.65.18,56.6,2.24,112.85,8.25,169,15.35,54.73,6.92,110.28,14.47,165.24,6,26.32-4.06,52.18-10.69,78.22-16.22a532.19,532.19,0,0,1,80.29-10.52c49.92-2.88,100-1.46,149.94,1.75a5.45,5.45,0,0,0,3.08.91c2.61-.08,5.23-.13,7.84-.18q18.33,1.27,36.63,2.79a7.46,7.46,0,0,0,1.65,0c32.87,5.07,117.7,3.29,119,2.4q21.18-1.59,42.41-2.4V50.51q-16,.62-32,1.66c-.53-.17-30.67-1.19-45.15-1.61" transform="translate(0 0)"/><path class="cls-3" d="M1842.81,76.24c-14.41-.42-28.82-1-43.23-1.48-25.54-.89-51.11-1.59-76.67-1.17-43.22-3-86.52-4.72-129.85-3.85-27.24.54-54.8,1.63-81.8,5.55-26.47,3.84-52.46,10.4-78.58,16s-52.64,10.28-79.49,10.26c-27.86,0-55.65-2.59-83.31-5.79-56.18-6.5-112.11-14.17-168.59-17.72A1389.89,1389.89,0,0,0,960,76.19V89c35.53-1.39,71.11-1.23,106.65.18,56.6,2.23,112.85,8.25,169,15.35,54.73,6.91,110.28,14.47,165.24,6,26.32-4.06,52.18-10.69,78.22-16.21a530.91,530.91,0,0,1,80.29-10.52c49.92-2.89,100-1.46,149.94,1.75a5.44,5.44,0,0,0,3.08.9c2.61-.07,5.23-.13,7.84-.17q18.33,1.26,36.63,2.79a7.46,7.46,0,0,0,1.65,0c32.87,5.06,117.7,3.29,119,2.4Q1898.75,89.79,1920,89V76.19q-16,.63-32,1.66c-.53-.17-30.67-1.18-45.15-1.61" transform="translate(0 0)"/><path class="cls-3" d="M972,8.92c-1.23-.87-11.75,10.57-1.4,31.81.71,1.44,2.42,2.71,3.46,2,1,.18,2-1.66,2.69-2.72C983,30,981.93,16,972,8.92" transform="translate(0 0)"/><path class="cls-3" d="M996.61,8.92c-1.23-.87-11.75,10.57-1.4,31.81.7,1.44,2.41,2.71,3.46,2,.94.18,2-1.66,2.68-2.72,6.29-10,5.19-24-4.74-31.07" transform="translate(0 0)"/><path class="cls-3" d="M1021.22,8.92c-1.23-.87-11.75,10.57-1.4,31.81.71,1.44,2.41,2.71,3.46,2,1,.18,2-1.66,2.69-2.72,6.29-10,5.19-24-4.75-31.07" transform="translate(0 0)"/><path class="cls-3" d="M1045.84,8.92c-1.24-.87-11.76,10.57-1.4,31.81.7,1.44,2.41,2.71,3.46,2,.94.18,2-1.66,2.68-2.72,6.29-10,5.19-24-4.74-31.07" transform="translate(0 0)"/><path class="cls-3" d="M1070.45,8.92c-1.23-.87-11.75,10.57-1.4,31.81.71,1.44,2.41,2.71,3.46,2,1,.18,2-1.66,2.69-2.72,6.28-10,5.19-24-4.75-31.07" transform="translate(0 0)"/><path class="cls-3" d="M1095.07,8.92c-1.24-.87-11.76,10.57-1.4,31.81.7,1.44,2.41,2.71,3.45,2,1,.18,2-1.66,2.69-2.72,6.29-10,5.19-24-4.74-31.07" transform="translate(0 0)"/><path class="cls-3" d="M1119.68,8.92c-1.23-.87-11.75,10.57-1.4,31.81.7,1.44,2.41,2.71,3.46,2,1,.18,2-1.66,2.69-2.72,6.28-10,5.19-24-4.75-31.07" transform="translate(0 0)"/><path class="cls-3" d="M1144.29,8.92c-1.23-.87-11.75,10.57-1.39,31.81.7,1.44,2.41,2.71,3.45,2,1,.18,2-1.66,2.69-2.72,6.29-10,5.19-24-4.75-31.07" transform="translate(0 0)"/><path class="cls-3" d="M1168.91,11.73c-1.23-.88-11.75,10.57-1.4,31.8.7,1.44,2.41,2.71,3.46,2,1,.19,2-1.66,2.68-2.72,6.29-10,5.19-24-4.74-31.06" transform="translate(0 0)"/><path class="cls-3" d="M1193.52,15.46c-1.23-.87-11.75,10.57-1.4,31.81.71,1.44,2.42,2.71,3.46,2,1,.18,2-1.66,2.69-2.72,6.29-10,5.19-24-4.75-31.07" transform="translate(0 0)"/><path class="cls-3" d="M1218.14,15.93c-1.23-.87-11.75,10.57-1.4,31.8.7,1.45,2.41,2.71,3.46,2,1,.18,2-1.66,2.68-2.72,6.29-10,5.19-24-4.74-31.07" transform="translate(0 0)"/><path class="cls-3" d="M1242.75,18.73c-1.23-.87-11.75,10.57-1.4,31.81.71,1.44,2.42,2.71,3.46,2,1,.18,2-1.66,2.69-2.72,6.29-10,5.19-24-4.75-31.07" transform="translate(0 0)"/><path class="cls-3" d="M1267.37,21.54c-1.23-.88-11.75,10.57-1.4,31.8.7,1.44,2.41,2.71,3.46,2,1,.19,2-1.66,2.68-2.71,6.29-10,5.19-24-4.74-31.07" transform="translate(0 0)"/><path class="cls-3" d="M1292,28.08c-1.23-.88-11.75,10.57-1.4,31.8.71,1.45,2.41,2.71,3.46,2,1,.19,2-1.66,2.69-2.71,6.29-10,5.19-24-4.75-31.07" transform="translate(0 0)"/><path class="cls-3" d="M1316.6,30.88c-1.23-.87-11.75,10.57-1.4,31.81.7,1.44,2.41,2.71,3.46,2,.94.18,2-1.66,2.68-2.72,6.29-10,5.19-24-4.74-31.07" transform="translate(0 0)"/><path class="cls-3" d="M1341.21,31.35c-1.23-.87-11.75,10.57-1.4,31.8.71,1.45,2.41,2.71,3.46,2,1,.18,2-1.67,2.69-2.72,6.28-10,5.19-24-4.75-31.07" transform="translate(0 0)"/><path class="cls-3" d="M1365.83,33.69c-1.24-.88-11.76,10.57-1.4,31.8.7,1.44,2.41,2.71,3.45,2,.95.18,2-1.66,2.69-2.72,6.29-10,5.19-24-4.74-31.06" transform="translate(0 0)"/><path class="cls-3" d="M1390.44,31.82c-1.23-.88-11.75,10.57-1.4,31.8.71,1.44,2.41,2.71,3.46,2,1,.19,2-1.66,2.69-2.72,6.28-10,5.19-24-4.75-31.06" transform="translate(0 0)"/><path class="cls-3" d="M1415.05,24.34c-1.23-.87-11.75,10.57-1.39,31.8.7,1.45,2.41,2.72,3.45,2,1,.18,2-1.66,2.69-2.72,6.29-10,5.19-24-4.75-31.07" transform="translate(0 0)"/><path class="cls-3" d="M1439.67,20.6c-1.23-.87-11.75,10.57-1.4,31.81.7,1.44,2.41,2.71,3.46,2,1,.18,2-1.66,2.69-2.72,6.28-10,5.19-24-4.75-31.07" transform="translate(0 0)"/><path class="cls-3" d="M1464.28,12.66c-1.23-.87-11.75,10.57-1.39,31.8.7,1.45,2.41,2.71,3.45,2,1,.18,2-1.66,2.69-2.72,6.29-10,5.19-24-4.75-31.07" transform="translate(0 0)"/><path class="cls-3" d="M1488.9,8.92c-1.23-.87-11.75,10.57-1.4,31.81.7,1.44,2.41,2.71,3.46,2,1,.18,2-1.66,2.68-2.72,6.29-10,5.19-24-4.74-31.07" transform="translate(0 0)"/><path class="cls-3" d="M1513.51,8.92c-1.23-.87-11.75,10.57-1.4,31.81.71,1.44,2.42,2.71,3.46,2,1,.18,2-1.66,2.69-2.72,6.29-10,5.19-24-4.75-31.07" transform="translate(0 0)"/><path class="cls-3" d="M1538.13,3.78c-1.23-.87-11.75,10.57-1.4,31.81.7,1.44,2.41,2.71,3.46,2,1,.18,2-1.66,2.68-2.72,6.29-10,5.19-24-4.74-31.07" transform="translate(0 0)"/><path class="cls-3" d="M1562.74.51c-1.23-.87-11.75,10.57-1.4,31.81.71,1.44,2.41,2.71,3.46,2,1,.18,2-1.66,2.69-2.72,6.29-10,5.19-24-4.75-31.07" transform="translate(0 0)"/><path class="cls-3" d="M1587.36.05c-1.24-.88-11.76,10.57-1.4,31.8.7,1.44,2.41,2.71,3.45,2,.95.19,2-1.66,2.69-2.72,6.29-10,5.19-24-4.74-31.06" transform="translate(0 0)"/><path class="cls-3" d="M1612,.05c-1.23-.88-11.75,10.57-1.4,31.8.71,1.44,2.41,2.71,3.46,2,1,.19,2-1.66,2.69-2.72,6.28-10,5.19-24-4.75-31.06" transform="translate(0 0)"/><path class="cls-3" d="M1636.58.51c-1.23-.87-11.75,10.57-1.39,31.81.7,1.44,2.41,2.71,3.45,2,.95.18,2-1.66,2.69-2.72,6.29-10,5.19-24-4.75-31.07" transform="translate(0 0)"/><path class="cls-3" d="M1661.2.51c-1.23-.87-11.75,10.57-1.4,31.81.7,1.44,2.41,2.71,3.46,2,1,.18,2-1.66,2.68-2.72,6.29-10,5.19-24-4.74-31.07" transform="translate(0 0)"/><path class="cls-3" d="M1685.81,2.85c-1.23-.87-11.75,10.57-1.4,31.8.71,1.45,2.42,2.71,3.46,2,1,.18,2-1.66,2.69-2.72,6.29-10,5.19-24-4.75-31.07" transform="translate(0 0)"/><path class="cls-3" d="M1710.43,2.85c-1.23-.87-11.75,10.57-1.4,31.8.7,1.45,2.41,2.71,3.46,2,1,.18,2-1.66,2.68-2.72,6.29-10,5.19-24-4.74-31.07" transform="translate(0 0)"/><path class="cls-3" d="M1733.76,8.61c-1.3-.77-10.82,11.56,1.27,31.81.83,1.37,2.64,2.48,3.62,1.67,1,.1,1.87-1.83,2.44-3,5.43-10.48,3.16-24.38-7.33-30.53" transform="translate(0 0)"/><path class="cls-3" d="M1758.28,6.45c-1.3-.76-10.82,11.56,1.28,31.81.82,1.37,2.63,2.49,3.61,1.67,1,.1,1.87-1.83,2.45-3,5.43-10.48,3.15-24.38-7.34-30.53" transform="translate(0 0)"/><path class="cls-3" d="M1782.81,4.29c-1.3-.76-10.83,11.56,1.27,31.81.82,1.37,2.63,2.49,3.61,1.67,1,.1,1.88-1.83,2.45-2.94,5.43-10.49,3.16-24.38-7.33-30.54" transform="translate(0 0)"/><path class="cls-3" d="M1807.33,2.13c-1.3-.76-10.82,11.56,1.27,31.81.83,1.38,2.64,2.49,3.62,1.67,1,.1,1.87-1.83,2.45-2.94,5.42-10.48,3.15-24.38-7.34-30.54" transform="translate(0 0)"/><path class="cls-3" d="M1833.5,8.92c-1.23-.87-11.75,10.57-1.4,31.81.7,1.44,2.41,2.71,3.46,2,1,.18,2-1.66,2.68-2.72,6.29-10,5.19-24-4.74-31.07" transform="translate(0 0)"/><path class="cls-3" d="M1858.11,8.92c-1.23-.87-11.75,10.57-1.4,31.81.71,1.44,2.42,2.71,3.46,2,.95.18,2-1.66,2.69-2.72,6.29-10,5.19-24-4.75-31.07" transform="translate(0 0)"/><path class="cls-3" d="M1881.56,7.73c-1.23-.88-11.75,10.57-1.4,31.8.7,1.44,2.41,2.71,3.45,2,1,.18,2-1.66,2.69-2.72,6.29-10,5.19-24-4.74-31.06" transform="translate(0 0)"/><path class="cls-3" d="M1903.6,38.33c.7,1.44,2.41,2.71,3.46,2,1,.19,2-1.66,2.68-2.71,6.29-10,5.19-24-4.74-31.07-1.23-.88-11.75,10.57-1.4,31.8" transform="translate(0 0)"/><path class="cls-3" d="M1007.39,158.89c-1.87,2.51-3.58,5.11-5.32,7.71a16.32,16.32,0,0,1-1.94,2.51,4.35,4.35,0,0,1-.35.29l-.09-.24a14.9,14.9,0,0,0-2.48-4.16c-2.06-2.57-4.57-4.93-6.85-7.3-2.47-2.56-5-5.06-7.35-7.73-1.21-1.38-2.21-3-3.5-4.3a18.24,18.24,0,0,1-2.34-2.49l.19-.21c.51-.65,1-1.32,1.48-2,1-1.36,6.89-10,9.11-12.74a88.45,88.45,0,0,0,6-7.81c.64-1,1.37-2,2.05-2.93,1.25,1.81,2.57,3.57,3.94,5.28,1.17,1.46,11.5,15,13.86,17.92,1,1.26,2.43,2.39,3.35,3.52l.18.23c-3.92,4.29-6.42,9.78-9.9,14.44M1025.33,142a4,4,0,0,0-.36-.82c-.45-.9-13.87-18-15.05-19.27s-8.45-10.91-10.56-14.4a4.07,4.07,0,0,0-3.88-1.55,5.87,5.87,0,0,0-4.58,3.53c0,.1-.08.17-.11.22a8.7,8.7,0,0,0-.78,1.52,9.42,9.42,0,0,1-1.25,2.18c-2.33,3.36-4.84,6.57-7.42,9.75s-4.77,6.32-7,9.62c-1,1.44-6.18,8.15-5.77,10.76a4.76,4.76,0,0,0,.36,1.21,4.46,4.46,0,0,0,.39,1.48,14.7,14.7,0,0,0,3.22,4.31c1.29,1.28,2.32,2.73,3.48,4.12,2.54,3.07,19,22.74,20.75,23.56,3.27,1.56,7.39-1.17,9.51-3.5s15.8-23.56,18.42-25.86a3.88,3.88,0,0,0,1.4-2.64,4.05,4.05,0,0,0-.68-3.95c0-.07-.06-.16-.11-.27" transform="translate(0 0)"/><path class="cls-3" d="M997.15,136.91a7.4,7.4,0,1,0,7.23,7.39,7.32,7.32,0,0,0-7.23-7.39" transform="translate(0 0)"/><path class="cls-3" d="M1082,170.06c-1.87,2.5-3.58,5.1-5.31,7.71a16.34,16.34,0,0,1-1.94,2.5l-.35.3-.09-.24a15.3,15.3,0,0,0-2.48-4.17c-2.07-2.56-4.58-4.92-6.86-7.29-2.46-2.56-5-5.06-7.34-7.73-1.21-1.38-2.22-3-3.51-4.3a18.35,18.35,0,0,1-2.34-2.5l.2-.21q.75-1,1.47-2c1-1.37,6.89-10,9.11-12.75a87,87,0,0,0,6-7.81c.65-1,1.38-1.94,2-2.92q1.89,2.7,3.94,5.27c1.17,1.47,11.5,15,13.87,17.93,1,1.26,2.43,2.39,3.34,3.52l.18.23c-3.92,4.29-6.41,9.78-9.9,14.44m17.94-16.89a4,4,0,0,0-.36-.82c-.44-.9-13.87-18-15-19.27s-8.45-10.91-10.56-14.4a4.06,4.06,0,0,0-3.88-1.55,5.85,5.85,0,0,0-4.57,3.53,2.21,2.21,0,0,0-.11.22,8.11,8.11,0,0,0-.79,1.52,9.81,9.81,0,0,1-1.24,2.18c-2.34,3.36-4.85,6.57-7.43,9.74s-4.77,6.33-7,9.63c-1,1.44-6.19,8.14-5.77,10.76a4.76,4.76,0,0,0,.35,1.21,4.82,4.82,0,0,0,.4,1.48,14.8,14.8,0,0,0,3.21,4.31c1.29,1.28,2.33,2.72,3.49,4.12,2.53,3.06,19,22.74,20.75,23.56,3.26,1.56,7.38-1.17,9.5-3.51s15.81-23.55,18.42-25.86a3.86,3.86,0,0,0,1.4-2.63,4,4,0,0,0-.68-3.95,2.2,2.2,0,0,0-.11-.27" transform="translate(0 0)"/><path class="cls-3" d="M1071.73,148.07a7.4,7.4,0,1,0,7.24,7.4,7.32,7.32,0,0,0-7.24-7.4" transform="translate(0 0)"/><path class="cls-3" d="M1156.56,170.48c-1.87,2.5-3.58,5.1-5.32,7.7a15.85,15.85,0,0,1-1.94,2.51,4,4,0,0,1-.35.29l-.09-.24a14.9,14.9,0,0,0-2.48-4.16c-2.06-2.56-4.57-4.92-6.85-7.29-2.47-2.57-5-5.06-7.35-7.74-1.21-1.37-2.22-3-3.5-4.29a19,19,0,0,1-2.35-2.5l.2-.21c.51-.65,1-1.31,1.48-2,1-1.37,6.89-10,9.11-12.75a85.07,85.07,0,0,0,6-7.81c.65-1,1.38-1.94,2.06-2.92,1.25,1.8,2.57,3.56,3.93,5.27,1.18,1.47,11.5,15,13.87,17.93,1,1.26,2.43,2.39,3.35,3.52.07.08.12.16.18.22-3.92,4.3-6.42,9.79-9.9,14.45m17.94-16.9a5.87,5.87,0,0,0-.36-.81c-.45-.91-13.87-18-15.05-19.28s-8.46-10.91-10.57-14.39a4.06,4.06,0,0,0-3.87-1.56,5.86,5.86,0,0,0-4.58,3.54l-.11.21a8.84,8.84,0,0,0-.79,1.53,9.17,9.17,0,0,1-1.24,2.17c-2.33,3.37-4.84,6.58-7.42,9.75s-4.78,6.32-7,9.63c-1,1.44-6.18,8.14-5.77,10.75a4.39,4.39,0,0,0,.36,1.21,4.51,4.51,0,0,0,.39,1.49,14.79,14.79,0,0,0,3.22,4.31c1.28,1.27,2.32,2.72,3.48,4.12,2.54,3.06,19,22.73,20.75,23.56,3.27,1.55,7.38-1.18,9.51-3.51s15.8-23.56,18.42-25.86a3.92,3.92,0,0,0,1.4-2.64,4,4,0,0,0-.68-3.94l-.11-.28" transform="translate(0 0)"/><path class="cls-3" d="M1146.31,148.49a7.4,7.4,0,1,0,7.24,7.4,7.32,7.32,0,0,0-7.24-7.4" transform="translate(0 0)"/><path class="cls-3" d="M1231.14,178.84c-1.87,2.51-3.58,5.1-5.32,7.71a16.32,16.32,0,0,1-1.93,2.5l-.35.3-.09-.24A15,15,0,0,0,1221,185c-2.06-2.57-4.57-4.93-6.85-7.3-2.47-2.56-5-5.06-7.35-7.73-1.21-1.38-2.21-3-3.5-4.3a18.88,18.88,0,0,1-2.34-2.49l.2-.21c.5-.66,1-1.32,1.47-2,1-1.36,6.89-10,9.11-12.74a88.6,88.6,0,0,0,6-7.82c.65-1,1.38-1.94,2-2.92,1.26,1.81,2.57,3.56,3.94,5.27,1.17,1.47,11.5,15,13.86,17.93,1,1.26,2.43,2.39,3.35,3.52l.18.23c-3.92,4.29-6.41,9.78-9.9,14.44M1249.08,162a4,4,0,0,0-.36-.82c-.45-.9-13.87-18-15-19.27s-8.45-10.91-10.56-14.4a4.06,4.06,0,0,0-3.88-1.55,5.84,5.84,0,0,0-4.57,3.53l-.12.22a8.7,8.7,0,0,0-.78,1.52,9.59,9.59,0,0,1-1.24,2.18c-2.34,3.36-4.85,6.57-7.43,9.75s-4.77,6.32-7,9.62c-1,1.44-6.18,8.15-5.77,10.76a4.76,4.76,0,0,0,.36,1.21,4.49,4.49,0,0,0,.4,1.48,14.62,14.62,0,0,0,3.21,4.31,52.61,52.61,0,0,1,3.48,4.12c2.54,3.06,19,22.74,20.76,23.56,3.26,1.56,7.38-1.17,9.5-3.51s15.81-23.55,18.42-25.85a3.9,3.9,0,0,0,1.4-2.64,4.05,4.05,0,0,0-.68-3.95c0-.07-.06-.16-.11-.27" transform="translate(0 0)"/><path class="cls-3" d="M1220.9,156.85a7.4,7.4,0,1,0,7.24,7.4,7.32,7.32,0,0,0-7.24-7.4" transform="translate(0 0)"/><path class="cls-3" d="M1305.73,173.65c-1.88,2.5-3.59,5.1-5.32,7.7a16.46,16.46,0,0,1-1.94,2.51l-.35.29-.09-.24a15.39,15.39,0,0,0-2.48-4.16c-2.07-2.56-4.58-4.92-6.86-7.29-2.46-2.57-5-5.06-7.34-7.74-1.21-1.37-2.22-3-3.5-4.29a19,19,0,0,1-2.35-2.5l.2-.21q.75-1,1.47-2c1-1.37,6.9-10,9.12-12.75a88.81,88.81,0,0,0,6-7.81c.65-1,1.38-1.94,2-2.92,1.26,1.8,2.58,3.56,3.94,5.27,1.17,1.46,11.5,15,13.87,17.93,1,1.26,2.43,2.39,3.34,3.52l.18.22c-3.92,4.3-6.41,9.79-9.89,14.45m17.93-16.9a4.83,4.83,0,0,0-.35-.81c-.45-.91-13.87-18-15.06-19.28s-8.45-10.91-10.56-14.39a4.06,4.06,0,0,0-3.87-1.56,5.86,5.86,0,0,0-4.58,3.54,2.28,2.28,0,0,0-.11.21,8.19,8.19,0,0,0-.79,1.53,9.53,9.53,0,0,1-1.24,2.17c-2.34,3.37-4.85,6.58-7.43,9.75s-4.77,6.32-7,9.62c-1,1.45-6.19,8.15-5.77,10.76a4.39,4.39,0,0,0,.36,1.21,4.51,4.51,0,0,0,.39,1.49,14.93,14.93,0,0,0,3.21,4.31,53.07,53.07,0,0,1,3.49,4.12c2.54,3.06,19,22.73,20.75,23.56,3.26,1.55,7.38-1.18,9.5-3.51s15.81-23.56,18.43-25.86a3.92,3.92,0,0,0,1.4-2.64,4.06,4.06,0,0,0-.69-3.94,2.24,2.24,0,0,0-.11-.28" transform="translate(0 0)"/><path class="cls-3" d="M1295.48,151.66a7.4,7.4,0,1,0,7.24,7.39,7.31,7.31,0,0,0-7.24-7.39" transform="translate(0 0)"/><path class="cls-3" d="M1380.31,174.53c-1.87,2.5-3.58,5.1-5.32,7.7a15.4,15.4,0,0,1-1.94,2.51,3.86,3.86,0,0,1-.35.3l-.09-.25a14.9,14.9,0,0,0-2.48-4.16c-2.06-2.56-4.57-4.92-6.85-7.29-2.47-2.56-5-5.06-7.35-7.74-1.21-1.37-2.22-3-3.5-4.29a19,19,0,0,1-2.35-2.5l.2-.21c.51-.65,1-1.31,1.48-2,1-1.37,6.89-10,9.11-12.75a85.07,85.07,0,0,0,6-7.81c.65-1,1.38-1.94,2.06-2.92,1.25,1.8,2.57,3.56,3.94,5.27,1.17,1.47,11.49,15,13.86,17.93,1,1.26,2.43,2.39,3.35,3.52l.18.23c-3.92,4.29-6.42,9.78-9.9,14.44m17.94-16.9a4.17,4.17,0,0,0-.36-.81c-.45-.9-13.87-18-15.05-19.27s-8.45-10.91-10.56-14.4a4,4,0,0,0-3.88-1.55,5.85,5.85,0,0,0-4.58,3.53l-.11.22a8.7,8.7,0,0,0-.78,1.52,9.56,9.56,0,0,1-1.25,2.17c-2.33,3.37-4.84,6.58-7.42,9.75s-4.78,6.33-7,9.63c-1,1.44-6.18,8.14-5.77,10.75a4.29,4.29,0,0,0,.36,1.21,4.51,4.51,0,0,0,.39,1.49,14.83,14.83,0,0,0,3.22,4.31,53,53,0,0,1,3.48,4.12c2.54,3.06,19,22.74,20.75,23.56,3.27,1.56,7.39-1.17,9.51-3.51s15.8-23.56,18.42-25.86a3.9,3.9,0,0,0,1.4-2.64,4,4,0,0,0-.68-3.94l-.11-.28" transform="translate(0 0)"/><path class="cls-3" d="M1370.07,152.54a7.4,7.4,0,1,0,7.23,7.4,7.32,7.32,0,0,0-7.23-7.4" transform="translate(0 0)"/><path class="cls-3" d="M1454.89,172.14c-1.87,2.5-3.58,5.1-5.32,7.7a15.85,15.85,0,0,1-1.94,2.51l-.35.3-.09-.25a14.9,14.9,0,0,0-2.48-4.16c-2.06-2.56-4.57-4.92-6.85-7.29-2.47-2.56-5-5.06-7.35-7.74-1.21-1.37-2.21-3-3.5-4.29a19,19,0,0,1-2.34-2.5l.2-.21q.75-1,1.47-2c1-1.37,6.89-10,9.11-12.75a85.07,85.07,0,0,0,6-7.81c.65-1,1.38-1.94,2.06-2.92,1.25,1.8,2.57,3.56,3.93,5.27,1.18,1.47,11.5,15,13.87,17.93,1,1.26,2.43,2.39,3.35,3.52.07.08.12.16.18.22-3.92,4.3-6.42,9.79-9.9,14.45m17.94-16.9a5.87,5.87,0,0,0-.36-.81c-.45-.9-13.87-18-15-19.28s-8.46-10.9-10.57-14.39a4.06,4.06,0,0,0-3.87-1.56,5.86,5.86,0,0,0-4.58,3.54l-.11.21a9.17,9.17,0,0,0-.78,1.53,9.56,9.56,0,0,1-1.25,2.17c-2.33,3.37-4.84,6.58-7.42,9.75s-4.77,6.32-7,9.63c-1,1.44-6.19,8.14-5.78,10.75a5.06,5.06,0,0,0,.36,1.21,4.8,4.8,0,0,0,.4,1.49,14.8,14.8,0,0,0,3.21,4.31,53.07,53.07,0,0,1,3.49,4.12c2.53,3.06,19,22.73,20.74,23.56,3.27,1.55,7.38-1.18,9.51-3.51s15.8-23.56,18.42-25.86a3.9,3.9,0,0,0,1.4-2.64,4,4,0,0,0-.68-3.94l-.11-.28" transform="translate(0 0)"/><path class="cls-3" d="M1444.65,150.15a7.4,7.4,0,1,0,7.23,7.4,7.32,7.32,0,0,0-7.23-7.4" transform="translate(0 0)"/><path class="cls-3" d="M1523.52,158.52c-1.87,2.51-3.58,5.11-5.31,7.71a17,17,0,0,1-1.94,2.51l-.35.29-.09-.24a15.39,15.39,0,0,0-2.48-4.16c-2.07-2.57-4.58-4.93-6.86-7.3-2.46-2.56-5-5.06-7.34-7.73-1.22-1.38-2.22-3-3.51-4.3a18.88,18.88,0,0,1-2.34-2.49l.2-.21c.5-.65,1-1.32,1.47-2,1-1.36,6.89-10,9.11-12.74a88.45,88.45,0,0,0,6-7.81c.65-1,1.38-2,2-2.93q1.89,2.72,3.94,5.28c1.17,1.46,11.5,15,13.87,17.92,1,1.26,2.42,2.39,3.34,3.52l.18.23c-3.92,4.29-6.41,9.78-9.9,14.44m17.94-16.89a4,4,0,0,0-.36-.82c-.44-.9-13.87-18-15-19.27s-8.45-10.91-10.56-14.4a4.06,4.06,0,0,0-3.88-1.55,5.84,5.84,0,0,0-4.57,3.53l-.11.22a8.11,8.11,0,0,0-.79,1.52,9.38,9.38,0,0,1-1.24,2.18c-2.34,3.36-4.85,6.57-7.43,9.75s-4.77,6.32-7,9.62c-1,1.44-6.18,8.15-5.77,10.76a4.76,4.76,0,0,0,.36,1.21,4.49,4.49,0,0,0,.4,1.48,14.49,14.49,0,0,0,3.21,4.31c1.29,1.28,2.33,2.73,3.49,4.12,2.53,3.07,19,22.74,20.75,23.56,3.26,1.56,7.38-1.17,9.5-3.5s15.81-23.56,18.42-25.86a3.88,3.88,0,0,0,1.4-2.64,4.05,4.05,0,0,0-.68-3.95,2.2,2.2,0,0,0-.11-.27" transform="translate(0 0)"/><path class="cls-3" d="M1513.28,136.54a7.4,7.4,0,1,0,7.24,7.39,7.32,7.32,0,0,0-7.24-7.39" transform="translate(0 0)"/><path class="cls-3" d="M1597.65,164.07c-1.87,2.51-3.58,5.11-5.32,7.71a16.32,16.32,0,0,1-1.94,2.51,4.35,4.35,0,0,1-.35.29l-.09-.24a14.9,14.9,0,0,0-2.48-4.16c-2.06-2.57-4.57-4.93-6.85-7.29-2.47-2.57-5-5.06-7.35-7.74-1.21-1.37-2.21-3-3.5-4.29a18.31,18.31,0,0,1-2.34-2.5l.19-.21c.51-.65,1-1.31,1.48-2,1-1.37,6.89-10,9.11-12.75a88.45,88.45,0,0,0,6-7.81c.64-1,1.37-2,2-2.93,1.25,1.81,2.57,3.57,3.94,5.28,1.17,1.46,11.5,15,13.86,17.93,1,1.26,2.43,2.39,3.35,3.52l.18.22c-3.92,4.3-6.42,9.79-9.9,14.44m17.94-16.89a4.26,4.26,0,0,0-.36-.82c-.45-.9-13.87-18-15-19.27s-8.45-10.91-10.56-14.39a4.05,4.05,0,0,0-3.88-1.56,5.86,5.86,0,0,0-4.58,3.54l-.11.21a9.07,9.07,0,0,0-.78,1.52,9.42,9.42,0,0,1-1.25,2.18c-2.33,3.37-4.84,6.58-7.42,9.75s-4.77,6.32-7,9.62c-1,1.44-6.18,8.15-5.77,10.76a4.76,4.76,0,0,0,.36,1.21,4.51,4.51,0,0,0,.39,1.49,14.79,14.79,0,0,0,3.22,4.3c1.29,1.28,2.32,2.73,3.48,4.13,2.54,3.06,19,22.73,20.75,23.56,3.27,1.55,7.39-1.18,9.51-3.51s15.8-23.56,18.42-25.86a3.88,3.88,0,0,0,1.4-2.64,4.05,4.05,0,0,0-.68-4l-.11-.27" transform="translate(0 0)"/><path class="cls-3" d="M1587.41,142.09a7.4,7.4,0,1,0,7.23,7.39,7.32,7.32,0,0,0-7.23-7.39" transform="translate(0 0)"/><path class="cls-3" d="M1673.61,167.76c-1.88,2.51-3.59,5.11-5.32,7.71a16.32,16.32,0,0,1-1.94,2.51l-.35.29-.09-.24a15.14,15.14,0,0,0-2.48-4.16c-2.07-2.57-4.57-4.93-6.85-7.3-2.47-2.56-5-5.06-7.35-7.73-1.21-1.38-2.22-3-3.5-4.29a19.69,19.69,0,0,1-2.35-2.5l.2-.21c.5-.65,1-1.32,1.47-2,1-1.36,6.9-10,9.12-12.74a88.34,88.34,0,0,0,5.95-7.81c.65-1,1.38-2,2.06-2.93,1.25,1.81,2.57,3.57,3.93,5.28,1.17,1.46,11.5,15,13.87,17.92,1,1.26,2.43,2.39,3.34,3.52l.19.23c-3.92,4.29-6.42,9.78-9.9,14.44m17.94-16.89a5.5,5.5,0,0,0-.36-.82c-.45-.9-13.87-18-15.06-19.27s-8.45-10.91-10.56-14.4a4.05,4.05,0,0,0-3.87-1.55,5.87,5.87,0,0,0-4.58,3.53c0,.1-.08.17-.11.22a8.11,8.11,0,0,0-.79,1.52,9,9,0,0,1-1.24,2.18c-2.33,3.36-4.85,6.57-7.43,9.75s-4.77,6.32-7,9.62c-1,1.44-6.19,8.15-5.77,10.76a4.39,4.39,0,0,0,.36,1.21,4.46,4.46,0,0,0,.39,1.48,14.67,14.67,0,0,0,3.21,4.31c1.29,1.28,2.33,2.73,3.49,4.12,2.54,3.07,19,22.74,20.75,23.56,3.26,1.56,7.38-1.17,9.5-3.5s15.81-23.56,18.43-25.86a3.92,3.92,0,0,0,1.4-2.64,4.06,4.06,0,0,0-.69-4,1.91,1.91,0,0,0-.1-.27" transform="translate(0 0)"/><path class="cls-3" d="M1663.36,145.78a7.4,7.4,0,1,0,7.24,7.39,7.31,7.31,0,0,0-7.24-7.39" transform="translate(0 0)"/><path class="cls-3" d="M1745.63,174.69c-2,2.42-3.8,4.94-5.65,7.46a16.79,16.79,0,0,1-2,2.42l-.37.27-.08-.24a15.07,15.07,0,0,0-2.3-4.27c-2-2.66-4.35-5.13-6.52-7.6-2.36-2.67-4.77-5.28-7-8.06-1.15-1.43-2.08-3.11-3.31-4.45a19.42,19.42,0,0,1-2.23-2.6l.21-.2c.53-.63,1.05-1.27,1.55-1.92,1-1.32,7.33-9.67,9.66-12.32a85.32,85.32,0,0,0,6.29-7.53c.7-1,1.47-1.88,2.18-2.83q1.77,2.79,3.71,5.45c1.1,1.52,10.83,15.55,13.07,18.54,1,1.31,2.32,2.5,3.19,3.67l.17.24c-4.11,4.11-6.84,9.48-10.52,14m18.66-16.06a4.22,4.22,0,0,0-.33-.83c-.41-.92-13.07-18.59-14.19-19.94s-8-11.28-9.93-14.86a4,4,0,0,0-3.8-1.73,5.84,5.84,0,0,0-4.73,3.32l-.12.21a8.09,8.09,0,0,0-.85,1.49,9.37,9.37,0,0,1-1.34,2.12c-2.48,3.25-5.12,6.34-7.84,9.4s-5,6.1-7.39,9.29c-1,1.4-6.53,7.86-6.23,10.49a56.83,56.83,0,0,1,.63,2.72,14.73,14.73,0,0,0,3,4.45c1.24,1.34,2.21,2.83,3.31,4.28,2.4,3.18,18,23.58,19.7,24.48,3.19,1.71,7.43-.83,9.65-3.07s16.81-22.81,19.53-25a3.89,3.89,0,0,0,1.51-2.58,4,4,0,0,0-.51-4l-.09-.28" transform="translate(0 0)"/><path class="cls-3" d="M1736.35,152.26a7.4,7.4,0,1,0,6.91,7.72,7.3,7.3,0,0,0-6.91-7.72" transform="translate(0 0)"/><path class="cls-3" d="M1820.49,177.48c-1.88,2.5-3.59,5.1-5.32,7.7a15.85,15.85,0,0,1-1.94,2.51l-.35.3-.09-.25a15.14,15.14,0,0,0-2.48-4.16c-2.07-2.56-4.57-4.92-6.85-7.29-2.47-2.56-5-5.06-7.35-7.74-1.21-1.37-2.22-3-3.5-4.29a19,19,0,0,1-2.35-2.5l.2-.21q.75-1,1.47-2c1-1.37,6.9-10,9.12-12.75a86.9,86.9,0,0,0,6-7.81c.65-1,1.38-1.94,2.06-2.92,1.25,1.8,2.57,3.56,3.93,5.27,1.17,1.47,11.5,15,13.87,17.93,1,1.26,2.43,2.39,3.34,3.52l.19.22c-3.92,4.3-6.42,9.79-9.9,14.45m17.94-16.9a5.87,5.87,0,0,0-.36-.81c-.45-.9-13.87-18-15.06-19.28s-8.45-10.9-10.56-14.39a4.06,4.06,0,0,0-3.87-1.56,5.86,5.86,0,0,0-4.58,3.54l-.11.21a8.51,8.51,0,0,0-.79,1.53,9.17,9.17,0,0,1-1.24,2.17c-2.33,3.37-4.85,6.58-7.43,9.75s-4.77,6.32-7,9.63c-1,1.44-6.19,8.14-5.77,10.75a4.29,4.29,0,0,0,.36,1.21,4.51,4.51,0,0,0,.39,1.49,14.8,14.8,0,0,0,3.21,4.31,53.07,53.07,0,0,1,3.49,4.12c2.54,3.06,19,22.73,20.75,23.56,3.26,1.55,7.38-1.18,9.5-3.51s15.81-23.56,18.43-25.86a3.9,3.9,0,0,0,1.4-2.64,4,4,0,0,0-.69-3.94,2.53,2.53,0,0,0-.1-.28" transform="translate(0 0)"/><path class="cls-3" d="M1810.24,155.49a7.4,7.4,0,1,0,7.24,7.4,7.32,7.32,0,0,0-7.24-7.4" transform="translate(0 0)"/><path class="cls-3" d="M1879.3,131.48c.65-1,1.38-1.94,2-2.92q1.89,2.7,3.94,5.27c1.17,1.47,11.5,15,13.87,17.93,1,1.26,2.42,2.39,3.34,3.52l.18.23c-3.92,4.29-6.41,9.78-9.9,14.44-1.87,2.5-3.58,5.1-5.31,7.71a16.34,16.34,0,0,1-1.94,2.5l-.35.3-.09-.24a15.3,15.3,0,0,0-2.48-4.17c-2.07-2.56-4.58-4.92-6.86-7.29-2.46-2.56-5-5.06-7.35-7.73-1.21-1.38-2.21-3-3.5-4.3a18.35,18.35,0,0,1-2.34-2.5l.2-.21q.75-1,1.47-2c1-1.37,6.89-10,9.11-12.75a87,87,0,0,0,6-7.81m-3.11-10.71a8.11,8.11,0,0,0-.79,1.52,9.53,9.53,0,0,1-1.24,2.17c-2.34,3.37-4.85,6.58-7.43,9.75s-4.77,6.33-7,9.63c-1,1.44-6.18,8.14-5.77,10.76a5.2,5.2,0,0,0,.36,1.21,4.82,4.82,0,0,0,.4,1.48,14.62,14.62,0,0,0,3.21,4.31c1.29,1.28,2.33,2.72,3.49,4.12,2.53,3.06,19,22.74,20.75,23.56,3.26,1.56,7.38-1.17,9.5-3.51s15.81-23.55,18.42-25.86a3.86,3.86,0,0,0,1.4-2.64,4,4,0,0,0-.68-3.94,2.2,2.2,0,0,0-.11-.27,4,4,0,0,0-.36-.82c-.45-.9-13.87-18-15-19.27s-8.45-10.91-10.56-14.4a4,4,0,0,0-3.88-1.55,5.83,5.83,0,0,0-4.57,3.53,1.48,1.48,0,0,0-.11.22" transform="translate(0 0)"/><path class="cls-3" d="M1882.54,162.75a7.4,7.4,0,1,0-7.24-7.39,7.32,7.32,0,0,0,7.24,7.39" transform="translate(0 0)"/></g></g></g></svg>