<svg xmlns="http://www.w3.org/2000/svg" xmlns:xlink="http://www.w3.org/1999/xlink" viewBox="0 0 1921.82 159.93"><defs><style>.cls-1{fill:none;}.cls-2{clip-path:url(#clip-path);}.cls-3{fill:#db9429;}</style><clipPath id="clip-path" transform="translate(0 0)"><rect class="cls-1" width="1921.82" height="159.93"/></clipPath></defs><title>Asset 6</title><g id="Layer_2" data-name="Layer 2"><g id="Layer_1-2" data-name="Layer 1"><g class="cls-2"><path class="cls-3" d="M842.89,61.51A583.32,583.32,0,0,1,754.6,62c-12.45-.93-24.93-1.68-37.42-1.89C625.33,50.6,532.35,53,440.25,56.64c-51.67,2-103.34,4.27-155,5.11-51.27.84-103,1-154.08-3.63C87.49,54.17,43.73,47.06,0,48.84V61.32C38.39,59.59,77,65,115.17,69.08c51,5.4,102.44,5.85,153.65,5.34,103.37-1,206.54-8.5,309.93-8.27q25.08.06,50.15.81a6.13,6.13,0,0,0,3.05.87c58.09.06,115.37,12.52,173.46,12.52a343.66,343.66,0,0,0,61.73-5.81c10-1.82,68.46-10.73,69.06-11,8.2-1.11,16.42-1.81,24.64-2.18V48.84a281.4,281.4,0,0,0-30.13,2.79c-.67.08-69.23,8.43-87.82,9.88" transform="translate(0 0)"/><path class="cls-3" d="M32.4,90.88c-3,3-7.6,4.76-11.76,3.51-6.66-2-8.11-10.64-3-15.09,2.44-2.15,11.61-2.84,15.33.93,3.18,3.21,2.5,7.61-.53,10.65m5.1-13.73c-6.22-7.27-19.93-8.71-25.9-1.27-4,5-3,9.18-2.6,12.65.53,4.15,4,8,7.6,9.88,6.43,3.3,14.44,1.3,19.52-3.54s6.15-12.15,1.38-17.72" transform="translate(0 0)"/><path class="cls-3" d="M24.74,81.69a3.13,3.13,0,0,0-2.29.12,3.7,3.7,0,0,0-1.21.87l-.49.5A2.52,2.52,0,0,0,21,86.43a3,3,0,0,0,2,.91,2.89,2.89,0,0,0,.51,0A3.06,3.06,0,0,0,25,87.08l.61-.37a2.59,2.59,0,0,0,.81-1.12,3,3,0,0,0,.24-1.87,2.86,2.86,0,0,0-1.89-2" transform="translate(0 0)"/><path class="cls-3" d="M64.69,89.63a3.55,3.55,0,0,0,.56,0,3.28,3.28,0,0,0,1.66-.28l.66-.41a2.87,2.87,0,0,0,.9-1.22,3.3,3.3,0,0,0,.26-2,3.17,3.17,0,0,0-2.07-2.22,3.46,3.46,0,0,0-2.51.13,4.12,4.12,0,0,0-1.32,1l-.53.55a2.75,2.75,0,0,0,.24,3.55,3.27,3.27,0,0,0,2.15,1" transform="translate(0 0)"/><path class="cls-3" d="M57.34,83.73c4-11.3,22.91-2,16.36,7.49a11,11,0,0,1-10.45,4.24,7.29,7.29,0,0,1-4.69-3,9.54,9.54,0,0,1-1.22-8.69m3.79,16.13c6.15,1.79,13.41-1,17-6.23C82.5,87.39,79,79.52,72.85,76c-5.1-2.92-13-5.09-18.32,1.63-3.63,4.62-4,10.23-1.27,15.68a12.89,12.89,0,0,0,7.87,6.53" transform="translate(0 0)"/><path class="cls-3" d="M114.16,97.34c-3,3-7.59,4.76-11.76,3.51-6.66-2-8.11-10.65-3-15.09,2.44-2.15,11.61-2.84,15.33.92,3.18,3.22,2.51,7.61-.53,10.66m-20.8-15c-4,5-3,9.18-2.6,12.65.53,4.15,4,8,7.6,9.88,6.43,3.3,14.44,1.29,19.53-3.54S124,89.18,119.26,83.6c-6.22-7.27-19.93-8.7-25.9-1.26" transform="translate(0 0)"/><path class="cls-3" d="M106.5,88.15a3.18,3.18,0,0,0-2.29.11,4,4,0,0,0-1.21.87l-.48.51A2.5,2.5,0,0,0,102,91a2.57,2.57,0,0,0,.71,1.93,4.1,4.1,0,0,0,4,.66l.61-.38a2.62,2.62,0,0,0,.81-1.11,3,3,0,0,0,.24-1.88,2.87,2.87,0,0,0-1.89-2" transform="translate(0 0)"/><path class="cls-3" d="M146.45,96.08a3.55,3.55,0,0,0,.56,0,3.39,3.39,0,0,0,1.66-.27c.22-.14.44-.28.67-.41a3,3,0,0,0,.89-1.23,3.28,3.28,0,0,0,.26-2,3.18,3.18,0,0,0-2.07-2.22,3.48,3.48,0,0,0-2.5.13,4.2,4.2,0,0,0-1.33,1l-.53.56a2.75,2.75,0,0,0-.53,1.43,2.85,2.85,0,0,0,.77,2.12,3.26,3.26,0,0,0,2.15,1" transform="translate(0 0)"/><path class="cls-3" d="M139.1,90.19c4-11.3,22.91-2,16.36,7.48A11,11,0,0,1,145,101.92a7.33,7.33,0,0,1-4.69-3,9.54,9.54,0,0,1-1.22-8.69m3.79,16.12c6.15,1.8,13.41-1,17-6.22,4.34-6.24.81-14.12-5.31-17.61-5.1-2.92-13-5.09-18.32,1.63-3.63,4.61-4,10.23-1.27,15.68a12.9,12.9,0,0,0,7.87,6.52" transform="translate(0 0)"/><path class="cls-3" d="M181.12,92.21c2.44-2.14,11.61-2.83,15.33.93,3.18,3.21,2.51,7.61-.53,10.66s-7.59,4.75-11.76,3.5c-6.66-2-8.11-10.64-3-15.09m-1,19.11c6.43,3.3,14.44,1.3,19.53-3.54s6.14-12.15,1.37-17.72c-6.22-7.27-19.93-8.7-25.9-1.27-4,5-3.05,9.18-2.6,12.65.53,4.15,4,8,7.6,9.88" transform="translate(0 0)"/><path class="cls-3" d="M186.46,100.26a4.42,4.42,0,0,0,.51,0,3,3,0,0,0,1.52-.26l.61-.37a2.59,2.59,0,0,0,.81-1.12,3,3,0,0,0,.24-1.87,2.9,2.9,0,0,0-1.89-2,3.18,3.18,0,0,0-2.29.12,3.7,3.7,0,0,0-1.21.87l-.48.5a2.54,2.54,0,0,0-.49,1.32,2.57,2.57,0,0,0,.71,1.93,3,3,0,0,0,2,.92" transform="translate(0 0)"/><path class="cls-3" d="M228.26,104.37a2.74,2.74,0,0,0,.56-.06,3.25,3.25,0,0,0,1.64-.41l.63-.46a2.84,2.84,0,0,0,.78-1.3,3.23,3.23,0,0,0,.09-2.06,3.12,3.12,0,0,0-2.24-2,3.45,3.45,0,0,0-2.48.33A4.11,4.11,0,0,0,226,99.43l-.48.6a2.72,2.72,0,0,0-.41,1.47,2.84,2.84,0,0,0,.94,2,3.26,3.26,0,0,0,2.22.83" transform="translate(0 0)"/><path class="cls-3" d="M220.45,99.1c3.1-11.6,22.68-3.83,16.93,6.11a11,11,0,0,1-10.06,5.09,7.34,7.34,0,0,1-4.94-2.64,9.6,9.6,0,0,1-1.93-8.56m5.11,15.75c6.28,1.29,13.29-2.11,16.46-7.6,3.81-6.58-.36-14.13-6.74-17.11-5.33-2.5-13.42-4-18.13,3.13-3.23,4.9-3.13,10.52,0,15.73a12.86,12.86,0,0,0,8.38,5.85" transform="translate(0 0)"/><path class="cls-3" d="M262.5,97.66c2.26-2.34,11.34-3.78,15.36-.34,3.43,2.94,3.12,7.38.34,10.66s-7.17,5.37-11.42,4.46c-6.81-1.44-9-9.93-4.28-14.78m.58,19.13c6.67,2.75,14.5.1,19.17-5.14s5.12-12.61-.1-17.78c-6.79-6.73-20.57-7-25.91.87-3.58,5.29-2.28,9.4-1.55,12.83.87,4.09,4.63,7.66,8.39,9.22" transform="translate(0 0)"/><path class="cls-3" d="M268.48,105.24a4.63,4.63,0,0,0,.51,0,3.15,3.15,0,0,0,1.5-.38l.57-.42a2.57,2.57,0,0,0,.72-1.19,2.89,2.89,0,0,0,.08-1.88,2.85,2.85,0,0,0-2.05-1.87,3.21,3.21,0,0,0-2.27.31,3.85,3.85,0,0,0-1.13,1l-.44.55a2.45,2.45,0,0,0-.38,1.34,2.61,2.61,0,0,0,.86,1.87,3,3,0,0,0,2,.76" transform="translate(0 0)"/><path class="cls-3" d="M307.84,103.86a3.26,3.26,0,0,0,2.24.76,3.73,3.73,0,0,0,.56-.07,3.41,3.41,0,0,0,1.62-.46l.61-.48a2.92,2.92,0,0,0,.75-1.32,3.26,3.26,0,0,0,0-2.07,3.13,3.13,0,0,0-2.3-2,3.4,3.4,0,0,0-2.47.41,4.1,4.1,0,0,0-1.22,1.09l-.46.61a2.77,2.77,0,0,0-.36,1.49,2.8,2.8,0,0,0,1,2" transform="translate(0 0)"/><path class="cls-3" d="M302.12,99.58c2.75-11.68,22.55-4.5,17.1,5.61a11,11,0,0,1-9.91,5.39,7.34,7.34,0,0,1-5-2.5,9.59,9.59,0,0,1-2.18-8.5m5.57,15.6c6.32,1.1,13.22-2.51,16.23-8.09,3.61-6.69-.78-14.12-7.24-16.91-5.41-2.33-13.54-3.59-18,3.68-3.09,5-2.82,10.61.49,15.72a12.85,12.85,0,0,0,8.55,5.6" transform="translate(0 0)"/><path class="cls-3" d="M344.1,96.89c2.19-2.4,11.23-4.11,15.34-.79,3.52,2.84,3.34,7.28.67,10.65s-7,5.58-11.29,4.8c-6.84-1.25-9.25-9.67-4.72-14.66M345.25,116c6.76,2.56,14.5-.33,19-5.71s4.74-12.76-.62-17.76c-7-6.53-20.78-6.42-25.88,1.64-3.42,5.39-2,9.46-1.17,12.86,1,4.06,4.85,7.53,8.66,9" transform="translate(0 0)"/><path class="cls-3" d="M348.26,103.6a3,3,0,0,0,2.05.69,3.27,3.27,0,0,0,.51-.07,3,3,0,0,0,1.48-.42l.56-.44a2.58,2.58,0,0,0,.68-1.2,3,3,0,0,0,0-1.89,2.86,2.86,0,0,0-2.1-1.8,3.19,3.19,0,0,0-2.26.37,3.93,3.93,0,0,0-1.11,1l-.42.56a2.5,2.5,0,0,0,.58,3.2" transform="translate(0 0)"/><path class="cls-3" d="M390.77,100.75a3.24,3.24,0,0,0,2.25.76,3.76,3.76,0,0,0,.55-.07,3.34,3.34,0,0,0,1.63-.46l.61-.48a2.82,2.82,0,0,0,.75-1.32,3.23,3.23,0,0,0,0-2.06,3.16,3.16,0,0,0-2.3-2,3.46,3.46,0,0,0-2.48.41,4.2,4.2,0,0,0-1.21,1.09l-.47.61a2.77,2.77,0,0,0-.36,1.49,2.8,2.8,0,0,0,1,2" transform="translate(0 0)"/><path class="cls-3" d="M385.05,96.47c2.76-11.68,22.56-4.49,17.1,5.61a11,11,0,0,1-9.91,5.39,7.29,7.29,0,0,1-5-2.5,9.56,9.56,0,0,1-2.19-8.5m5.58,15.6c6.31,1.1,13.21-2.51,16.22-8.08,3.62-6.69-.78-14.12-7.24-16.91-5.4-2.33-13.53-3.6-18,3.67-3.09,5-2.81,10.61.5,15.72a12.83,12.83,0,0,0,8.55,5.6" transform="translate(0 0)"/><path class="cls-3" d="M443,103.65c-2.63,3.3-7,5.57-11.29,4.79-6.84-1.24-9.25-9.66-4.71-14.65,2.19-2.41,11.22-4.12,15.34-.79,3.51,2.84,3.34,7.28.66,10.65m3.53-14.23c-7-6.52-20.77-6.42-25.88,1.64-3.41,5.39-2,9.46-1.17,12.87,1,4.06,4.86,7.52,8.67,9,6.75,2.56,14.49-.32,19-5.7s4.75-12.76-.62-17.77" transform="translate(0 0)"/><path class="cls-3" d="M434.4,95.37a3.14,3.14,0,0,0-2.26.37,3.65,3.65,0,0,0-1.11,1l-.42.55a2.5,2.5,0,0,0-.33,1.36,2.56,2.56,0,0,0,.91,1.84,2.91,2.91,0,0,0,2.05.69,2.29,2.29,0,0,0,.51-.06,3,3,0,0,0,1.48-.42l.56-.44a2.6,2.6,0,0,0,.69-1.2,2.91,2.91,0,0,0,0-1.89,2.84,2.84,0,0,0-2.1-1.8" transform="translate(0 0)"/><path class="cls-3" d="M475.65,95.73a3.49,3.49,0,0,0-2.37.81,4.22,4.22,0,0,0-1,1.29l-.36.67a2.75,2.75,0,0,0-.11,1.53,2.82,2.82,0,0,0,1.32,1.82,3.25,3.25,0,0,0,2.34.37,3,3,0,0,0,.54-.16,3.3,3.3,0,0,0,1.52-.72c.17-.2.35-.39.52-.58a2.84,2.84,0,0,0,.53-1.42,3.27,3.27,0,0,0-.32-2,3.12,3.12,0,0,0-2.6-1.57" transform="translate(0 0)"/><path class="cls-3" d="M484.56,101.27a11,11,0,0,1-8.87,7,7.35,7.35,0,0,1-5.35-1.63,9.56,9.56,0,0,1-3.57-8c.78-12,21.5-8.18,17.79,2.69m-5-14.38c-5.72-1.4-13.95-1.29-17.18,6.62-2.21,5.44-1,10.93,3.11,15.42a12.84,12.84,0,0,0,9.36,4.11c6.41,0,12.61-4.67,14.66-10.67,2.45-7.2-3.12-13.8-9.95-15.48" transform="translate(0 0)"/><path class="cls-3" d="M507.73,89c1.75-2.74,10.38-5.93,15-3.33,3.94,2.21,4.5,6.63,2.42,10.39s-6,6.66-10.33,6.6c-7-.09-10.73-8-7.08-13.66m4.3,18.65c7.08,1.4,14.24-2.73,17.79-8.78s2.57-13.38-3.56-17.42c-8-5.28-21.55-2.88-25.24,5.91-2.48,5.88-.41,9.67,1,12.88,1.66,3.84,6,6.62,10,7.41" transform="translate(0 0)"/><path class="cls-3" d="M512.94,94.88a3,3,0,0,0,2.13.34,2.3,2.3,0,0,0,.49-.15,3.07,3.07,0,0,0,1.4-.66l.48-.53a2.63,2.63,0,0,0,.47-1.3,2.94,2.94,0,0,0-.29-1.86,2.86,2.86,0,0,0-2.37-1.43,3.14,3.14,0,0,0-2.17.74,3.76,3.76,0,0,0-.92,1.17l-.33.62a2.54,2.54,0,0,0-.1,1.39,2.61,2.61,0,0,0,1.21,1.67" transform="translate(0 0)"/><path class="cls-3" d="M554.08,92a3.55,3.55,0,0,0,.56,0,3.37,3.37,0,0,0,1.66-.27l.67-.41a3,3,0,0,0,.89-1.23,3.28,3.28,0,0,0,.26-2,3.18,3.18,0,0,0-2.07-2.22,3.48,3.48,0,0,0-2.5.13,4.2,4.2,0,0,0-1.33.95l-.53.56a2.75,2.75,0,0,0-.53,1.43,2.86,2.86,0,0,0,.77,2.12,3.26,3.26,0,0,0,2.15,1" transform="translate(0 0)"/><path class="cls-3" d="M546.73,86.09c4-11.29,22.92-1.94,16.36,7.49a11,11,0,0,1-10.45,4.25,7.33,7.33,0,0,1-4.69-3,9.59,9.59,0,0,1-1.22-8.7m3.79,16.13c6.15,1.8,13.42-1,17-6.22,4.34-6.24.81-14.12-5.3-17.61-5.11-2.93-13-5.09-18.33,1.63-3.63,4.61-4,10.23-1.27,15.68a12.9,12.9,0,0,0,7.87,6.52" transform="translate(0 0)"/><path class="cls-3" d="M588.75,88.12c2.44-2.14,11.61-2.83,15.33.93,3.18,3.21,2.51,7.61-.53,10.66s-7.59,4.75-11.75,3.5c-6.66-2-8.11-10.64-3-15.09m-1,19.11c6.42,3.3,14.43,1.3,19.52-3.54s6.14-12.15,1.37-17.72c-6.22-7.27-19.93-8.7-25.9-1.27-4,5-3,9.18-2.6,12.65.53,4.15,4,8,7.61,9.88" transform="translate(0 0)"/><path class="cls-3" d="M594.09,96.17a4.42,4.42,0,0,0,.51,0,3,3,0,0,0,1.52-.26l.61-.37a2.59,2.59,0,0,0,.81-1.12,3,3,0,0,0,.24-1.87,2.86,2.86,0,0,0-1.89-2,3.18,3.18,0,0,0-2.29.12,3.7,3.7,0,0,0-1.21.87l-.48.5a2.54,2.54,0,0,0-.49,1.32,2.57,2.57,0,0,0,.71,1.93,3,3,0,0,0,2,.92" transform="translate(0 0)"/><path class="cls-3" d="M633.07,96.79a5.28,5.28,0,0,0,.56,0,3.25,3.25,0,0,0,1.66-.28l.67-.41a2.91,2.91,0,0,0,.89-1.22,3.3,3.3,0,0,0,.26-2.05A3.11,3.11,0,0,0,635,90.6a3.43,3.43,0,0,0-2.5.13,4.05,4.05,0,0,0-1.33,1l-.53.55a2.78,2.78,0,0,0-.53,1.44,2.84,2.84,0,0,0,.77,2.11,3.27,3.27,0,0,0,2.15,1" transform="translate(0 0)"/><path class="cls-3" d="M625.72,90.89c4-11.3,22.92-2,16.36,7.48a11,11,0,0,1-10.44,4.25,7.35,7.35,0,0,1-4.7-3,9.59,9.59,0,0,1-1.22-8.69M629.51,107c6.15,1.8,13.42-1,17-6.22,4.34-6.24.81-14.12-5.3-17.61-5.11-2.92-13-5.09-18.33,1.63-3.63,4.62-4,10.23-1.27,15.68a12.87,12.87,0,0,0,7.87,6.52" transform="translate(0 0)"/><path class="cls-3" d="M665.74,89.33c2.61-1.94,11.81-1.88,15.2,2.18,2.91,3.46,1.88,7.79-1.4,10.58s-8,4.12-12,2.53c-6.47-2.54-7.21-11.27-1.8-15.29m-2.56,19c6.13,3.81,14.29,2.47,19.75-1.93s7.12-11.61,2.82-17.56c-5.61-7.75-19.15-10.3-25.71-3.38-4.39,4.63-3.79,8.9-3.63,12.4.2,4.18,3.31,8.32,6.77,10.47" transform="translate(0 0)"/><path class="cls-3" d="M670.4,97.78a2.78,2.78,0,0,0,.51,0,3,3,0,0,0,1.54-.13l.63-.32a2.64,2.64,0,0,0,.91-1.05,3,3,0,0,0,.39-1.85,2.87,2.87,0,0,0-1.72-2.17,3.12,3.12,0,0,0-2.29-.07,3.88,3.88,0,0,0-1.28.76l-.52.47a2.53,2.53,0,0,0-.59,1.27,2.58,2.58,0,0,0,.54,2,3,3,0,0,0,1.88,1.07" transform="translate(0 0)"/><path class="cls-3" d="M709.2,101.59a3.28,3.28,0,0,0,.56,0,3.31,3.31,0,0,0,1.68-.14c.23-.12.46-.24.7-.35a2.87,2.87,0,0,0,1-1.15,3.18,3.18,0,0,0,.43-2,3.12,3.12,0,0,0-1.88-2.38,3.48,3.48,0,0,0-2.5-.08,4.09,4.09,0,0,0-1.4.84l-.58.51a2.74,2.74,0,0,0-.64,1.39,2.83,2.83,0,0,0,.59,2.17,3.25,3.25,0,0,0,2.06,1.17" transform="translate(0 0)"/><path class="cls-3" d="M702.36,95.11c4.95-10.93,23-.06,15.69,8.81a11,11,0,0,1-10.76,3.37,7.36,7.36,0,0,1-4.43-3.41,9.59,9.59,0,0,1-.5-8.77m2.46,16.39c6,2.29,13.45.08,17.48-4.81,4.84-5.87,2-14-3.85-18-4.85-3.33-12.58-6.14-18.4.13-4,4.3-4.8,9.86-2.54,15.52a12.88,12.88,0,0,0,7.31,7.15" transform="translate(0 0)"/><path class="cls-3" d="M745.08,98.48c2.61-1.94,11.81-1.88,15.21,2.18,2.9,3.46,1.87,7.79-1.41,10.58s-8,4.11-12,2.53c-6.47-2.54-7.21-11.27-1.8-15.29m-2.55,19c6.13,3.81,14.28,2.47,19.74-1.94s7.12-11.6,2.82-17.55c-5.6-7.75-19.14-10.3-25.71-3.38-4.39,4.63-3.79,8.9-3.63,12.4.2,4.17,3.32,8.32,6.78,10.47" transform="translate(0 0)"/><path class="cls-3" d="M859,102.55c3.69-11.42,22.84-2.65,16.58,7a11,11,0,0,1-10.31,4.57,7.38,7.38,0,0,1-4.79-2.9,9.58,9.58,0,0,1-1.48-8.65m4.28,16c6.21,1.61,13.38-1.43,16.84-6.74,4.14-6.37.37-14.14-5.85-17.44C869.05,91.6,861,89.68,856,96.56c-3.48,4.73-3.67,10.35-.78,15.71a12.83,12.83,0,0,0,8.06,6.28" transform="translate(0 0)"/><path class="cls-3" d="M749.74,106.93a2.89,2.89,0,0,0,.52,0,3,3,0,0,0,1.53-.13l.64-.32a2.69,2.69,0,0,0,.9-1,3,3,0,0,0,.39-1.85,2.85,2.85,0,0,0-1.72-2.17,3.12,3.12,0,0,0-2.29-.07,3.88,3.88,0,0,0-1.28.76l-.52.47a2.49,2.49,0,0,0-.59,1.26,2.56,2.56,0,0,0,.55,2,3,3,0,0,0,1.87,1.07" transform="translate(0 0)"/><path class="cls-3" d="M788.54,110.74a3.43,3.43,0,0,0,.56,0,3.2,3.2,0,0,0,1.68-.14l.7-.35a3,3,0,0,0,1-1.15,3.24,3.24,0,0,0,.42-2,3.11,3.11,0,0,0-1.87-2.38,3.51,3.51,0,0,0-2.51-.08,4.09,4.09,0,0,0-1.4.84l-.57.51a2.76,2.76,0,0,0-.65,1.39,2.8,2.8,0,0,0,.6,2.17,3.21,3.21,0,0,0,2,1.17" transform="translate(0 0)"/><path class="cls-3" d="M781.7,104.26c5-10.93,23-.06,15.7,8.8a11,11,0,0,1-10.76,3.38A7.35,7.35,0,0,1,782.2,113a9.62,9.62,0,0,1-.5-8.77m2.46,16.39c6,2.29,13.45.08,17.48-4.81,4.84-5.87,2-14-3.84-18-4.85-3.33-12.59-6.14-18.4.13-4,4.3-4.81,9.86-2.55,15.52a12.91,12.91,0,0,0,7.31,7.15" transform="translate(0 0)"/><path class="cls-3" d="M821.93,100.91c2.38-2.21,11.52-3.18,15.35.46,3.28,3.12,2.74,7.53-.2,10.67s-7.44,5-11.64,3.86c-6.72-1.79-8.43-10.38-3.51-15m-.41,19.14c6.52,3.1,14.47.85,19.41-4.14s5.76-12.33.82-17.76c-6.43-7.07-20.18-8.08-25.92-.47-3.84,5.1-2.77,9.27-2.21,12.73.66,4.13,4.22,7.89,7.9,9.64" transform="translate(0 0)"/><path class="cls-3" d="M827.51,108.79a6.54,6.54,0,0,0,2-.32l.59-.39a2.68,2.68,0,0,0,.78-1.15,2.93,2.93,0,0,0,.18-1.87,2.84,2.84,0,0,0-2-2,3.15,3.15,0,0,0-2.28.18,3.78,3.78,0,0,0-1.19.91l-.46.52a2.44,2.44,0,0,0-.45,1.33,2.56,2.56,0,0,0,.77,1.91,3,3,0,0,0,2,.85" transform="translate(0 0)"/><path class="cls-3" d="M866.5,108.22a2.61,2.61,0,0,0,.55,0,3.27,3.27,0,0,0,1.66-.32l.65-.43a2.8,2.8,0,0,0,.85-1.26,3.21,3.21,0,0,0,.2-2.05,3.16,3.16,0,0,0-2.13-2.16,3.44,3.44,0,0,0-2.5.21,4.05,4.05,0,0,0-1.3,1l-.51.57a2.8,2.8,0,0,0-.49,1.45,2.83,2.83,0,0,0,.84,2.09,3.22,3.22,0,0,0,2.18.94" transform="translate(0 0)"/><path class="cls-3" d="M897.4,90.21c2.16-2.43,11.18-4.25,15.33-1,3.55,2.8,3.42,7.24.78,10.64s-6.94,5.65-11.23,4.93c-6.85-1.17-9.36-9.56-4.88-14.6m1.37,19.09c6.78,2.48,14.49-.5,18.94-5.92s4.6-12.82-.83-17.76C909.81,79.17,896,79.44,891,87.55c-3.35,5.43-1.89,9.49-1,12.88,1,4,4.94,7.47,8.77,8.87" transform="translate(0 0)"/><path class="cls-3" d="M901.63,96.86a3,3,0,0,0,2.06.67,3.27,3.27,0,0,0,.51-.07,3,3,0,0,0,1.48-.44l.55-.44a2.64,2.64,0,0,0,.67-1.21,3.05,3.05,0,0,0,0-1.89,2.88,2.88,0,0,0-2.13-1.78,3.12,3.12,0,0,0-2.25.4,3.66,3.66,0,0,0-1.1,1l-.42.56A2.5,2.5,0,0,0,900.7,95a2.54,2.54,0,0,0,.93,1.83" transform="translate(0 0)"/><path class="cls-3" d="M940.2,92.61a3.22,3.22,0,0,0,2.25.73,3.6,3.6,0,0,0,.55-.07,3.29,3.29,0,0,0,1.62-.48l.61-.49A2.86,2.86,0,0,0,946,91a3.16,3.16,0,0,0,0-2.06,3.13,3.13,0,0,0-2.32-2,3.43,3.43,0,0,0-2.48.44A4.16,4.16,0,0,0,940,88.5l-.46.62a2.76,2.76,0,0,0-.35,1.49,2.81,2.81,0,0,0,1,2" transform="translate(0 0)"/><path class="cls-3" d="M934.43,88.4c2.62-11.71,22.5-4.76,17.16,5.41a11,11,0,0,1-9.84,5.5,7.3,7.3,0,0,1-5-2.44,9.56,9.56,0,0,1-2.28-8.47m-3.54-5.69c-3,5-2.69,10.64.68,15.72a12.85,12.85,0,0,0,8.61,5.5c6.33,1,13.19-2.66,16.14-8.27,3.53-6.73-1-14.11-7.44-16.83-5.43-2.27-13.58-3.44-18,3.88" transform="translate(0 0)"/><path class="cls-3" d="M10.69,9.68C9.46,8.82-1.07,20,9.29,40.82c.71,1.42,2.41,2.66,3.46,2,.95.18,2-1.63,2.69-2.67,6.29-9.76,5.2-23.51-4.75-30.42" transform="translate(0 0)"/><path class="cls-3" d="M918.3,40.36c1,.18,2-1.63,2.69-2.66,6.29-9.77,5.19-23.52-4.75-30.43-1.23-.86-11.76,10.35-1.4,31.15.7,1.41,2.41,2.65,3.46,1.94" transform="translate(0 0)"/><path class="cls-3" d="M943.59,40.36c.95.18,2-1.63,2.69-2.66,6.29-9.77,5.19-23.52-4.75-30.43-1.24-.86-11.77,10.35-1.41,31.15.71,1.41,2.42,2.65,3.47,1.94" transform="translate(0 0)"/><path class="cls-3" d="M35.33,9.68C34.1,8.82,23.57,20,33.93,40.82c.7,1.42,2.41,2.66,3.46,2,1,.18,2-1.63,2.69-2.67,6.29-9.76,5.19-23.51-4.75-30.42" transform="translate(0 0)"/><path class="cls-3" d="M60,9.68C58.73,8.82,48.2,20,58.56,40.82c.71,1.42,2.42,2.66,3.47,2,.95.18,2-1.63,2.68-2.67C71,30.34,69.91,16.59,60,9.68" transform="translate(0 0)"/><path class="cls-3" d="M84.6,9.68C83.37,8.82,72.84,20,83.2,40.82c.71,1.42,2.42,2.66,3.46,2,1,.18,2-1.63,2.69-2.67,6.3-9.76,5.2-23.51-4.75-30.42" transform="translate(0 0)"/><path class="cls-3" d="M109.24,9.68C108,8.82,97.48,20,107.84,40.82c.7,1.42,2.41,2.66,3.46,2,1,.18,2-1.63,2.69-2.67,6.29-9.76,5.19-23.51-4.75-30.42" transform="translate(0 0)"/><path class="cls-3" d="M133.88,9.68c-1.24-.86-11.77,10.35-1.4,31.14.7,1.42,2.41,2.66,3.46,2,.95.18,2-1.63,2.69-2.67,6.29-9.76,5.19-23.51-4.75-30.42" transform="translate(0 0)"/><path class="cls-3" d="M158.51,12.42c-1.23-.85-11.76,10.36-1.4,31.15.71,1.41,2.42,2.65,3.46,1.94,1,.18,2-1.62,2.69-2.66,6.3-9.76,5.2-23.52-4.75-30.43" transform="translate(0 0)"/><path class="cls-3" d="M184.35,12.47c-1.23-.85-11.76,10.35-1.4,31.15.71,1.41,2.42,2.65,3.46,1.94,1,.18,2-1.63,2.69-2.66,6.3-9.76,5.2-23.52-4.75-30.43" transform="translate(0 0)"/><path class="cls-3" d="M206.58,10.52c-1.23-.85-11.76,10.35-1.4,31.15.71,1.41,2.42,2.65,3.46,1.94,1,.18,2-1.63,2.69-2.66,6.3-9.76,5.2-23.52-4.75-30.43" transform="translate(0 0)"/><path class="cls-3" d="M232.42,11.51c-1.23-.86-11.76,10.35-1.4,31.14.71,1.41,2.42,2.66,3.46,1.94,1,.18,2-1.62,2.69-2.66,6.3-9.76,5.2-23.52-4.75-30.42" transform="translate(0 0)"/><path class="cls-3" d="M257.06,14.25c-1.23-.86-11.76,10.35-1.4,31.15.71,1.41,2.41,2.65,3.46,1.94.95.18,2-1.63,2.69-2.66,6.29-9.77,5.2-23.52-4.75-30.43" transform="translate(0 0)"/><path class="cls-3" d="M281.7,9.82C280.47,9,269.94,20.17,280.3,41c.7,1.41,2.41,2.65,3.46,1.94.95.18,2-1.63,2.69-2.67,6.29-9.76,5.19-23.51-4.75-30.42" transform="translate(0 0)"/><path class="cls-3" d="M307.54,15c-1.23-.85-11.76,10.35-1.4,31.15.7,1.41,2.41,2.65,3.46,1.94.95.18,2-1.63,2.69-2.66,6.29-9.76,5.19-23.52-4.75-30.43" transform="translate(0 0)"/><path class="cls-3" d="M333,43.05c1,.18,2-1.62,2.69-2.66C342,30.63,340.92,16.87,331,10c-1.23-.86-11.76,10.35-1.4,31.14.71,1.42,2.42,2.66,3.46,1.94" transform="translate(0 0)"/><path class="cls-3" d="M358.87,41.73c.95.18,2-1.63,2.69-2.66,6.3-9.76,5.2-23.52-4.75-30.43-1.23-.85-11.76,10.35-1.4,31.15.71,1.41,2.42,2.65,3.46,1.94" transform="translate(0 0)"/><path class="cls-3" d="M384.71,38.7c1,.18,2-1.63,2.69-2.67,6.3-9.76,5.2-23.51-4.75-30.42-1.23-.86-11.76,10.35-1.4,31.14.71,1.42,2.42,2.66,3.46,2" transform="translate(0 0)"/><path class="cls-3" d="M406.94,39.8c.95.18,2-1.62,2.69-2.66,6.3-9.76,5.2-23.52-4.75-30.42-1.23-.86-11.76,10.35-1.4,31.14.71,1.42,2.42,2.66,3.46,1.94" transform="translate(0 0)"/><path class="cls-3" d="M434,34.94c.95.18,2-1.63,2.69-2.66,6.29-9.76,5.19-23.52-4.75-30.43C430.7,1,420.17,12.2,430.53,33c.7,1.41,2.41,2.65,3.46,1.94" transform="translate(0 0)"/><path class="cls-3" d="M458.63,36.79c.95.18,2-1.62,2.69-2.66,6.29-9.76,5.19-23.52-4.75-30.42-1.24-.86-11.77,10.35-1.4,31.14.7,1.42,2.41,2.66,3.46,1.94" transform="translate(0 0)"/><path class="cls-3" d="M483.26,34.34c.95.18,2-1.63,2.69-2.66,6.3-9.77,5.2-23.52-4.75-30.43C480,.39,469.44,11.6,479.8,32.4c.71,1.41,2.42,2.65,3.46,1.94" transform="translate(0 0)"/><path class="cls-3" d="M505.49,33.13c.95.18,2-1.62,2.69-2.66,6.29-9.76,5.2-23.52-4.75-30.42C502.2-.81,491.67,10.4,502,31.19c.71,1.42,2.41,2.66,3.46,1.94" transform="translate(0 0)"/><path class="cls-3" d="M530.13,37.73c1,.18,2-1.62,2.69-2.66,6.29-9.76,5.19-23.52-4.75-30.42-1.23-.86-11.76,10.35-1.4,31.14.7,1.41,2.41,2.66,3.46,1.94" transform="translate(0 0)"/><path class="cls-3" d="M554.76,34.53c1,.18,2-1.63,2.69-2.66,6.3-9.76,5.2-23.52-4.75-30.43-1.23-.85-11.76,10.35-1.4,31.15.71,1.41,2.42,2.65,3.46,1.94" transform="translate(0 0)"/><path class="cls-3" d="M579.4,34.07c1,.18,2-1.62,2.69-2.66,6.29-9.76,5.2-23.52-4.75-30.42-1.23-.86-11.76,10.35-1.4,31.14.71,1.41,2.42,2.66,3.46,1.94" transform="translate(0 0)"/><path class="cls-3" d="M604,40.09c1,.18,2-1.62,2.69-2.66C613,27.67,611.92,13.91,602,7c-1.23-.86-11.76,10.35-1.4,31.14.7,1.41,2.41,2.66,3.46,1.94" transform="translate(0 0)"/><path class="cls-3" d="M628.67,40.55c1,.18,2-1.63,2.69-2.66,6.3-9.76,5.2-23.52-4.75-30.43-1.23-.85-11.76,10.35-1.4,31.15.71,1.41,2.42,2.65,3.46,1.94" transform="translate(0 0)"/><path class="cls-3" d="M651.19,42.18c1,.18,2-1.63,2.69-2.66,6.3-9.76,5.2-23.52-4.75-30.43-1.23-.85-11.76,10.35-1.4,31.15.71,1.41,2.42,2.65,3.46,1.94" transform="translate(0 0)"/><path class="cls-3" d="M676.39,41.94c1,.18,2-1.63,2.69-2.66,6.29-9.77,5.19-23.52-4.75-30.43C673.1,8,662.57,19.2,672.93,40c.7,1.41,2.41,2.65,3.46,1.94" transform="translate(0 0)"/><path class="cls-3" d="M703.79,46.45c1,.18,2-1.63,2.69-2.66,6.29-9.76,5.19-23.52-4.75-30.43-1.23-.85-11.76,10.35-1.4,31.15.7,1.41,2.41,2.65,3.46,1.94" transform="translate(0 0)"/><path class="cls-3" d="M730,47c1,.1,1.88-1.79,2.45-2.88,5.44-10.27,3.16-23.88-7.34-29.91-1.3-.74-10.83,11.33,1.28,31.16.82,1.34,2.63,2.43,3.61,1.63" transform="translate(0 0)"/><path class="cls-3" d="M754.52,49.68c1,.09,1.87-1.8,2.45-2.89,5.43-10.26,3.16-23.87-7.34-29.9-1.3-.75-10.83,11.32,1.27,31.15.83,1.35,2.64,2.44,3.62,1.64" transform="translate(0 0)"/><path class="cls-3" d="M779.65,51.16c1,.1,1.87-1.79,2.45-2.88,5.43-10.27,3.16-23.88-7.34-29.91-1.31-.74-10.84,11.33,1.27,31.16.83,1.34,2.64,2.43,3.62,1.63" transform="translate(0 0)"/><path class="cls-3" d="M806,52.67c1,.1,1.87-1.79,2.45-2.88,5.43-10.27,3.16-23.88-7.34-29.91-1.31-.74-10.83,11.33,1.27,31.15.83,1.35,2.64,2.44,3.62,1.64" transform="translate(0 0)"/><path class="cls-3" d="M825.77,42.77c1,.18,2-1.63,2.69-2.67,6.29-9.76,5.19-23.51-4.75-30.42C822.48,8.82,812,20,822.31,40.82c.7,1.42,2.41,2.66,3.46,2" transform="translate(0 0)"/><path class="cls-3" d="M850.41,42.77c1,.18,2-1.63,2.69-2.67,6.29-9.76,5.19-23.51-4.75-30.42C847.11,8.82,836.58,20,847,40.82c.7,1.42,2.41,2.66,3.46,2" transform="translate(0 0)"/><path class="cls-3" d="M873.87,41.59c1,.18,2-1.62,2.69-2.66,6.29-9.76,5.19-23.52-4.75-30.42-1.23-.86-11.76,10.35-1.4,31.14.7,1.41,2.41,2.66,3.46,1.94" transform="translate(0 0)"/><path class="cls-3" d="M897.33,40.42c.95.18,2-1.63,2.69-2.66,6.3-9.76,5.2-23.52-4.75-30.43-1.23-.85-11.76,10.35-1.4,31.15.71,1.41,2.42,2.65,3.46,1.94" transform="translate(0 0)"/><path class="cls-3" d="M36.22,132.87a7.58,7.58,0,0,0,4.9-1.6c1.72-1.47,2.1-3.35,2.41-5.47a8.76,8.76,0,0,0-.74-5c-.84-1.8-2.65-2.84-4.37-3.61-3-1.34-7-1.53-9.57.7a5.44,5.44,0,0,0-.57.6,2.88,2.88,0,0,0-.77,1.14,19.28,19.28,0,0,0-1.23,2.83,7.37,7.37,0,0,0,.14,5.72,6.12,6.12,0,0,0,.86,1.24l0,.09c2,3,5.56,3.46,8.89,3.38" transform="translate(0 0)"/><path class="cls-3" d="M.92,127.23a7.58,7.58,0,0,0,4.9-1.6c1.72-1.47,2.1-3.35,2.41-5.47a8.76,8.76,0,0,0-.74-5c-.83-1.8-2.65-2.84-4.37-3.61a11.13,11.13,0,0,0-3.12-.9v16.61H.92" transform="translate(0 0)"/><path class="cls-3" d="M954.39,112.23a5.44,5.44,0,0,0-.57.6,2.86,2.86,0,0,0-.76,1.14,18.36,18.36,0,0,0-1.24,2.83,7.41,7.41,0,0,0,.14,5.72,6.54,6.54,0,0,0,.86,1.24l.06.09c1.79,2.73,4.91,3.35,8,3.39V110.63a8.09,8.09,0,0,0-6.45,1.6" transform="translate(0 0)"/><path class="cls-3" d="M81,126.11c-.83-1.81-2.65-2.84-4.37-3.62-3-1.33-7-1.53-9.57.71a4.67,4.67,0,0,0-.57.6,3,3,0,0,0-.76,1.14,18.92,18.92,0,0,0-1.24,2.83,7.37,7.37,0,0,0,.15,5.72,6.82,6.82,0,0,0,.85,1.24l.06.09c2,3,5.56,3.46,8.88,3.38a7.54,7.54,0,0,0,4.91-1.61c1.72-1.46,2.09-3.34,2.41-5.47a8.81,8.81,0,0,0-.75-5" transform="translate(0 0)"/><path class="cls-3" d="M116.11,125.58c-3-1.34-7-1.53-9.56.71a4.13,4.13,0,0,0-.58.6,3,3,0,0,0-.76,1.14,20,20,0,0,0-1.24,2.83,7.35,7.35,0,0,0,.15,5.71,6.47,6.47,0,0,0,.86,1.25l0,.08c2,3,5.56,3.46,8.88,3.39a7.59,7.59,0,0,0,4.91-1.61c1.72-1.47,2.09-3.34,2.41-5.47a8.81,8.81,0,0,0-.75-5c-.83-1.81-2.65-2.84-4.37-3.62" transform="translate(0 0)"/><path class="cls-3" d="M155.4,128.61c-3-1.34-7-1.53-9.56.7a4.77,4.77,0,0,0-.57.61,2.81,2.81,0,0,0-.77,1.14,19.19,19.19,0,0,0-1.23,2.82,7.37,7.37,0,0,0,.14,5.72,6.12,6.12,0,0,0,.86,1.24l0,.09c2,3,5.56,3.46,8.88,3.38a7.59,7.59,0,0,0,4.91-1.6c1.72-1.47,2.1-3.34,2.41-5.47a8.76,8.76,0,0,0-.75-5c-.83-1.8-2.65-2.83-4.37-3.61" transform="translate(0 0)"/><path class="cls-3" d="M193.56,131.26a4.67,4.67,0,0,0-.57.6,2.88,2.88,0,0,0-.77,1.14,19.28,19.28,0,0,0-1.23,2.83,7.37,7.37,0,0,0,.14,5.72,6.41,6.41,0,0,0,.86,1.24l0,.09c2,3,5.56,3.46,8.88,3.38a7.59,7.59,0,0,0,4.91-1.6c1.72-1.47,2.1-3.35,2.41-5.48a8.73,8.73,0,0,0-.75-5c-.83-1.81-2.65-2.84-4.37-3.62-3-1.33-7-1.53-9.56.71" transform="translate(0 0)"/><path class="cls-3" d="M240,133.82c-3-1.34-7-1.53-9.57.7a5.55,5.55,0,0,0-.57.61,2.88,2.88,0,0,0-.77,1.14,18.83,18.83,0,0,0-1.23,2.83,7.35,7.35,0,0,0,.14,5.71,6.47,6.47,0,0,0,.86,1.25l0,.08c2,3,5.56,3.46,8.89,3.38a7.58,7.58,0,0,0,4.9-1.6c1.72-1.47,2.1-3.34,2.41-5.47a8.76,8.76,0,0,0-.74-5c-.83-1.8-2.65-2.83-4.37-3.61" transform="translate(0 0)"/><path class="cls-3" d="M273.35,136a4.71,4.71,0,0,0-.58.6,3,3,0,0,0-.76,1.14,19.38,19.38,0,0,0-1.24,2.83,7.37,7.37,0,0,0,.15,5.72,6.82,6.82,0,0,0,.85,1.24l.06.09c2,3,5.56,3.46,8.88,3.38a7.59,7.59,0,0,0,4.91-1.6c1.72-1.47,2.09-3.35,2.41-5.47a8.85,8.85,0,0,0-.75-5c-.83-1.81-2.65-2.84-4.37-3.62-3-1.33-7-1.52-9.56.71" transform="translate(0 0)"/><path class="cls-3" d="M317.53,141.26a5.44,5.44,0,0,0-.57.6,2.88,2.88,0,0,0-.77,1.14,19.28,19.28,0,0,0-1.23,2.83,7.37,7.37,0,0,0,.14,5.72,6.41,6.41,0,0,0,.86,1.24l.05.09c2,3,5.56,3.46,8.89,3.38a7.58,7.58,0,0,0,4.9-1.6c1.72-1.47,2.1-3.35,2.41-5.47a8.83,8.83,0,0,0-.74-5c-.84-1.81-2.66-2.84-4.37-3.62-3-1.33-7-1.53-9.57.71" transform="translate(0 0)"/><path class="cls-3" d="M409.78,152l.05.09c2,3,5.56,3.46,8.89,3.38a7.53,7.53,0,0,0,4.9-1.61c1.72-1.47,2.1-3.34,2.41-5.47a8.73,8.73,0,0,0-.74-5c-.83-1.81-2.65-2.84-4.37-3.62-3-1.33-7-1.53-9.57.71a4.67,4.67,0,0,0-.57.6,2.88,2.88,0,0,0-.77,1.14,18.83,18.83,0,0,0-1.23,2.83,7.37,7.37,0,0,0,.14,5.72,6.41,6.41,0,0,0,.86,1.24" transform="translate(0 0)"/><path class="cls-3" d="M452.4,150.06l.05.09c2,3,5.56,3.46,8.88,3.38a7.59,7.59,0,0,0,4.91-1.6c1.72-1.47,2.09-3.35,2.41-5.47a8.85,8.85,0,0,0-.75-5c-.83-1.81-2.65-2.84-4.37-3.62-2.95-1.33-7-1.52-9.56.71a4.71,4.71,0,0,0-.58.6,3,3,0,0,0-.76,1.14,19.38,19.38,0,0,0-1.24,2.83,7.37,7.37,0,0,0,.15,5.72,6.41,6.41,0,0,0,.86,1.24" transform="translate(0 0)"/><path class="cls-3" d="M503,147.38a7.59,7.59,0,0,0,4.91-1.61c1.72-1.47,2.09-3.34,2.41-5.47a8.81,8.81,0,0,0-.75-5c-.83-1.81-2.65-2.84-4.37-3.62-3-1.34-7-1.53-9.56.71a4.13,4.13,0,0,0-.58.6,3,3,0,0,0-.76,1.14,18.92,18.92,0,0,0-1.24,2.83,7.35,7.35,0,0,0,.15,5.71,6.89,6.89,0,0,0,.85,1.25l.06.08c2,3,5.56,3.46,8.88,3.39" transform="translate(0 0)"/><path class="cls-3" d="M547.92,143.11c1.72-1.47,2.1-3.34,2.41-5.47a8.76,8.76,0,0,0-.75-5c-.83-1.8-2.65-2.83-4.37-3.61-3-1.34-7-1.53-9.56.7a5.55,5.55,0,0,0-.57.61,2.88,2.88,0,0,0-.77,1.14,18.83,18.83,0,0,0-1.23,2.83,7.35,7.35,0,0,0,.14,5.71,6.12,6.12,0,0,0,.86,1.24l0,.09c2,3,5.56,3.46,8.88,3.38a7.59,7.59,0,0,0,4.91-1.6" transform="translate(0 0)"/><path class="cls-3" d="M583.37,125.89c-3-1.34-7-1.53-9.57.7a5.55,5.55,0,0,0-.57.61,2.88,2.88,0,0,0-.77,1.14,18.83,18.83,0,0,0-1.23,2.83,7.35,7.35,0,0,0,.14,5.71,6.47,6.47,0,0,0,.86,1.25l0,.08c2,3,5.56,3.46,8.88,3.38a7.59,7.59,0,0,0,4.91-1.6c1.72-1.47,2.1-3.34,2.41-5.47a8.76,8.76,0,0,0-.75-5c-.83-1.8-2.65-2.83-4.36-3.61" transform="translate(0 0)"/><path class="cls-3" d="M611.38,124.08a2.88,2.88,0,0,0-.77,1.14,18.83,18.83,0,0,0-1.23,2.83,7.35,7.35,0,0,0,.14,5.71,6.47,6.47,0,0,0,.86,1.25l0,.08c2,3,5.56,3.46,8.89,3.38a7.58,7.58,0,0,0,4.9-1.6c1.72-1.47,2.1-3.34,2.41-5.47a8.76,8.76,0,0,0-.75-5c-.83-1.8-2.64-2.83-4.36-3.61-3-1.34-7-1.53-9.57.7a5.55,5.55,0,0,0-.57.61" transform="translate(0 0)"/><path class="cls-3" d="M647.67,131.56a6.12,6.12,0,0,0,.86,1.24l.05.09c2,3,5.56,3.46,8.89,3.38a7.58,7.58,0,0,0,4.9-1.6c1.72-1.47,2.1-3.35,2.41-5.47a8.76,8.76,0,0,0-.74-5c-.83-1.8-2.65-2.84-4.37-3.61-3-1.34-7-1.53-9.57.7a5.44,5.44,0,0,0-.57.6,2.88,2.88,0,0,0-.77,1.14,19.28,19.28,0,0,0-1.23,2.83,7.37,7.37,0,0,0,.14,5.72" transform="translate(0 0)"/><path class="cls-3" d="M687.68,124.7a2.73,2.73,0,0,0-.76,1.15,17.86,17.86,0,0,0-1.24,2.82,7.37,7.37,0,0,0,.14,5.72,6.12,6.12,0,0,0,.86,1.24l.06.09c2,3,5.55,3.46,8.88,3.38a7.62,7.62,0,0,0,4.91-1.6c1.71-1.47,2.09-3.34,2.4-5.47a8.76,8.76,0,0,0-.74-5c-.83-1.8-2.65-2.84-4.37-3.61-3-1.34-7-1.53-9.57.7a5.44,5.44,0,0,0-.57.6" transform="translate(0 0)"/><path class="cls-3" d="M723.52,129.41a2.88,2.88,0,0,0-.77,1.14,19.28,19.28,0,0,0-1.23,2.83,7.37,7.37,0,0,0,.14,5.72,6.41,6.41,0,0,0,.86,1.24l.05.09c2,3,5.56,3.46,8.88,3.38a7.59,7.59,0,0,0,4.91-1.6c1.72-1.47,2.1-3.35,2.41-5.47a8.76,8.76,0,0,0-.75-5c-.83-1.81-2.65-2.84-4.36-3.62-3-1.33-7-1.52-9.57.71a5.44,5.44,0,0,0-.57.6" transform="translate(0 0)"/><path class="cls-3" d="M769.47,139.13a8.76,8.76,0,0,0-.74-5c-.83-1.81-2.65-2.84-4.37-3.62-3-1.33-7-1.52-9.57.71a5.44,5.44,0,0,0-.57.6,2.86,2.86,0,0,0-.76,1.14,18.36,18.36,0,0,0-1.24,2.83,7.41,7.41,0,0,0,.14,5.72,6.88,6.88,0,0,0,.86,1.24l.06.09c2,3,5.56,3.46,8.88,3.38a7.6,7.6,0,0,0,4.91-1.6c1.71-1.47,2.09-3.35,2.4-5.47" transform="translate(0 0)"/><path class="cls-3" d="M798.87,134.44c-3-1.34-7-1.53-9.57.7a4.77,4.77,0,0,0-.57.61,2.81,2.81,0,0,0-.77,1.14,19.19,19.19,0,0,0-1.23,2.82,7.37,7.37,0,0,0,.14,5.72,6.12,6.12,0,0,0,.86,1.24l0,.09c2,3,5.56,3.46,8.89,3.38a7.58,7.58,0,0,0,4.9-1.6c1.72-1.47,2.1-3.34,2.41-5.47a8.76,8.76,0,0,0-.75-5c-.83-1.8-2.65-2.83-4.36-3.61" transform="translate(0 0)"/><path class="cls-3" d="M831.79,133.47c-3-1.33-7-1.53-9.57.71a4.67,4.67,0,0,0-.57.6,2.86,2.86,0,0,0-.76,1.14,18,18,0,0,0-1.24,2.83,7.41,7.41,0,0,0,.14,5.72,6.88,6.88,0,0,0,.86,1.24l.06.09c2,3,5.56,3.46,8.88,3.38a7.56,7.56,0,0,0,4.91-1.61c1.71-1.46,2.09-3.34,2.4-5.47a8.73,8.73,0,0,0-.74-5c-.83-1.81-2.65-2.84-4.37-3.62" transform="translate(0 0)"/><path class="cls-3" d="M852.59,142.45l.06.09c2,3,5.56,3.46,8.88,3.38a7.61,7.61,0,0,0,4.91-1.61c1.71-1.47,2.09-3.34,2.4-5.47a8.73,8.73,0,0,0-.74-5c-.83-1.81-2.65-2.84-4.37-3.62-3-1.33-7-1.53-9.57.71a4.67,4.67,0,0,0-.57.6,2.86,2.86,0,0,0-.76,1.14,18,18,0,0,0-1.24,2.83,7.41,7.41,0,0,0,.14,5.72,6.73,6.73,0,0,0,.86,1.24" transform="translate(0 0)"/><path class="cls-3" d="M899,135.29a8.73,8.73,0,0,0-.75-5c-.83-1.81-2.65-2.84-4.36-3.62-3-1.33-7-1.53-9.57.71a5.44,5.44,0,0,0-.57.6,2.88,2.88,0,0,0-.77,1.14,19.28,19.28,0,0,0-1.23,2.83,7.37,7.37,0,0,0,.14,5.72,6.41,6.41,0,0,0,.86,1.24l0,.09c2,3,5.56,3.46,8.88,3.38a7.59,7.59,0,0,0,4.91-1.6c1.72-1.47,2.1-3.35,2.41-5.48" transform="translate(0 0)"/><path class="cls-3" d="M932.05,122.23c-3-1.34-7-1.53-9.57.7a5.44,5.44,0,0,0-.57.6,2.85,2.85,0,0,0-.77,1.15,18.73,18.73,0,0,0-1.23,2.82,7.37,7.37,0,0,0,.14,5.72,6.12,6.12,0,0,0,.86,1.24l.05.09c2,3,5.56,3.46,8.89,3.38a7.58,7.58,0,0,0,4.9-1.6c1.72-1.47,2.1-3.35,2.41-5.47a8.76,8.76,0,0,0-.75-5c-.83-1.8-2.65-2.84-4.36-3.61" transform="translate(0 0)"/><path class="cls-3" d="M1803.28,61.51A583.32,583.32,0,0,1,1715,62c-12.46-.93-24.93-1.68-37.42-1.89-91.85-9.55-184.84-7.13-276.94-3.51-51.67,2-103.33,4.27-155,5.11-51.27.84-103,1-154.08-3.63-43.63-3.95-87.4-11.06-131.12-9.28V61.32c38.39-1.73,76.94,3.72,115.16,7.76,51,5.4,102.44,5.85,153.66,5.34,103.36-1,206.54-8.5,309.93-8.27q25.06.06,50.14.81a6.16,6.16,0,0,0,3,.87c58.09.06,115.37,12.52,173.46,12.52a343.58,343.58,0,0,0,61.73-5.81c10-1.82,68.47-10.73,69.06-11,8.21-1.11,16.42-1.81,24.65-2.18V48.84a281.58,281.58,0,0,0-30.14,2.79c-.67.08-69.23,8.43-87.81,9.88" transform="translate(0 0)"/><path class="cls-3" d="M993.37,90.88c-3,3-7.59,4.76-11.75,3.51-6.66-2-8.11-10.64-3-15.09,2.44-2.15,11.61-2.84,15.33.93,3.18,3.21,2.51,7.61-.53,10.65m5.1-13.73c-6.22-7.27-19.92-8.71-25.9-1.27-4,5-3.05,9.18-2.6,12.65.54,4.15,4,8,7.61,9.88,6.42,3.3,14.44,1.3,19.52-3.54s6.14-12.15,1.37-17.72" transform="translate(0 0)"/><path class="cls-3" d="M985.71,81.69a3.1,3.1,0,0,0-2.28.12,3.64,3.64,0,0,0-1.22.87l-.48.5a2.41,2.41,0,0,0-.48,1.31,2.57,2.57,0,0,0,.7,1.94,3,3,0,0,0,2,.91,2.9,2.9,0,0,0,.51,0,3,3,0,0,0,1.52-.26l.61-.37a2.59,2.59,0,0,0,.81-1.12,3,3,0,0,0,.24-1.87,2.84,2.84,0,0,0-1.89-2" transform="translate(0 0)"/><path class="cls-3" d="M1025.66,89.63a3.51,3.51,0,0,0,.56,0,3.3,3.3,0,0,0,1.67-.28l.66-.41a2.85,2.85,0,0,0,.89-1.22,3.3,3.3,0,0,0,.26-2,3.13,3.13,0,0,0-2.07-2.22,3.43,3.43,0,0,0-2.5.13,4.05,4.05,0,0,0-1.33,1l-.53.55a2.78,2.78,0,0,0-.53,1.44,2.84,2.84,0,0,0,.77,2.11,3.27,3.27,0,0,0,2.15,1" transform="translate(0 0)"/><path class="cls-3" d="M1018.31,83.73c4-11.3,22.92-2,16.36,7.49a11,11,0,0,1-10.44,4.24,7.32,7.32,0,0,1-4.7-3,9.59,9.59,0,0,1-1.22-8.69m3.8,16.13c6.15,1.79,13.41-1,17-6.23,4.33-6.24.8-14.11-5.31-17.61-5.11-2.92-13-5.09-18.33,1.63-3.63,4.62-4,10.23-1.26,15.68a12.83,12.83,0,0,0,7.87,6.53" transform="translate(0 0)"/><path class="cls-3" d="M1075.13,97.34c-3,3-7.59,4.76-11.75,3.51-6.66-2-8.11-10.65-3.05-15.09,2.45-2.15,11.62-2.84,15.34.92,3.17,3.22,2.5,7.61-.54,10.66m-20.8-15c-4,5-3,9.18-2.6,12.65.54,4.15,4,8,7.61,9.88,6.42,3.3,14.44,1.29,19.52-3.54s6.14-12.15,1.37-17.73c-6.22-7.27-19.92-8.7-25.9-1.26" transform="translate(0 0)"/><path class="cls-3" d="M1067.48,88.15a3.18,3.18,0,0,0-2.29.11,4.06,4.06,0,0,0-1.22.87l-.48.51A2.49,2.49,0,0,0,1063,91a2.6,2.6,0,0,0,.7,1.93,3,3,0,0,0,2.47.91,3,3,0,0,0,1.53-.25l.6-.38a2.73,2.73,0,0,0,.82-1.11,3,3,0,0,0,.23-1.88,2.85,2.85,0,0,0-1.88-2" transform="translate(0 0)"/><path class="cls-3" d="M1107.42,96.08a3.51,3.51,0,0,0,.56,0,3.41,3.41,0,0,0,1.67-.27l.66-.41a2.88,2.88,0,0,0,.89-1.23,3.28,3.28,0,0,0,.26-2,3.15,3.15,0,0,0-2.06-2.22,3.51,3.51,0,0,0-2.51.13,4.32,4.32,0,0,0-1.33,1l-.53.56a2.73,2.73,0,0,0-.52,1.43,2.77,2.77,0,0,0,.77,2.12,3.22,3.22,0,0,0,2.14,1" transform="translate(0 0)"/><path class="cls-3" d="M1100.07,90.19c4-11.3,22.92-2,16.36,7.48a11,11,0,0,1-10.44,4.25,7.35,7.35,0,0,1-4.7-3,9.59,9.59,0,0,1-1.22-8.69m3.8,16.12c6.15,1.8,13.41-1,17-6.22,4.33-6.24.8-14.12-5.31-17.61-5.11-2.92-13-5.09-18.33,1.63-3.63,4.61-4,10.23-1.26,15.68a12.85,12.85,0,0,0,7.87,6.52" transform="translate(0 0)"/><path class="cls-3" d="M1142.1,92.21c2.44-2.14,11.61-2.83,15.33.93,3.17,3.21,2.5,7.61-.54,10.66s-7.59,4.75-11.75,3.5c-6.66-2-8.11-10.64-3-15.09m-1,19.11c6.42,3.3,14.44,1.3,19.52-3.54s6.14-12.15,1.37-17.72c-6.22-7.27-19.92-8.7-25.9-1.27-4,5-3,9.18-2.6,12.65.54,4.15,4,8,7.61,9.88" transform="translate(0 0)"/><path class="cls-3" d="M1147.43,100.26a4.6,4.6,0,0,0,.52,0,3.08,3.08,0,0,0,1.52-.26l.6-.37a2.7,2.7,0,0,0,.82-1.12,3,3,0,0,0,.23-1.87,2.89,2.89,0,0,0-1.88-2,3.18,3.18,0,0,0-2.29.12,3.74,3.74,0,0,0-1.22.87l-.48.5a2.54,2.54,0,0,0,.22,3.25,3,3,0,0,0,2,.92" transform="translate(0 0)"/><path class="cls-3" d="M1189.24,104.37a2.74,2.74,0,0,0,.56-.06,3.19,3.19,0,0,0,1.63-.41l.63-.46a2.86,2.86,0,0,0,.79-1.3,3.23,3.23,0,0,0,.09-2.06,3.12,3.12,0,0,0-2.24-2,3.48,3.48,0,0,0-2.49.33,4.07,4.07,0,0,0-1.24,1.06l-.49.6a2.71,2.71,0,0,0-.4,1.47,2.8,2.8,0,0,0,.94,2,3.24,3.24,0,0,0,2.22.83" transform="translate(0 0)"/><path class="cls-3" d="M1181.43,99.1c3.1-11.6,22.68-3.83,16.92,6.11a11,11,0,0,1-10.06,5.09,7.32,7.32,0,0,1-4.93-2.64,9.57,9.57,0,0,1-1.93-8.56m5.11,15.75c6.28,1.29,13.28-2.11,16.46-7.6,3.81-6.58-.36-14.13-6.74-17.11-5.33-2.5-13.42-4-18.13,3.13-3.24,4.9-3.13,10.52,0,15.73a12.83,12.83,0,0,0,8.38,5.85" transform="translate(0 0)"/><path class="cls-3" d="M1223.48,97.66c2.25-2.34,11.34-3.78,15.35-.34,3.43,2.94,3.13,7.38.35,10.66s-7.18,5.37-11.43,4.46c-6.8-1.44-9-9.93-4.27-14.78m.58,19.13c6.67,2.75,14.49.1,19.16-5.14s5.12-12.61-.09-17.78c-6.8-6.73-20.57-7-25.92.87-3.57,5.29-2.28,9.4-1.55,12.83.88,4.09,4.63,7.66,8.4,9.22" transform="translate(0 0)"/><path class="cls-3" d="M1229.46,105.24a4.87,4.87,0,0,0,.51,0,3.09,3.09,0,0,0,1.49-.38l.58-.42a2.75,2.75,0,0,0,.72-1.19,3,3,0,0,0,.08-1.88,2.88,2.88,0,0,0-2-1.87,3.21,3.21,0,0,0-2.27.31,3.77,3.77,0,0,0-1.14,1l-.44.55a2.53,2.53,0,0,0-.37,1.34,2.57,2.57,0,0,0,.86,1.87,3,3,0,0,0,2,.76" transform="translate(0 0)"/><path class="cls-3" d="M1268.81,103.86a3.29,3.29,0,0,0,2.25.76,3.76,3.76,0,0,0,.55-.07,3.45,3.45,0,0,0,1.63-.46l.61-.48a2.92,2.92,0,0,0,.75-1.32,3.26,3.26,0,0,0,0-2.07,3.15,3.15,0,0,0-2.3-2,3.42,3.42,0,0,0-2.48.41,4.06,4.06,0,0,0-1.21,1.09l-.47.61a2.77,2.77,0,0,0-.36,1.49,2.8,2.8,0,0,0,1,2" transform="translate(0 0)"/><path class="cls-3" d="M1263.09,99.58c2.76-11.68,22.56-4.5,17.1,5.61a11,11,0,0,1-9.9,5.39,7.32,7.32,0,0,1-5-2.5,9.59,9.59,0,0,1-2.19-8.5m5.58,15.6c6.31,1.1,13.21-2.51,16.23-8.09,3.61-6.69-.78-14.12-7.25-16.91-5.4-2.33-13.53-3.59-18,3.68-3.09,5-2.81,10.61.5,15.72a12.83,12.83,0,0,0,8.55,5.6" transform="translate(0 0)"/><path class="cls-3" d="M1305.08,96.89c2.19-2.4,11.22-4.11,15.34-.79,3.51,2.84,3.34,7.28.66,10.65s-7,5.58-11.29,4.8c-6.84-1.25-9.25-9.67-4.71-14.66m1.15,19.11c6.75,2.56,14.49-.33,19-5.71s4.75-12.76-.62-17.76c-7-6.53-20.77-6.42-25.88,1.64-3.41,5.39-2,9.46-1.17,12.86,1,4.06,4.86,7.53,8.67,9" transform="translate(0 0)"/><path class="cls-3" d="M1309.23,103.6a4.14,4.14,0,0,0,4,.2l.56-.44a2.67,2.67,0,0,0,.68-1.2,3,3,0,0,0,0-1.89,2.88,2.88,0,0,0-2.11-1.8,3.2,3.2,0,0,0-2.26.37,3.93,3.93,0,0,0-1.11,1l-.42.56a2.48,2.48,0,0,0-.33,1.36,2.58,2.58,0,0,0,.91,1.84" transform="translate(0 0)"/><path class="cls-3" d="M1351.75,100.75a3.22,3.22,0,0,0,2.24.76,3.73,3.73,0,0,0,.56-.07,3.3,3.3,0,0,0,1.62-.46l.61-.48a2.82,2.82,0,0,0,.75-1.32,3.23,3.23,0,0,0,0-2.06,3.14,3.14,0,0,0-2.3-2,3.45,3.45,0,0,0-2.47.41,4.24,4.24,0,0,0-1.22,1.09l-.46.61a2.87,2.87,0,0,0-.37,1.49,2.81,2.81,0,0,0,1,2" transform="translate(0 0)"/><path class="cls-3" d="M1346,96.47c2.75-11.68,22.55-4.49,17.1,5.61a11,11,0,0,1-9.91,5.39,7.34,7.34,0,0,1-5-2.5,9.59,9.59,0,0,1-2.18-8.5m5.57,15.6c6.31,1.1,13.22-2.51,16.23-8.08,3.61-6.69-.78-14.12-7.24-16.91-5.41-2.33-13.54-3.6-18,3.67-3.08,5-2.81,10.61.5,15.72a12.85,12.85,0,0,0,8.55,5.6" transform="translate(0 0)"/><path class="cls-3" d="M1404,103.65c-2.64,3.3-7,5.57-11.29,4.79-6.85-1.24-9.25-9.66-4.72-14.65,2.19-2.41,11.23-4.12,15.34-.79,3.52,2.84,3.34,7.28.67,10.65m3.53-14.23c-7-6.52-20.78-6.42-25.88,1.64-3.42,5.39-2,9.46-1.17,12.87,1,4.06,4.85,7.52,8.66,9,6.75,2.56,14.49-.32,19-5.7s4.74-12.76-.62-17.77" transform="translate(0 0)"/><path class="cls-3" d="M1395.38,95.37a3.14,3.14,0,0,0-2.26.37,3.65,3.65,0,0,0-1.11,1l-.42.55a2.51,2.51,0,0,0-.34,1.36,2.57,2.57,0,0,0,.92,1.84,2.89,2.89,0,0,0,2,.69,2.35,2.35,0,0,0,.51-.06,3,3,0,0,0,1.48-.42l.56-.44a2.58,2.58,0,0,0,.68-1.2,3,3,0,0,0,0-1.89,2.84,2.84,0,0,0-2.1-1.8" transform="translate(0 0)"/><path class="cls-3" d="M1436.63,95.73a3.5,3.5,0,0,0-2.38.81,4.22,4.22,0,0,0-1,1.29l-.36.67a2.76,2.76,0,0,0,1.22,3.35,3.23,3.23,0,0,0,2.34.37,2.89,2.89,0,0,0,.53-.16,3.3,3.3,0,0,0,1.52-.72l.53-.58a2.92,2.92,0,0,0,.52-1.42,3.27,3.27,0,0,0-.31-2,3.15,3.15,0,0,0-2.6-1.57" transform="translate(0 0)"/><path class="cls-3" d="M1445.54,101.27a11,11,0,0,1-8.88,7,7.36,7.36,0,0,1-5.35-1.63,9.61,9.61,0,0,1-3.57-8c.78-12,21.5-8.18,17.8,2.69m-5-14.38c-5.71-1.4-13.94-1.29-17.17,6.62-2.22,5.44-1,10.93,3.1,15.42a12.87,12.87,0,0,0,9.36,4.11c6.41,0,12.62-4.67,14.66-10.67,2.45-7.2-3.11-13.8-10-15.48" transform="translate(0 0)"/><path class="cls-3" d="M1468.7,89c1.76-2.74,10.38-5.93,15-3.33,3.94,2.21,4.5,6.63,2.42,10.39s-6,6.66-10.34,6.6c-7-.09-10.72-8-7.08-13.66m4.31,18.65c7.08,1.4,14.23-2.73,17.79-8.78s2.56-13.38-3.56-17.42c-8-5.28-21.55-2.88-25.25,5.91-2.47,5.88-.4,9.67,1,12.88,1.66,3.84,6,6.62,10,7.41" transform="translate(0 0)"/><path class="cls-3" d="M1473.91,94.88a3,3,0,0,0,2.14.34,2.48,2.48,0,0,0,.49-.15,3,3,0,0,0,1.39-.66l.48-.53a2.64,2.64,0,0,0,.48-1.3,3,3,0,0,0-.29-1.86,2.86,2.86,0,0,0-2.37-1.43,3.12,3.12,0,0,0-2.17.74,3.65,3.65,0,0,0-.93,1.17l-.32.62a2.54,2.54,0,0,0-.11,1.39,2.61,2.61,0,0,0,1.21,1.67" transform="translate(0 0)"/><path class="cls-3" d="M1515.05,92a3.51,3.51,0,0,0,.56,0,3.41,3.41,0,0,0,1.67-.27l.66-.41a2.88,2.88,0,0,0,.89-1.23,3.21,3.21,0,0,0,.26-2A3.15,3.15,0,0,0,1517,85.8a3.51,3.51,0,0,0-2.51.13,4.44,4.44,0,0,0-1.33.95l-.53.56a2.73,2.73,0,0,0-.52,1.43,2.79,2.79,0,0,0,.77,2.12,3.22,3.22,0,0,0,2.14,1" transform="translate(0 0)"/><path class="cls-3" d="M1507.7,86.09c4-11.29,22.92-1.94,16.37,7.49a11,11,0,0,1-10.45,4.25,7.38,7.38,0,0,1-4.7-3,9.62,9.62,0,0,1-1.22-8.7m3.8,16.13c6.15,1.8,13.41-1,17-6.22,4.33-6.24.8-14.12-5.31-17.61-5.11-2.93-13-5.09-18.33,1.63-3.62,4.61-4,10.23-1.26,15.68a12.88,12.88,0,0,0,7.87,6.52" transform="translate(0 0)"/><path class="cls-3" d="M1549.73,88.12c2.44-2.14,11.61-2.83,15.33.93,3.17,3.21,2.5,7.61-.54,10.66s-7.59,4.75-11.75,3.5c-6.66-2-8.11-10.64-3-15.09m-1,19.11c6.42,3.3,14.44,1.3,19.52-3.54s6.15-12.15,1.37-17.72c-6.21-7.27-19.92-8.7-25.89-1.27-4,5-3,9.18-2.61,12.65.54,4.15,4,8,7.61,9.88" transform="translate(0 0)"/><path class="cls-3" d="M1555.06,96.17a4.56,4.56,0,0,0,.52,0,3.08,3.08,0,0,0,1.52-.26l.6-.37a2.54,2.54,0,0,0,.82-1.12,2.94,2.94,0,0,0,.23-1.87,2.85,2.85,0,0,0-1.88-2,3.18,3.18,0,0,0-2.29.12,3.7,3.7,0,0,0-1.21.87l-.49.5a2.54,2.54,0,0,0,.22,3.25,3,3,0,0,0,2,.92" transform="translate(0 0)"/><path class="cls-3" d="M1594.05,96.79a5.14,5.14,0,0,0,.55,0,3.3,3.3,0,0,0,1.67-.28l.66-.41a2.82,2.82,0,0,0,.89-1.22,3.16,3.16,0,0,0,.26-2.05A3.12,3.12,0,0,0,1596,90.6a3.46,3.46,0,0,0-2.51.13,4.12,4.12,0,0,0-1.32,1l-.53.55a2.7,2.7,0,0,0-.53,1.44,2.8,2.8,0,0,0,.77,2.11,3.23,3.23,0,0,0,2.15,1" transform="translate(0 0)"/><path class="cls-3" d="M1586.69,90.89c4-11.3,22.92-2,16.37,7.48a11,11,0,0,1-10.45,4.25,7.38,7.38,0,0,1-4.7-3,9.59,9.59,0,0,1-1.22-8.69m3.8,16.12c6.15,1.8,13.41-1,17-6.22,4.34-6.24.8-14.12-5.31-17.61-5.11-2.92-13-5.09-18.33,1.63-3.62,4.62-4,10.23-1.26,15.68a12.85,12.85,0,0,0,7.87,6.52" transform="translate(0 0)"/><path class="cls-3" d="M1626.71,89.33c2.61-1.94,11.81-1.88,15.21,2.18,2.9,3.46,1.87,7.79-1.4,10.58s-8,4.12-12,2.53c-6.47-2.54-7.21-11.27-1.8-15.29m-2.55,19c6.13,3.81,14.28,2.47,19.74-1.93s7.12-11.61,2.82-17.56c-5.6-7.75-19.14-10.3-25.71-3.38-4.39,4.63-3.79,8.9-3.62,12.4.19,4.18,3.31,8.32,6.77,10.47" transform="translate(0 0)"/><path class="cls-3" d="M1631.38,97.78a2.78,2.78,0,0,0,.51,0,3,3,0,0,0,1.53-.13l.64-.32a2.69,2.69,0,0,0,.9-1.05,3,3,0,0,0,.39-1.85,2.86,2.86,0,0,0-1.71-2.17,3.13,3.13,0,0,0-2.29-.07,3.69,3.69,0,0,0-1.28.76l-.53.47a2.51,2.51,0,0,0,0,3.25,3,3,0,0,0,1.88,1.07" transform="translate(0 0)"/><path class="cls-3" d="M1670.18,101.59a3.24,3.24,0,0,0,.55,0,3.34,3.34,0,0,0,1.69-.14l.69-.35a3,3,0,0,0,1-1.15,3.32,3.32,0,0,0,.43-2,3.14,3.14,0,0,0-1.88-2.38,3.5,3.5,0,0,0-2.51-.08,4.09,4.09,0,0,0-1.4.84l-.57.51a2.76,2.76,0,0,0-.65,1.39,2.84,2.84,0,0,0,.6,2.17,3.2,3.2,0,0,0,2.06,1.17" transform="translate(0 0)"/><path class="cls-3" d="M1663.33,95.11c5-10.93,23-.06,15.7,8.81a11,11,0,0,1-10.76,3.37,7.33,7.33,0,0,1-4.43-3.41,9.59,9.59,0,0,1-.51-8.77m2.46,16.39c6,2.29,13.46.08,17.49-4.81,4.83-5.87,2-14-3.85-18-4.85-3.33-12.59-6.14-18.4.13-4,4.3-4.81,9.86-2.55,15.52a12.91,12.91,0,0,0,7.31,7.15" transform="translate(0 0)"/><path class="cls-3" d="M1706.06,98.48c2.61-1.94,11.8-1.88,15.2,2.18,2.9,3.46,1.88,7.79-1.4,10.58s-8,4.11-12,2.53c-6.48-2.54-7.21-11.27-1.8-15.29m-2.56,19c6.13,3.81,14.29,2.47,19.75-1.94s7.11-11.6,2.82-17.55c-5.61-7.75-19.15-10.3-25.71-3.38-4.39,4.63-3.79,8.9-3.63,12.4.19,4.17,3.31,8.32,6.77,10.47" transform="translate(0 0)"/><path class="cls-3" d="M1819.94,102.55c3.7-11.42,22.85-2.65,16.59,7a11,11,0,0,1-10.31,4.57,7.35,7.35,0,0,1-4.79-2.9,9.59,9.59,0,0,1-1.49-8.65m4.29,16c6.2,1.61,13.37-1.43,16.83-6.74,4.15-6.37.37-14.14-5.84-17.44-5.2-2.77-13.2-4.69-18.27,2.19-3.49,4.73-3.67,10.35-.79,15.71a12.87,12.87,0,0,0,8.07,6.28" transform="translate(0 0)"/><path class="cls-3" d="M1710.72,106.93a2.78,2.78,0,0,0,.51,0,3,3,0,0,0,1.54-.13l.63-.32a2.64,2.64,0,0,0,.91-1,2.92,2.92,0,0,0,.38-1.85,2.84,2.84,0,0,0-1.71-2.17,3.12,3.12,0,0,0-2.29-.07,3.88,3.88,0,0,0-1.28.76l-.52.47a2.41,2.41,0,0,0-.59,1.26,2.59,2.59,0,0,0,.54,2,3,3,0,0,0,1.88,1.07" transform="translate(0 0)"/><path class="cls-3" d="M1749.52,110.74a3.28,3.28,0,0,0,.56,0,3.21,3.21,0,0,0,1.68-.14l.69-.35a2.82,2.82,0,0,0,1-1.15,3.25,3.25,0,0,0,.43-2,3.12,3.12,0,0,0-1.88-2.38,3.5,3.5,0,0,0-2.51-.08,4.18,4.18,0,0,0-1.4.84l-.57.51a2.66,2.66,0,0,0-.64,1.39,2.83,2.83,0,0,0,.59,2.17,3.25,3.25,0,0,0,2.06,1.17" transform="translate(0 0)"/><path class="cls-3" d="M1742.67,104.26c5-10.93,23-.06,15.7,8.8a11,11,0,0,1-10.76,3.38,7.36,7.36,0,0,1-4.43-3.41,9.62,9.62,0,0,1-.51-8.77m2.47,16.39c6,2.29,13.45.08,17.48-4.81,4.83-5.87,2-14-3.85-18-4.85-3.33-12.59-6.14-18.4.13-4,4.3-4.81,9.86-2.54,15.52a12.85,12.85,0,0,0,7.31,7.15" transform="translate(0 0)"/><path class="cls-3" d="M1782.91,100.91c2.37-2.21,11.52-3.18,15.35.46,3.27,3.12,2.74,7.53-.21,10.67s-7.44,5-11.64,3.86c-6.72-1.79-8.43-10.38-3.5-15m-.41,19.14c6.52,3.1,14.47.85,19.4-4.14s5.77-12.33.83-17.76c-6.44-7.07-20.18-8.08-25.93-.47-3.84,5.1-2.76,9.27-2.21,12.73.66,4.13,4.23,7.89,7.91,9.64" transform="translate(0 0)"/><path class="cls-3" d="M1788.49,108.79a3,3,0,0,0,.51,0,3,3,0,0,0,1.51-.3l.6-.39a2.68,2.68,0,0,0,.78-1.15,3,3,0,0,0,.18-1.87,2.86,2.86,0,0,0-2-2,3.19,3.19,0,0,0-2.29.18,3.85,3.85,0,0,0-1.18.91l-.47.52a2.51,2.51,0,0,0-.44,1.33,2.59,2.59,0,0,0,.76,1.91,3,3,0,0,0,2,.85" transform="translate(0 0)"/><path class="cls-3" d="M1827.47,108.22a2.67,2.67,0,0,0,.56,0,3.24,3.24,0,0,0,1.65-.32l.66-.43a2.88,2.88,0,0,0,.85-1.26,3.28,3.28,0,0,0,.2-2.05,3.16,3.16,0,0,0-2.14-2.16,3.44,3.44,0,0,0-2.5.21,4,4,0,0,0-1.29,1l-.52.57a2.7,2.7,0,0,0-.48,1.45,2.82,2.82,0,0,0,.83,2.09,3.26,3.26,0,0,0,2.18.94" transform="translate(0 0)"/><path class="cls-3" d="M1858.38,90.21c2.16-2.43,11.17-4.25,15.32-1,3.55,2.8,3.43,7.24.79,10.64s-7,5.65-11.23,4.93c-6.86-1.17-9.36-9.56-4.88-14.6m1.36,19.09c6.78,2.48,14.49-.5,18.94-5.92s4.6-12.82-.82-17.76c-7.07-6.45-20.85-6.18-25.86,1.93-3.35,5.43-1.9,9.49-1,12.88,1,4,4.94,7.47,8.76,8.87" transform="translate(0 0)"/><path class="cls-3" d="M1862.61,96.86a3,3,0,0,0,2.06.67,3,3,0,0,0,.5-.07,3,3,0,0,0,1.48-.44l.56-.44a2.73,2.73,0,0,0,.67-1.21,3,3,0,0,0,0-1.89,2.87,2.87,0,0,0-2.12-1.78,3.15,3.15,0,0,0-2.26.4,3.75,3.75,0,0,0-1.09,1l-.42.56a2.51,2.51,0,0,0-.32,1.36,2.55,2.55,0,0,0,.94,1.83" transform="translate(0 0)"/><path class="cls-3" d="M1901.17,92.61a3.24,3.24,0,0,0,2.26.73,3.76,3.76,0,0,0,.55-.07,3.32,3.32,0,0,0,1.62-.48l.61-.49a3,3,0,0,0,.73-1.33,3.23,3.23,0,0,0,0-2.06,3.11,3.11,0,0,0-2.32-2,3.41,3.41,0,0,0-2.47.44,4.07,4.07,0,0,0-1.2,1.1l-.46.62a2.74,2.74,0,0,0,.68,3.49" transform="translate(0 0)"/><path class="cls-3" d="M1895.4,88.4c2.63-11.71,22.51-4.76,17.17,5.41a11,11,0,0,1-9.85,5.5,7.29,7.29,0,0,1-5-2.44,9.6,9.6,0,0,1-2.29-8.47m-3.53-5.69c-3,5-2.7,10.64.67,15.72a12.89,12.89,0,0,0,8.62,5.5c6.32,1,13.18-2.66,16.13-8.27,3.54-6.73-.94-14.11-7.44-16.83-5.43-2.27-13.57-3.44-18,3.88" transform="translate(0 0)"/><path class="cls-3" d="M971.67,9.68c-1.24-.86-11.77,10.35-1.4,31.14.7,1.42,2.41,2.66,3.46,2,.95.18,2-1.63,2.69-2.67,6.29-9.76,5.19-23.51-4.75-30.42" transform="translate(0 0)"/><path class="cls-3" d="M1879.27,40.36c1,.18,2-1.63,2.69-2.66,6.3-9.77,5.2-23.52-4.75-30.43-1.23-.86-11.76,10.35-1.4,31.15.71,1.41,2.42,2.65,3.46,1.94" transform="translate(0 0)"/><path class="cls-3" d="M1904.56,40.36c1,.18,2-1.63,2.69-2.66,6.29-9.77,5.2-23.52-4.75-30.43-1.23-.86-11.76,10.35-1.4,31.15.7,1.41,2.41,2.65,3.46,1.94" transform="translate(0 0)"/><path class="cls-3" d="M996.3,9.68c-1.23-.86-11.76,10.35-1.4,31.14.71,1.42,2.42,2.66,3.46,2,.95.18,2-1.63,2.69-2.67,6.3-9.76,5.2-23.51-4.75-30.42" transform="translate(0 0)"/><path class="cls-3" d="M1020.94,9.68c-1.23-.86-11.76,10.35-1.4,31.14.7,1.42,2.41,2.66,3.46,2,1,.18,2-1.63,2.69-2.67,6.29-9.76,5.19-23.51-4.75-30.42" transform="translate(0 0)"/><path class="cls-3" d="M1045.58,9.68c-1.24-.86-11.77,10.35-1.4,31.14.7,1.42,2.41,2.66,3.46,2,.95.18,2-1.63,2.69-2.67,6.29-9.76,5.19-23.51-4.75-30.42" transform="translate(0 0)"/><path class="cls-3" d="M1070.21,9.68c-1.23-.86-11.76,10.35-1.4,31.14.71,1.42,2.42,2.66,3.46,2,1,.18,2-1.63,2.69-2.67,6.3-9.76,5.2-23.51-4.75-30.42" transform="translate(0 0)"/><path class="cls-3" d="M1094.85,9.68c-1.23-.86-11.76,10.35-1.4,31.14.7,1.42,2.41,2.66,3.46,2,.95.18,2-1.63,2.69-2.67,6.29-9.76,5.2-23.51-4.75-30.42" transform="translate(0 0)"/><path class="cls-3" d="M1119.49,12.42c-1.23-.85-11.76,10.36-1.4,31.15.7,1.41,2.41,2.65,3.46,1.94,1,.18,2-1.62,2.69-2.66,6.29-9.76,5.19-23.52-4.75-30.43" transform="translate(0 0)"/><path class="cls-3" d="M1145.33,12.47c-1.23-.85-11.76,10.35-1.4,31.15.7,1.41,2.41,2.65,3.46,1.94.95.18,2-1.63,2.69-2.66,6.29-9.76,5.19-23.52-4.75-30.43" transform="translate(0 0)"/><path class="cls-3" d="M1167.56,10.52c-1.23-.85-11.76,10.35-1.4,31.15.7,1.41,2.41,2.65,3.46,1.94,1,.18,2-1.63,2.69-2.66,6.29-9.76,5.19-23.52-4.75-30.43" transform="translate(0 0)"/><path class="cls-3" d="M1193.4,11.51c-1.23-.86-11.76,10.35-1.4,31.14.7,1.41,2.41,2.66,3.46,1.94,1,.18,2-1.62,2.69-2.66,6.29-9.76,5.19-23.52-4.75-30.42" transform="translate(0 0)"/><path class="cls-3" d="M1218,14.25c-1.24-.86-11.77,10.35-1.4,31.15.7,1.41,2.41,2.65,3.46,1.94,1,.18,2-1.63,2.69-2.66,6.29-9.77,5.19-23.52-4.75-30.43" transform="translate(0 0)"/><path class="cls-3" d="M1242.67,9.82c-1.23-.86-11.76,10.35-1.4,31.15.71,1.41,2.42,2.65,3.46,1.94,1,.18,2-1.63,2.69-2.67,6.3-9.76,5.2-23.51-4.75-30.42" transform="translate(0 0)"/><path class="cls-3" d="M1268.51,15c-1.23-.85-11.76,10.35-1.4,31.15.71,1.41,2.42,2.65,3.46,1.94,1,.18,2-1.63,2.69-2.66,6.3-9.76,5.2-23.52-4.75-30.43" transform="translate(0 0)"/><path class="cls-3" d="M1294,43.05c1,.18,2-1.62,2.69-2.66,6.29-9.76,5.19-23.52-4.75-30.42-1.23-.86-11.77,10.35-1.4,31.14.7,1.42,2.41,2.66,3.46,1.94" transform="translate(0 0)"/><path class="cls-3" d="M1319.85,41.73c1,.18,2-1.63,2.69-2.66,6.29-9.76,5.19-23.52-4.75-30.43-1.23-.85-11.76,10.35-1.4,31.15.7,1.41,2.41,2.65,3.46,1.94" transform="translate(0 0)"/><path class="cls-3" d="M1345.69,38.7c1,.18,2-1.63,2.69-2.67,6.29-9.76,5.19-23.51-4.75-30.42-1.23-.86-11.76,10.35-1.4,31.14.7,1.42,2.41,2.66,3.46,2" transform="translate(0 0)"/><path class="cls-3" d="M1367.92,39.8c.95.18,2-1.62,2.69-2.66,6.29-9.76,5.19-23.52-4.75-30.42-1.23-.86-11.76,10.35-1.4,31.14.7,1.42,2.41,2.66,3.46,1.94" transform="translate(0 0)"/><path class="cls-3" d="M1395,34.94c1,.18,2-1.63,2.69-2.66,6.3-9.76,5.2-23.52-4.75-30.43-1.23-.85-11.76,10.35-1.4,31.15.71,1.41,2.42,2.65,3.46,1.94" transform="translate(0 0)"/><path class="cls-3" d="M1419.6,36.79c1,.18,2-1.62,2.69-2.66,6.29-9.76,5.2-23.52-4.75-30.42-1.23-.86-11.76,10.35-1.4,31.14.7,1.42,2.42,2.66,3.46,1.94" transform="translate(0 0)"/><path class="cls-3" d="M1444.24,34.34c1,.18,2-1.63,2.69-2.66,6.29-9.77,5.19-23.52-4.75-30.43-1.24-.86-11.77,10.35-1.4,31.15.7,1.41,2.41,2.65,3.46,1.94" transform="translate(0 0)"/><path class="cls-3" d="M1466.47,33.13c1,.18,2-1.62,2.69-2.66,6.29-9.76,5.19-23.52-4.75-30.42-1.24-.86-11.77,10.35-1.4,31.14.7,1.42,2.41,2.66,3.46,1.94" transform="translate(0 0)"/><path class="cls-3" d="M1491.1,37.73c1,.18,2-1.62,2.69-2.66,6.3-9.76,5.2-23.52-4.75-30.42-1.23-.86-11.76,10.35-1.4,31.14.71,1.41,2.42,2.66,3.46,1.94" transform="translate(0 0)"/><path class="cls-3" d="M1515.74,34.53c1,.18,2-1.63,2.69-2.66,6.29-9.76,5.19-23.52-4.75-30.43-1.23-.85-11.76,10.35-1.4,31.15.7,1.41,2.41,2.65,3.46,1.94" transform="translate(0 0)"/><path class="cls-3" d="M1540.38,34.07c.95.18,2-1.62,2.69-2.66,6.29-9.76,5.19-23.52-4.75-30.42-1.24-.86-11.77,10.35-1.4,31.14.7,1.41,2.41,2.66,3.46,1.94" transform="translate(0 0)"/><path class="cls-3" d="M1565,40.09c1,.18,2-1.62,2.69-2.66,6.3-9.76,5.2-23.52-4.75-30.42-1.23-.86-11.76,10.35-1.4,31.14.71,1.41,2.42,2.66,3.46,1.94" transform="translate(0 0)"/><path class="cls-3" d="M1589.65,40.55c.95.18,2-1.63,2.69-2.66,6.29-9.76,5.19-23.52-4.75-30.43-1.23-.85-11.76,10.35-1.4,31.15.7,1.41,2.41,2.65,3.46,1.94" transform="translate(0 0)"/><path class="cls-3" d="M1612.17,42.18c.95.18,2-1.63,2.69-2.66,6.29-9.76,5.19-23.52-4.75-30.43-1.23-.85-11.76,10.35-1.4,31.15.71,1.41,2.41,2.65,3.46,1.94" transform="translate(0 0)"/><path class="cls-3" d="M1637.36,41.94c1,.18,2-1.63,2.69-2.66,6.3-9.77,5.2-23.52-4.75-30.43-1.23-.86-11.76,10.35-1.4,31.15.71,1.41,2.42,2.65,3.46,1.94" transform="translate(0 0)"/><path class="cls-3" d="M1664.76,46.45c1,.18,2-1.63,2.69-2.66,6.3-9.76,5.2-23.52-4.75-30.43-1.23-.85-11.76,10.35-1.4,31.15.71,1.41,2.42,2.65,3.46,1.94" transform="translate(0 0)"/><path class="cls-3" d="M1691,47c1,.1,1.87-1.79,2.45-2.88,5.43-10.27,3.16-23.88-7.34-29.91-1.31-.74-10.83,11.33,1.27,31.16.83,1.34,2.64,2.43,3.62,1.63" transform="translate(0 0)"/><path class="cls-3" d="M1715.49,49.68c1,.09,1.88-1.8,2.46-2.89,5.43-10.26,3.15-23.87-7.35-29.9-1.3-.75-10.83,11.32,1.28,31.15.82,1.35,2.63,2.44,3.61,1.64" transform="translate(0 0)"/><path class="cls-3" d="M1740.62,51.16c1,.1,1.88-1.79,2.45-2.88,5.44-10.27,3.16-23.88-7.34-29.91-1.3-.74-10.83,11.33,1.28,31.16.82,1.34,2.63,2.43,3.61,1.63" transform="translate(0 0)"/><path class="cls-3" d="M1767,52.67c1,.1,1.88-1.79,2.45-2.88,5.44-10.27,3.16-23.88-7.34-29.91-1.3-.74-10.83,11.33,1.28,31.15.82,1.35,2.63,2.44,3.61,1.64" transform="translate(0 0)"/><path class="cls-3" d="M1786.74,42.77c1,.18,2-1.63,2.69-2.67,6.3-9.76,5.2-23.51-4.75-30.42-1.23-.86-11.76,10.35-1.4,31.14.71,1.42,2.42,2.66,3.46,2" transform="translate(0 0)"/><path class="cls-3" d="M1811.38,42.77c.95.18,2-1.63,2.69-2.67,6.29-9.76,5.2-23.51-4.75-30.42-1.23-.86-11.76,10.35-1.4,31.14.71,1.42,2.42,2.66,3.46,2" transform="translate(0 0)"/><path class="cls-3" d="M1834.84,41.59c1,.18,2-1.62,2.69-2.66,6.3-9.76,5.2-23.52-4.75-30.42-1.23-.86-11.76,10.35-1.4,31.14.71,1.41,2.42,2.66,3.46,1.94" transform="translate(0 0)"/><path class="cls-3" d="M1858.31,40.42c1,.18,2-1.63,2.69-2.66,6.29-9.76,5.19-23.52-4.75-30.43-1.23-.85-11.76,10.35-1.4,31.15.7,1.41,2.41,2.65,3.46,1.94" transform="translate(0 0)"/><path class="cls-3" d="M997.19,132.87a7.59,7.59,0,0,0,4.91-1.6c1.72-1.47,2.09-3.35,2.41-5.47a8.85,8.85,0,0,0-.75-5c-.83-1.8-2.65-2.84-4.37-3.61-2.95-1.34-7-1.53-9.56.7a4.71,4.71,0,0,0-.58.6,3,3,0,0,0-.76,1.14,19.38,19.38,0,0,0-1.24,2.83,7.37,7.37,0,0,0,.15,5.72,6.49,6.49,0,0,0,.85,1.24l.06.09c2,3,5.56,3.46,8.88,3.38" transform="translate(0 0)"/><path class="cls-3" d="M961.25,127.23a7.59,7.59,0,0,0,4.91-1.6c1.72-1.47,2.1-3.35,2.41-5.47a8.76,8.76,0,0,0-.75-5c-.83-1.8-2.65-2.84-4.37-3.61a11.06,11.06,0,0,0-3.11-.9v16.61h.91" transform="translate(0 0)"/><path class="cls-3" d="M1915.37,112.23a5.44,5.44,0,0,0-.57.6A2.88,2.88,0,0,0,1914,114a19.28,19.28,0,0,0-1.23,2.83,7.37,7.37,0,0,0,.14,5.72,6.12,6.12,0,0,0,.86,1.24l0,.09c1.8,2.73,4.92,3.35,8,3.39V110.63a8.08,8.08,0,0,0-6.45,1.6" transform="translate(0 0)"/><path class="cls-3" d="M1042,126.11c-.84-1.81-2.65-2.84-4.37-3.62-3-1.33-7-1.53-9.57.71a4.67,4.67,0,0,0-.57.6,2.88,2.88,0,0,0-.77,1.14,18.83,18.83,0,0,0-1.23,2.83,7.37,7.37,0,0,0,.14,5.72,6.41,6.41,0,0,0,.86,1.24l0,.09c2,3,5.56,3.46,8.89,3.38a7.53,7.53,0,0,0,4.9-1.61c1.72-1.46,2.1-3.34,2.41-5.47a8.73,8.73,0,0,0-.74-5" transform="translate(0 0)"/><path class="cls-3" d="M1077.09,125.58c-3-1.34-7-1.53-9.57.71a4.67,4.67,0,0,0-.57.6,2.86,2.86,0,0,0-.76,1.14,18,18,0,0,0-1.24,2.83,7.35,7.35,0,0,0,.14,5.71,6.47,6.47,0,0,0,.86,1.25l.06.08c2,3,5.55,3.46,8.88,3.39a7.63,7.63,0,0,0,4.91-1.61c1.71-1.47,2.09-3.34,2.4-5.47a8.73,8.73,0,0,0-.74-5c-.83-1.81-2.65-2.84-4.37-3.62" transform="translate(0 0)"/><path class="cls-3" d="M1116.38,128.61c-3-1.34-7-1.53-9.57.7a4.77,4.77,0,0,0-.57.61,2.79,2.79,0,0,0-.76,1.14,18.27,18.27,0,0,0-1.24,2.82,7.41,7.41,0,0,0,.14,5.72,6.54,6.54,0,0,0,.86,1.24l.06.09c2,3,5.56,3.46,8.88,3.38a7.6,7.6,0,0,0,4.91-1.6c1.71-1.47,2.09-3.34,2.4-5.47a8.76,8.76,0,0,0-.74-5c-.83-1.8-2.65-2.83-4.37-3.61" transform="translate(0 0)"/><path class="cls-3" d="M1154.53,131.26a4.67,4.67,0,0,0-.57.6,2.86,2.86,0,0,0-.76,1.14,18.36,18.36,0,0,0-1.24,2.83,7.41,7.41,0,0,0,.14,5.72,6.41,6.41,0,0,0,.86,1.24l.06.09c2,3,5.56,3.46,8.88,3.38a7.6,7.6,0,0,0,4.91-1.6c1.71-1.47,2.09-3.35,2.4-5.48a8.73,8.73,0,0,0-.74-5c-.83-1.81-2.65-2.84-4.37-3.62-3-1.33-7-1.53-9.57.71" transform="translate(0 0)"/><path class="cls-3" d="M1201,133.82c-3-1.34-7-1.53-9.56.7a5.55,5.55,0,0,0-.57.61,2.88,2.88,0,0,0-.77,1.14,20,20,0,0,0-1.24,2.83,7.39,7.39,0,0,0,.15,5.71,6.47,6.47,0,0,0,.86,1.25l.05.08c2,3,5.56,3.46,8.88,3.38a7.59,7.59,0,0,0,4.91-1.6c1.72-1.47,2.1-3.34,2.41-5.47a8.85,8.85,0,0,0-.75-5c-.83-1.8-2.65-2.83-4.37-3.61" transform="translate(0 0)"/><path class="cls-3" d="M1234.32,136a5.44,5.44,0,0,0-.57.6,2.88,2.88,0,0,0-.77,1.14,19.28,19.28,0,0,0-1.23,2.83,7.37,7.37,0,0,0,.14,5.72,6.41,6.41,0,0,0,.86,1.24l0,.09c2,3,5.56,3.46,8.89,3.38a7.58,7.58,0,0,0,4.9-1.6c1.72-1.47,2.1-3.35,2.41-5.47a8.76,8.76,0,0,0-.74-5c-.83-1.81-2.65-2.84-4.37-3.62-3-1.33-7-1.52-9.57.71" transform="translate(0 0)"/><path class="cls-3" d="M1278.51,141.26a4.71,4.71,0,0,0-.58.6,3,3,0,0,0-.76,1.14,19.38,19.38,0,0,0-1.24,2.83,7.37,7.37,0,0,0,.15,5.72,6.82,6.82,0,0,0,.85,1.24l.06.09c2,3,5.56,3.46,8.88,3.38a7.59,7.59,0,0,0,4.91-1.6c1.72-1.47,2.09-3.35,2.41-5.47a8.84,8.84,0,0,0-.75-5c-.83-1.81-2.65-2.84-4.37-3.62-3-1.33-7-1.53-9.56.71" transform="translate(0 0)"/><path class="cls-3" d="M1370.76,152l0,.09c2,3,5.56,3.46,8.88,3.38a7.54,7.54,0,0,0,4.91-1.61c1.72-1.47,2.09-3.34,2.41-5.47a8.81,8.81,0,0,0-.75-5c-.83-1.81-2.65-2.84-4.37-3.62-3-1.33-7-1.53-9.56.71a4.13,4.13,0,0,0-.58.6,3,3,0,0,0-.76,1.14,18.92,18.92,0,0,0-1.24,2.83,7.37,7.37,0,0,0,.15,5.72,6.41,6.41,0,0,0,.86,1.24" transform="translate(0 0)"/><path class="cls-3" d="M1413.37,150.06l.06.09c2,3,5.55,3.46,8.88,3.38a7.62,7.62,0,0,0,4.91-1.6c1.71-1.47,2.09-3.35,2.4-5.47a8.76,8.76,0,0,0-.74-5c-.83-1.81-2.65-2.84-4.37-3.62-3-1.33-7-1.52-9.57.71a5.44,5.44,0,0,0-.57.6,3,3,0,0,0-.77,1.14,19.28,19.28,0,0,0-1.23,2.83,7.37,7.37,0,0,0,.14,5.72,6.41,6.41,0,0,0,.86,1.24" transform="translate(0 0)"/><path class="cls-3" d="M1464,147.38a7.59,7.59,0,0,0,4.9-1.61c1.72-1.47,2.1-3.34,2.41-5.47a8.73,8.73,0,0,0-.75-5c-.83-1.81-2.64-2.84-4.36-3.62-3-1.34-7-1.53-9.57.71a4.67,4.67,0,0,0-.57.6,2.88,2.88,0,0,0-.77,1.14,18.83,18.83,0,0,0-1.23,2.83,7.35,7.35,0,0,0,.14,5.71,6.47,6.47,0,0,0,.86,1.25l0,.08c2,3,5.56,3.46,8.89,3.39" transform="translate(0 0)"/><path class="cls-3" d="M1508.9,143.11c1.71-1.47,2.09-3.34,2.4-5.47a8.76,8.76,0,0,0-.74-5c-.83-1.8-2.65-2.83-4.37-3.61-3-1.34-7-1.53-9.57.7a5.55,5.55,0,0,0-.57.61,2.86,2.86,0,0,0-.76,1.14,18,18,0,0,0-1.24,2.83,7.39,7.39,0,0,0,.14,5.71,6.54,6.54,0,0,0,.86,1.24l.06.09c2,3,5.56,3.46,8.88,3.38a7.6,7.6,0,0,0,4.91-1.6" transform="translate(0 0)"/><path class="cls-3" d="M1544.34,125.89c-2.95-1.34-7-1.53-9.57.7a5.55,5.55,0,0,0-.57.61,2.86,2.86,0,0,0-.76,1.14,18,18,0,0,0-1.24,2.83,7.39,7.39,0,0,0,.14,5.71,7,7,0,0,0,.86,1.25l.06.08c2,3,5.56,3.46,8.88,3.38a7.6,7.6,0,0,0,4.91-1.6c1.72-1.47,2.09-3.34,2.41-5.47a8.85,8.85,0,0,0-.75-5c-.83-1.8-2.65-2.83-4.37-3.61" transform="translate(0 0)"/><path class="cls-3" d="M1572.35,124.08a2.86,2.86,0,0,0-.76,1.14,18.92,18.92,0,0,0-1.24,2.83,7.35,7.35,0,0,0,.15,5.71,6.89,6.89,0,0,0,.85,1.25l.06.08c2,3,5.56,3.46,8.88,3.38a7.59,7.59,0,0,0,4.91-1.6c1.72-1.47,2.09-3.34,2.41-5.47a8.85,8.85,0,0,0-.75-5c-.83-1.8-2.65-2.83-4.37-3.61-3-1.34-7-1.53-9.56.7a4.8,4.8,0,0,0-.58.61" transform="translate(0 0)"/><path class="cls-3" d="M1608.65,131.56a6.12,6.12,0,0,0,.86,1.24l0,.09c2,3,5.56,3.46,8.88,3.38a7.59,7.59,0,0,0,4.91-1.6c1.72-1.47,2.09-3.35,2.41-5.47a8.85,8.85,0,0,0-.75-5c-.83-1.8-2.65-2.84-4.37-3.61-3-1.34-7-1.53-9.56.7a4,4,0,0,0-.57.6,2.88,2.88,0,0,0-.77,1.14,20.52,20.52,0,0,0-1.24,2.83,7.41,7.41,0,0,0,.15,5.72" transform="translate(0 0)"/><path class="cls-3" d="M1648.66,124.7a2.85,2.85,0,0,0-.77,1.15,19.91,19.91,0,0,0-1.24,2.82,7.37,7.37,0,0,0,.15,5.72,6.12,6.12,0,0,0,.86,1.24l0,.09c2,3,5.56,3.46,8.88,3.38a7.59,7.59,0,0,0,4.91-1.6c1.72-1.47,2.09-3.34,2.41-5.47a8.85,8.85,0,0,0-.75-5c-.83-1.8-2.65-2.84-4.37-3.61-3-1.34-7-1.53-9.56.7a4.64,4.64,0,0,0-.57.6" transform="translate(0 0)"/><path class="cls-3" d="M1684.49,129.41a2.86,2.86,0,0,0-.76,1.14,18.36,18.36,0,0,0-1.24,2.83,7.41,7.41,0,0,0,.14,5.72,6.88,6.88,0,0,0,.86,1.24l.06.09c2,3,5.56,3.46,8.88,3.38a7.6,7.6,0,0,0,4.91-1.6c1.72-1.47,2.09-3.35,2.41-5.47a8.85,8.85,0,0,0-.75-5c-.83-1.81-2.65-2.84-4.37-3.62-3-1.33-7-1.52-9.57.71a5.44,5.44,0,0,0-.57.6" transform="translate(0 0)"/><path class="cls-3" d="M1730.45,139.13a8.76,8.76,0,0,0-.75-5c-.83-1.81-2.65-2.84-4.36-3.62-3-1.33-7-1.52-9.57.71a5.44,5.44,0,0,0-.57.6,2.88,2.88,0,0,0-.77,1.14,19.28,19.28,0,0,0-1.23,2.83,7.37,7.37,0,0,0,.14,5.72,6.41,6.41,0,0,0,.86,1.24l0,.09c2,3,5.56,3.46,8.88,3.38a7.59,7.59,0,0,0,4.91-1.6c1.72-1.47,2.1-3.35,2.41-5.47" transform="translate(0 0)"/><path class="cls-3" d="M1759.84,134.44c-2.95-1.34-7-1.53-9.56.7a4.21,4.21,0,0,0-.58.61,2.89,2.89,0,0,0-.76,1.14,19.29,19.29,0,0,0-1.24,2.82,7.37,7.37,0,0,0,.15,5.72,6.49,6.49,0,0,0,.85,1.24l.06.09c2,3,5.56,3.46,8.88,3.38a7.59,7.59,0,0,0,4.91-1.6c1.72-1.47,2.09-3.34,2.41-5.47a8.85,8.85,0,0,0-.75-5c-.83-1.8-2.65-2.83-4.37-3.61" transform="translate(0 0)"/><path class="cls-3" d="M1792.76,133.47c-3-1.33-7-1.53-9.56.71a4.67,4.67,0,0,0-.57.6,2.88,2.88,0,0,0-.77,1.14,18.83,18.83,0,0,0-1.23,2.83,7.37,7.37,0,0,0,.14,5.72,6.41,6.41,0,0,0,.86,1.24l0,.09c2,3,5.56,3.46,8.88,3.38a7.54,7.54,0,0,0,4.91-1.61c1.72-1.46,2.1-3.34,2.41-5.47a8.73,8.73,0,0,0-.75-5c-.83-1.81-2.65-2.84-4.37-3.62" transform="translate(0 0)"/><path class="cls-3" d="M1813.57,142.45l0,.09c2,3,5.56,3.46,8.88,3.38a7.59,7.59,0,0,0,4.91-1.61c1.72-1.47,2.1-3.34,2.41-5.47a8.73,8.73,0,0,0-.75-5c-.83-1.81-2.65-2.84-4.37-3.62-3-1.33-7-1.53-9.56.71a4.67,4.67,0,0,0-.57.6,2.88,2.88,0,0,0-.77,1.14,18.83,18.83,0,0,0-1.23,2.83,7.37,7.37,0,0,0,.14,5.72,6.73,6.73,0,0,0,.86,1.24" transform="translate(0 0)"/><path class="cls-3" d="M1860,135.29a8.81,8.81,0,0,0-.75-5c-.83-1.81-2.65-2.84-4.37-3.62-2.95-1.33-7-1.53-9.57.71a5.44,5.44,0,0,0-.57.6,2.86,2.86,0,0,0-.76,1.14,18.36,18.36,0,0,0-1.24,2.83,7.41,7.41,0,0,0,.14,5.72,6.88,6.88,0,0,0,.86,1.24l.06.09c2,3,5.56,3.46,8.88,3.38a7.59,7.59,0,0,0,4.91-1.6c1.72-1.47,2.09-3.35,2.41-5.48" transform="translate(0 0)"/><path class="cls-3" d="M1893,122.23c-3-1.34-7-1.53-9.56.7a4.71,4.71,0,0,0-.58.6,2.93,2.93,0,0,0-.76,1.15,18.83,18.83,0,0,0-1.24,2.82,7.37,7.37,0,0,0,.15,5.72,6.49,6.49,0,0,0,.85,1.24l.06.09c2,3,5.56,3.46,8.88,3.38a7.59,7.59,0,0,0,4.91-1.6c1.72-1.47,2.09-3.35,2.41-5.47a8.85,8.85,0,0,0-.75-5c-.83-1.8-2.65-2.84-4.37-3.61" transform="translate(0 0)"/><path class="cls-3" d="M364.24,146.08a2.76,2.76,0,0,0-.73,1.1,18.37,18.37,0,0,0-1.19,2.71,7.09,7.09,0,0,0,.14,5.5,6.31,6.31,0,0,0,.82,1.19l.06.09c1.89,2.88,5.34,3.32,8.53,3.25a7.34,7.34,0,0,0,4.72-1.54c1.65-1.41,2-3.22,2.31-5.26a8.41,8.41,0,0,0-.71-4.82c-.8-1.74-2.55-2.73-4.2-3.48-2.84-1.28-6.75-1.47-9.2.68a6.13,6.13,0,0,0-.55.58" transform="translate(0 0)"/><path class="cls-3" d="M1326.28,156.58a.41.41,0,0,1,0,.09c1.9,2.88,5.35,3.32,8.54,3.25a7.34,7.34,0,0,0,4.72-1.54c1.65-1.42,2-3.22,2.31-5.26a8.41,8.41,0,0,0-.71-4.82c-.8-1.74-2.55-2.73-4.2-3.48-2.84-1.28-6.75-1.47-9.2.68a6.13,6.13,0,0,0-.55.58,2.76,2.76,0,0,0-.73,1.1,17.38,17.38,0,0,0-1.19,2.71,7,7,0,0,0,.14,5.5,6.31,6.31,0,0,0,.82,1.19" transform="translate(0 0)"/></g></g></g></svg>