<svg xmlns="http://www.w3.org/2000/svg" xmlns:xlink="http://www.w3.org/1999/xlink" viewBox="0 0 250.74 75.95"><defs><style>.cls-1{fill:none;}.cls-2{clip-path:url(#clip-path);}.cls-3{fill:#898e8c;}</style><clipPath id="clip-path" transform="translate(0 0)"><rect class="cls-1" width="250.74" height="75.95"/></clipPath></defs><title>Asset 4</title><g id="Layer_2" data-name="Layer 2"><g id="Layer_1-2" data-name="Layer 1"><g class="cls-2"><path class="cls-3" d="M11.63,67.15a2.88,2.88,0,0,0,2.11.39q7-1.12,14-2.17a2.52,2.52,0,0,0,1.52-.58c1.3-1.35-1.27-5.56-1.8-6.9q-1.7-4.29-3.35-8.6c-1.54-4-2.62-8.47-4.54-12.33-.86-1.74-3.83-6.06-4.49-2.1-.77,4.58-1.1,9.3-1.74,13.91-.47,3.39-.92,6.78-1.39,10.17-.24,1.79-2.07,6.85-.4,8.15l.08.06m-1.56,8.72H9.59C7,75.86,2.17,76.54.49,74-.58,72.38.4,69.72.66,68c.36-2.47.68-5,1-7.44A129.26,129.26,0,0,1,4.37,45.79l7-26.92c.34-1.33.78-4.79,2.35-5.3S16.64,15,17.4,15.94a32.69,32.69,0,0,1,4.14,6.87c2.18,4.69,4.25,9.42,6.47,14.08,1.87,3.91,4,7.71,6.09,11.51,2.63,4.72,5.41,9.36,8.06,14.08C43.57,65,42.22,69,40,70.71a12.22,12.22,0,0,1-5.2,2c-4.6.82-9.16,1.88-13.8,2.49a84.88,84.88,0,0,1-10.93.71" transform="translate(0 0)"/><path class="cls-3" d="M75.06,68.19c1.52,0,3-.06,4.55-.07,3.33,0,3.83-.64,3-3.74A11,11,0,0,0,82,62.25Q74.69,47.61,67.3,33c-.37-.74-1.56-3.66-2.63-3.59-1.9.13-1.61,8.21-1.71,9.4-.41,4.86-.78,9.71-1.35,14.54q-.81,6.72-2.07,13.37c-.46,2.4.4,2.69,2.56,2.4a124.64,124.64,0,0,1,13-.91m-.43,7a110.56,110.56,0,0,1-19.46-.54c-2.89-.34-4.44-1.92-4-4.69,1.72-10.35,3.54-20.68,5.39-31,.67-3.72,1.42-7.42,2.07-11.14.58-3.34.8-6.78,2.88-9.64,3.51-4.82,6.78,4.36,8.22,6.91,3.73,6.59,7.12,13.32,11,19.82q6,10,12.58,19.61c1.62,2.37,5,5.62,2,8-2.56,2.07-6.2,2.17-9.35,2.23-3.75.08-7.56.27-11.38.42" transform="translate(0 0)"/><path class="cls-3" d="M127.9,68.5c1.39,0,2.78,0,4.17.15,1.87.14,6.91,1,5.51-2.44-3.08-7.48-5.91-15-8.94-22.55-.6-1.48-3.09-9.95-5-9.28-2.35.81-1.21,7.14-1.4,8.91-.79,7.47-3.42,14.7-5.26,22-.55,2.18.5,3.17,2.54,3.23,2.8.09,5.62,0,8.43,0m12.78,6.25c-4,.22-8.2-.67-12.24-.59-4.74.1-9.59-.39-14.34-.63-2.17-.11-5.79-.52-6.85-2.78-1.25-2.67.78-7.3,1.6-9.87a247.51,247.51,0,0,0,7.45-29.33c.93-4.9,1.69-9.82,2.35-14.76.33-2.49,1.84-3.71,4-2.07,2.66,2,4,6,5.43,8.82q4,7.92,7.39,16.14c2.12,5.18,3.5,10.56,5.5,15.77a102.23,102.23,0,0,0,5.39,11.76c1,1.88.87,4.82-.94,6.21a6.91,6.91,0,0,1-3.4,1.21c-.46.06-.93.1-1.39.12" transform="translate(0 0)"/><path class="cls-3" d="M221.93,62.68c-.26,1.49-.45,3.38.41,4.32s3.18.32,4.46.18c4.59-.49,9.14-1.37,13.69-2.1a2.38,2.38,0,0,0,1.26-.46,1.83,1.83,0,0,0,0-2.22,103.9,103.9,0,0,1-6.2-12.23c-1.27-2.94-2.36-5.94-3.45-9-.53-1.44-1-2.9-1.59-4.34a21.29,21.29,0,0,0-1.1-3.3,1.17,1.17,0,0,0-1.61-.41,1.65,1.65,0,0,0-.45,1q-2.56,13.59-5.14,27.19c-.07.36-.17.81-.25,1.32m21.14,9c-7.08.94-14.15,1.91-21.29,2.26-2.74.13-7.49.68-8.88-2.31-1.14-2.47-.16-6.28.29-8.85.55-3.18,1.34-6.32,1.91-9.49,1-5.63,2.07-11.25,3.22-16.85,1.25-6.1,3.06-12.11,4.82-18.1a3.31,3.31,0,0,1,2.52-1.89,4.39,4.39,0,0,1,3.56,1.38,8.34,8.34,0,0,1,1.05,2.19c2.61,7.24,5.27,14.27,8.55,21.24,3.42,7.28,7,14.49,10.39,21.77,1,2.12,2.79,5.56.16,7.28a8.11,8.11,0,0,1-3.48,1l-2.82.37" transform="translate(0 0)"/><path class="cls-3" d="M186.85,67.67v.09c1.08,0,2.17,0,3.26,0,2.84-.15,3.14-.58,1.87-3q-4.53-8.61-9-17.26c-1.52-2.94-3.06-5.87-4.56-8.82-.6-1.19-1.58-4.84-3.25-5-1.43-.17-1.24,2-1.28,3-.31,9.86-.5,19.72-1.36,29.56-.17,1.87.95,1.59,2,1.59,4.12,0,8.24-.06,12.37-.09M184.43,73c-5.3.3-10.58.66-15.86,1.29-1.78.22-4.92.67-6.2-1s-.29-4.45,0-6.12c1.32-7.5,2-15.1,2.87-22.68.87-8.1,1.57-16.23,2.36-24.35.24-2.43,1.86-4.85,4.44-3,1.77,1.25,2.65,3.62,3.62,5.46,2.16,4.12,4.2,8.31,6.37,12.43,3.56,6.75,7.22,13.46,10.84,20.18,2,3.75,4.14,7.45,6,11.26a4,4,0,0,1-1.57,5.5c-2.71,1.31-7,.74-10,.91l-2.89.16" transform="translate(0 0)"/><path class="cls-3" d="M148.57,6.63a3.5,3.5,0,0,0-3.94,2.87,4.42,4.42,0,0,0,1.58,4.23c3.07,2.54,8.28.39,7-3.87a5.09,5.09,0,0,0-4.6-3.23m.69,15.05c-4.18.18-8.7-1.92-10.81-5.51s-1.25-7.59.75-10.91c2.44-4.07,7.7-5.44,12.21-4.54,12.18,2.43,10.62,19.83-1.64,20.92l-.51,0" transform="translate(0 0)"/><path class="cls-3" d="M92.7,13.68a4.34,4.34,0,0,0,2.66-.47c1.22-.57,3-1.62,2.86-3.16s-2.54-3.11-5.11-3c-1.6,0-4.09,2.28-3.8,3.92a3.32,3.32,0,0,0,1.91,2.26,5.2,5.2,0,0,0,1.48.48M104,11.55c0,7.22-9,13.07-16.34,8.9a11.23,11.23,0,0,1-5.44-11.1C82.71,5.23,87.29,1,91.67,1a13,13,0,0,1,10.55,5.21A9.53,9.53,0,0,1,104,11.55" transform="translate(0 0)"/><path class="cls-3" d="M201.72,5.65C198,5.63,196,7.13,196,9.86a4.85,4.85,0,0,0,4.64,4.78c3.27,0,5.85-1.84,5.88-4.25,0-3-1.69-4.72-4.79-4.74m10.83,4.08c.15,6.4-3.91,10.73-10.28,11C194.75,21,187.18,12,191.35,5.12a11.25,11.25,0,0,1,8.52-5c6.5-.65,12.53,2.86,12.68,9.65" transform="translate(0 0)"/><path class="cls-3" d="M38.55,8.47c-2.07.32-4,1.61-3.5,3.76a3.71,3.71,0,0,0,2.43,2.56c3.86,1.36,9.32-3.11,4.43-5.88a5.44,5.44,0,0,0-3.36-.44m-9.77,4c-.46-4.09,2.37-7.88,5.8-9.92,6.77-4,15.86,3.3,15.1,10.39-.56,5.32-6.28,8.08-11.3,7.77a10.5,10.5,0,0,1-9.23-6.6,7.58,7.58,0,0,1-.37-1.64" transform="translate(0 0)"/></g></g></g></svg>