<svg xmlns="http://www.w3.org/2000/svg" xmlns:xlink="http://www.w3.org/1999/xlink" viewBox="0 0 479.74 23.91"><defs><style>.cls-1{fill:none;}.cls-2{clip-path:url(#clip-path);}.cls-3{fill:#dd9429;}.cls-4{fill:#948b84;}.cls-5{fill:#1fc0da;}</style><clipPath id="clip-path" transform="translate(0 0)"><rect class="cls-1" width="479.74" height="23.91"/></clipPath></defs><title>Asset 3</title><g id="Layer_2" data-name="Layer 2"><g id="Layer_1-2" data-name="Layer 1"><g class="cls-2"><path class="cls-3" d="M55.9,18.21a43.67,43.67,0,0,1,9.16,1.42c1.51.34,4.66.83,3,3.17-1.24,1.76-5.82.88-7.64.85-3.31-.06-6.62-.17-9.93-.24a2.89,2.89,0,0,1-2.62-1.54c-1.27-2.43,3.5-3.21,5-3.44a19.69,19.69,0,0,1,3.06-.22" transform="translate(0 0)"/><path class="cls-3" d="M70.3,6.28c.7.08,1.36.19,1.86.22,2.12.17,12.69-.67,13,2.14a1.87,1.87,0,0,1-1,1.68,5.48,5.48,0,0,1-2,.57c-4.41.7-11.45,2.42-15.45-.42-1.22-.86-1.88-2.49-.63-3.64,1.06-1,2.93-.71,4.22-.55" transform="translate(0 0)"/><path class="cls-3" d="M85.15,18.56c.9,0,1.8.06,2.7.13A9,9,0,0,1,91,19.3c1.73.89.36,2.21-.85,3.06-1.7,1.2-4.86.84-6.91.93-2.49.12-5,.18-7.49.25h-.27a2.9,2.9,0,0,1-3-1.89C71.88,19,75.25,19.21,76.93,19a68.41,68.41,0,0,1,8.22-.47" transform="translate(0 0)"/><path class="cls-3" d="M22,11.25c-2.44,0-4.84.5-7.3.2a2.41,2.41,0,0,1-2.21-2.94,3.18,3.18,0,0,1,2.42-1.66,93.5,93.5,0,0,1,12.07,0c2.23.18,3.48,3.15,1.23,4.35-1.27.68-3.58.2-5,.12-.42,0-.84,0-1.26,0" transform="translate(0 0)"/><path class="cls-3" d="M100.72,11.06h-.33c-1.88,0-4,.45-5.74-.46a2,2,0,0,1-1.13-2.23,2,2,0,0,1,1.39-1.18c2.15-.59,5-.16,7.22-.15,2,0,9.73-1.32,9.33,2.24-.2,1.81-2.44,2.08-3.88,2.09-2.29,0-4.57-.25-6.86-.31" transform="translate(0 0)"/><path class="cls-3" d="M36.36,18.49c0-.18,6.28-.11,6.57,1.87.2,1.34-2,2.34-3,2.56a35.27,35.27,0,0,1-5.14.26c-2.25.13-4.5.21-6.74.46-1.42.16-2.41-.11-2.76-1.61-.4-1.69.75-2.55,2-2.83a46.9,46.9,0,0,1,6.18-.66c1-.08,1.91,0,2.86-.05" transform="translate(0 0)"/><path class="cls-3" d="M106.58,23.33c-3,.28-7.71.83-8.8-1.23a2.14,2.14,0,0,1,.09-2,2.86,2.86,0,0,1,2.62-1.48c2.6,0,5.23.06,7.82-.08,1.59-.09,5-.07,6,1.45,2,3-4.71,3.21-6.18,3.24-.42,0-1,.05-1.56.11" transform="translate(0 0)"/><path class="cls-3" d="M130.68,18.76h5.72c1.22,0,2.93-.11,2.76,1.45a3.85,3.85,0,0,1-2.64,2.57c-4.12.45-8.29.49-12.44.59a3,3,0,0,1-2.12-.68,3.41,3.41,0,0,1-.84-2.51c.11-.54,1.3-1.17,2-1.21,2.51-.15,5-.19,7.53-.2" transform="translate(0 0)"/><path class="cls-3" d="M128.16,11.67c-1,0-2,0-2.92-.09a5,5,0,0,1-2.55-.71,2.54,2.54,0,0,1-1.21-2.26c.3-3.18,9.34-1.84,11.47-1.76,1.27,0,3-.19,4.17.52,2,1.24-.53,3.35-2,3.67a31.43,31.43,0,0,1-6.93.63" transform="translate(0 0)"/><path class="cls-3" d="M6.69,23.91c-1,0-1.95,0-2.92-.09a5,5,0,0,1-2.55-.71A2.54,2.54,0,0,1,0,20.85c.3-3.17,9.34-1.83,11.47-1.76,1.27,0,3-.18,4.17.52,2,1.24-.53,3.35-2,3.68a32.19,32.19,0,0,1-6.94.62" transform="translate(0 0)"/><path class="cls-3" d="M48.75,6.71c1.56,0,3.12.09,4.67,0s3.2-.12,3.13,1.64c-.18,4.62-10.72,2.92-13.2,2.87l-.77,0c-1.66-.1-3.12-.91-3-2.54.07-.73,1.84-1.7,2.93-1.86a40.31,40.31,0,0,1,6.22-.07" transform="translate(0 0)"/><path class="cls-4" d="M156.5,10.64A3.14,3.14,0,0,0,153.75,12a3.32,3.32,0,0,0,.14,3.47c1.68,2.64,6.8,1.89,6.76-1.61,0-2-2.18-3.2-4.15-3.18m8.77,2.56c.09,6-4.83,12.4-11.36,9.17C151.07,21,149.24,18,148.37,15a11.31,11.31,0,0,1-.21-6c2.08-7.5,12.17-6,15.7-.62a9.13,9.13,0,0,1,1.41,4.87" transform="translate(0 0)"/><path class="cls-4" d="M180.41,10.64A3.14,3.14,0,0,0,177.66,12a3.32,3.32,0,0,0,.14,3.47c1.68,2.64,6.8,1.89,6.76-1.61,0-2-2.18-3.2-4.15-3.18m8.77,2.56c.09,6-4.83,12.4-11.36,9.17C175,21,173.15,18,172.28,15a11.21,11.21,0,0,1-.21-6c2.08-7.5,12.17-6,15.7-.62a9.13,9.13,0,0,1,1.41,4.87" transform="translate(0 0)"/><path class="cls-4" d="M204.32,10.64A3.14,3.14,0,0,0,201.57,12a3.32,3.32,0,0,0,.14,3.47c1.68,2.64,6.8,1.89,6.76-1.61,0-2-2.18-3.2-4.15-3.18m8.77,2.56c.09,6-4.83,12.4-11.36,9.17C198.89,21,197.05,18,196.19,15A11.21,11.21,0,0,1,196,9c2.08-7.5,12.17-6,15.7-.62a9.13,9.13,0,0,1,1.41,4.87" transform="translate(0 0)"/><path class="cls-4" d="M228.23,10.64A3.14,3.14,0,0,0,225.48,12a3.32,3.32,0,0,0,.14,3.47c1.68,2.64,6.8,1.89,6.76-1.61,0-2-2.18-3.2-4.15-3.18M237,13.2c.09,6-4.83,12.4-11.36,9.17C222.8,21,221,18,220.1,15a11.21,11.21,0,0,1-.21-6c2.08-7.5,12.17-6,15.7-.62A9.13,9.13,0,0,1,237,13.2" transform="translate(0 0)"/><path class="cls-4" d="M252.13,10.64A3.13,3.13,0,0,0,249.39,12a3.32,3.32,0,0,0,.14,3.47c1.68,2.64,6.8,1.89,6.76-1.61,0-2-2.19-3.2-4.16-3.18m8.78,2.56c.09,6-4.83,12.4-11.36,9.17C246.71,21,244.87,18,244,15a11.21,11.21,0,0,1-.21-6c2.08-7.5,12.17-6,15.7-.62a9.13,9.13,0,0,1,1.41,4.87" transform="translate(0 0)"/><path class="cls-4" d="M276,10.64A3.12,3.12,0,0,0,273.3,12a3.34,3.34,0,0,0,.13,3.47c1.69,2.64,6.81,1.89,6.77-1.61,0-2-2.19-3.2-4.16-3.18m8.78,2.56c.09,6-4.83,12.4-11.36,9.17C270.62,21,268.78,18,267.92,15a11.21,11.21,0,0,1-.21-6c2.08-7.5,12.17-6,15.7-.62a9.13,9.13,0,0,1,1.41,4.87" transform="translate(0 0)"/><path class="cls-5" d="M376,9.72c-.89.33-1.47,1.66-2,2.28-2.7,3.11-5.48,6.14-8.19,9.24-2.42,2.76-4.6-.57-6.53-2.31-2.6-2.35-5.27-5.61-8.25-7.45-2.58-1.58-3.57,1.55-4.81,3.3-2,2.78-7.32,10.77-11.1,6.81q-4.12-4.32-8.26-8.65c-2.45-2.56-3.47-2.62-5.65.31-1.26,1.68-2.54,3.36-3.91,5s-3,4-4.86,4.93-3.8-1-5.37-2c-2.1-1.31-4.17-2.67-6.24-4-3.2-2.11-6.38-4.26-9.5-6.48-1.91-1.37-2.43-5.64.9-5.34a6.1,6.1,0,0,1,3.06,1.6c4.46,3.62,10.05,6.33,14.89,9.49,1.72,1.13,3,1,4.05-.64,2-3.14,4.14-6.24,5.9-9.52C321.7,3.33,323,2.81,325.46,5q5.46,4.77,10.78,9.71c2.32,2.15,2.75,2.22,4.61-.41,1.75-2.48,3.3-5.11,5-7.58,1.94-2.73,3.08-3.07,5.79-1,3,2.28,5.72,5,8.55,7.53.37.34.69.75,1.07,1.07,3,2.49,3.68,2.47,6.1-.63,2.12-2.71,4.14-5.5,6.14-8.3,1.33-1.86,2.9-2.18,4.65-.78,3.38,2.71,6.65,5.55,10,8.26,2.8,2.25,3.1,2.24,5.41-.42,1.85-2.13,3.57-4.38,5.3-6.62,2-2.59,2.77-2.45,5.35-.49C409,8.82,413.88,12,418.7,15.37c1.4,1,2.21,0,3-1,2.39-3,4.73-6.07,7.24-9s3.41-3.11,6.42-1.06a114.17,114.17,0,0,1,10.79,8.31c1.8,1.57,2.7,1.18,3.76-.54C452,8.75,454.15,5.43,456.15,2,457.27.11,458.67-.5,460.69.43q6.48,3,12.95,6c1.1.51,2.19,1.06,3.31,1.52,2.45,1,3.32,2.3,2.49,3.9s-3.65,2.21-5.22,1.38C470,11,465.75,9,461.58,6.69c-1.66-.89-2.5-.52-3.38,1.06a57,57,0,0,1-4.53,7.2,40.39,40.39,0,0,1-3.5,3.79c-1.16,1.14-2.55,1.76-3.92.7-3.27-2.54-6.45-5.2-9.66-7.81-.63-.52-1.26-1-1.91-1.51-1.66-1.23-3.09-1.22-4.31.68a28.44,28.44,0,0,1-3,4.18,78.43,78.43,0,0,1-6.67,6.48c-1.93,1.62-6.23-2.53-7.64-3.49-2.78-1.39-5.49-3.67-8-5.48s-3.77-1.65-5.93.71-4.74,4.86-7.21,7.18a2.44,2.44,0,0,1-2.27-.23c-4-3.26-7.73-7-12-10a2.63,2.63,0,0,0-1-.51,1.17,1.17,0,0,0-.67.06" transform="translate(0 0)"/></g></g></g></svg>